G04 #@! TF.FileFunction,Copper,L2,Bot,Signal*
%FSLAX46Y46*%
G04 Gerber Fmt 4.6, Leading zero omitted, Abs format (unit mm)*
G04 Created by KiCad (PCBNEW 4.0.2+e4-6225~38~ubuntu16.04.1-stable) date jue 21 jul 2016 17:27:27 ART*
%MOMM*%
G01*
G04 APERTURE LIST*
%ADD10C,0.100000*%
%ADD11R,2.235200X2.235200*%
%ADD12R,1.727200X1.727200*%
%ADD13O,1.727200X1.727200*%
%ADD14C,1.998980*%
%ADD15C,1.320800*%
%ADD16C,0.304800*%
%ADD17C,1.000000*%
G04 APERTURE END LIST*
D10*
D11*
X96520000Y-97790000D03*
X86360000Y-100330000D03*
X96520000Y-102870000D03*
X86360000Y-105410000D03*
X96520000Y-107950000D03*
X128270000Y-114300000D03*
D12*
X106680000Y-97790000D03*
D13*
X109220000Y-97790000D03*
X106680000Y-100330000D03*
X109220000Y-100330000D03*
X106680000Y-102870000D03*
X109220000Y-102870000D03*
X106680000Y-105410000D03*
X109220000Y-105410000D03*
X106680000Y-107950000D03*
X109220000Y-107950000D03*
D11*
X86360000Y-114300000D03*
X128270000Y-97790000D03*
X123190000Y-100330000D03*
X128270000Y-102870000D03*
X123190000Y-105410000D03*
X128270000Y-107950000D03*
D14*
X119380000Y-114300000D03*
X111760000Y-114300000D03*
X96520000Y-114300000D03*
X104140000Y-114300000D03*
D15*
X121920000Y-93980000D03*
X115570000Y-93980000D03*
X110490000Y-93980000D03*
X105410000Y-93980000D03*
X101600000Y-93980000D03*
X97790000Y-93980000D03*
X93980000Y-93980000D03*
X90170000Y-93980000D03*
X106680000Y-97790000D03*
X109220000Y-97790000D03*
X106680000Y-100330000D03*
X106680000Y-102870000D03*
X106680000Y-105410000D03*
X106680000Y-107950000D03*
X96520000Y-114300000D03*
X104140000Y-114300000D03*
X111760000Y-114300000D03*
X119380000Y-114300000D03*
X109220000Y-100330000D03*
X109220000Y-102870000D03*
X116840000Y-110490000D03*
X111760000Y-110490000D03*
X104140000Y-110490000D03*
X100330000Y-110490000D03*
X92710000Y-110490000D03*
X109220000Y-107950000D03*
X109220000Y-105410000D03*
D16*
X90170000Y-100330000D02*
X90170000Y-93980000D01*
X121920000Y-93980000D02*
X121920000Y-97790000D01*
X110490000Y-93980000D02*
X115570000Y-93980000D01*
X101600000Y-93980000D02*
X105410000Y-93980000D01*
X93980000Y-93980000D02*
X97790000Y-93980000D01*
X96520000Y-97790000D02*
X106680000Y-97790000D01*
X109220000Y-97790000D02*
X121920000Y-97790000D01*
X121920000Y-97790000D02*
X128270000Y-97790000D01*
X86360000Y-100330000D02*
X90170000Y-100330000D01*
X90170000Y-100330000D02*
X106680000Y-100330000D01*
X106680000Y-102870000D02*
X96520000Y-102870000D01*
D17*
X90170000Y-105410000D02*
X90170000Y-110490000D01*
X90170000Y-110490000D02*
X92710000Y-110490000D01*
D16*
X86360000Y-105410000D02*
X90170000Y-105410000D01*
X90170000Y-105410000D02*
X106680000Y-105410000D01*
X106680000Y-107950000D02*
X96520000Y-107950000D01*
X96520000Y-114300000D02*
X104140000Y-114300000D01*
X111760000Y-114300000D02*
X119380000Y-114300000D01*
X109220000Y-100330000D02*
X109220000Y-102870000D01*
D17*
X111760000Y-110490000D02*
X116840000Y-110490000D01*
X100330000Y-110490000D02*
X104140000Y-110490000D01*
D16*
X109220000Y-107950000D02*
X109220000Y-105410000D01*
M02*
