M48
;DRILL file {KiCad 4.0.2+e4-6225~38~ubuntu16.04.1-stable} date jue 21 jul 2016 17:27:18 ART
;FORMAT={-:-/ absolute / metric / decimal}
FMAT,2
METRIC,TZ
T1C0.700
T2C1.001
T3C1.016
%
G90
G05
M71
T1
X90.17Y-93.98
X92.71Y-110.49
X93.98Y-93.98
X96.52Y-114.3
X97.79Y-93.98
X100.33Y-110.49
X101.6Y-93.98
X104.14Y-110.49
X104.14Y-114.3
X105.41Y-93.98
X106.68Y-97.79
X106.68Y-100.33
X106.68Y-102.87
X106.68Y-105.41
X106.68Y-107.95
X109.22Y-97.79
X109.22Y-100.33
X109.22Y-102.87
X109.22Y-105.41
X109.22Y-107.95
X110.49Y-93.98
X111.76Y-110.49
X111.76Y-114.3
X115.57Y-93.98
X116.84Y-110.49
X119.38Y-114.3
X121.92Y-93.98
T2
X96.52Y-114.3
X104.14Y-114.3
X111.76Y-114.3
X119.38Y-114.3
T3
X86.36Y-100.33
X86.36Y-105.41
X86.36Y-114.3
X96.52Y-97.79
X96.52Y-102.87
X96.52Y-107.95
X106.68Y-97.79
X106.68Y-100.33
X106.68Y-102.87
X106.68Y-105.41
X106.68Y-107.95
X109.22Y-97.79
X109.22Y-100.33
X109.22Y-102.87
X109.22Y-105.41
X109.22Y-107.95
X123.19Y-100.33
X123.19Y-105.41
X128.27Y-97.79
X128.27Y-102.87
X128.27Y-107.95
X128.27Y-114.3
T0
M30
