G04 #@! TF.FileFunction,Copper,L2,Bot,Signal*
%FSLAX46Y46*%
G04 Gerber Fmt 4.6, Leading zero omitted, Abs format (unit mm)*
G04 Created by KiCad (PCBNEW 4.0.7-e2-6376~61~ubuntu18.04.1) date Tue Dec  4 15:55:48 2018*
%MOMM*%
%LPD*%
G01*
G04 APERTURE LIST*
%ADD10C,0.100000*%
%ADD11C,0.500000*%
%ADD12C,0.150000*%
%ADD13R,3.000000X3.000000*%
%ADD14C,3.000000*%
%ADD15R,1.800000X1.800000*%
%ADD16O,1.800000X1.800000*%
%ADD17C,1.000000*%
%ADD18R,1.000000X1.000000*%
%ADD19R,2.400000X2.400000*%
%ADD20C,2.400000*%
%ADD21C,1.600000*%
%ADD22C,2.350000*%
%ADD23O,1.510000X3.010000*%
%ADD24O,1.200000X1.600000*%
%ADD25O,1.200000X1.200000*%
%ADD26O,1.600000X1.200000*%
%ADD27O,1.600000X1.600000*%
%ADD28O,2.400000X2.400000*%
%ADD29C,1.320800*%
%ADD30C,2.032000*%
%ADD31C,0.762000*%
%ADD32C,0.406400*%
G04 APERTURE END LIST*
D10*
D11*
X115172856Y-131801905D02*
X117553809Y-131801905D01*
X117553809Y-126801905D01*
X110649047Y-131325714D02*
X110887142Y-131563810D01*
X111601428Y-131801905D01*
X112077618Y-131801905D01*
X112791904Y-131563810D01*
X113268095Y-131087619D01*
X113506190Y-130611429D01*
X113744285Y-129659048D01*
X113744285Y-128944762D01*
X113506190Y-127992381D01*
X113268095Y-127516190D01*
X112791904Y-127040000D01*
X112077618Y-126801905D01*
X111601428Y-126801905D01*
X110887142Y-127040000D01*
X110649047Y-127278095D01*
X108506190Y-131801905D02*
X108506190Y-126801905D01*
D12*
X94615000Y-134620000D02*
X94615000Y-57785000D01*
X219710000Y-134620000D02*
X94615000Y-134620000D01*
X219710000Y-57785000D02*
X219710000Y-134620000D01*
X94615000Y-57785000D02*
X219710000Y-57785000D01*
D13*
X137160000Y-127635000D03*
D14*
X132080000Y-127635000D03*
X127000000Y-127635000D03*
D15*
X172720000Y-69850000D03*
D16*
X175260000Y-69850000D03*
X177800000Y-69850000D03*
D17*
X125095000Y-92710000D03*
X123825000Y-91440000D03*
D18*
X126365000Y-91440000D03*
D19*
X101600000Y-81280000D03*
D20*
X109100000Y-81280000D03*
D19*
X101600000Y-100965000D03*
D20*
X109100000Y-100965000D03*
D21*
X191770000Y-102870000D03*
X189270000Y-102870000D03*
X120015000Y-90805000D03*
X120015000Y-93305000D03*
X120015000Y-102235000D03*
X120015000Y-99735000D03*
X214630000Y-83820000D03*
X214630000Y-86320000D03*
X119380000Y-73660000D03*
X116880000Y-73660000D03*
D15*
X202565000Y-77470000D03*
D16*
X202565000Y-85090000D03*
D15*
X135255000Y-78105000D03*
D16*
X135255000Y-85725000D03*
D15*
X211455000Y-98425000D03*
D16*
X211455000Y-90805000D03*
D15*
X144780000Y-119380000D03*
D16*
X137160000Y-119380000D03*
D22*
X104060000Y-116840000D03*
X98980000Y-116840000D03*
X114300000Y-116840000D03*
X119380000Y-116840000D03*
X101520000Y-119380000D03*
X101520000Y-114300000D03*
X116840000Y-119380000D03*
X116840000Y-114300000D03*
D23*
X171450000Y-83185000D03*
X173990000Y-83185000D03*
X162560000Y-83185000D03*
X165100000Y-83185000D03*
D17*
X200660000Y-116205000D03*
X199390000Y-114935000D03*
D18*
X201930000Y-114935000D03*
D17*
X138430000Y-110490000D03*
X137160000Y-109220000D03*
D18*
X139700000Y-109220000D03*
D17*
X200660000Y-110490000D03*
X199390000Y-109220000D03*
D18*
X201930000Y-109220000D03*
D17*
X146685000Y-98425000D03*
X147955000Y-97155000D03*
D18*
X147955000Y-99695000D03*
D17*
X200660000Y-104775000D03*
X199390000Y-103505000D03*
D18*
X201930000Y-103505000D03*
D17*
X200025000Y-96520000D03*
X198755000Y-95250000D03*
D18*
X201295000Y-95250000D03*
D17*
X132080000Y-92710000D03*
X130810000Y-91440000D03*
D18*
X133350000Y-91440000D03*
D24*
X209550000Y-72390000D03*
D25*
X210820000Y-71120000D03*
X209550000Y-69850000D03*
D15*
X191770000Y-69850000D03*
D16*
X194310000Y-69850000D03*
X196850000Y-69850000D03*
D15*
X138430000Y-69850000D03*
D16*
X140970000Y-69850000D03*
X143510000Y-69850000D03*
D15*
X154940000Y-69850000D03*
D16*
X157480000Y-69850000D03*
X160020000Y-69850000D03*
D26*
X124460000Y-72390000D03*
D25*
X125730000Y-73660000D03*
X127000000Y-72390000D03*
D21*
X196215000Y-115570000D03*
D27*
X188595000Y-115570000D03*
D21*
X147955000Y-109855000D03*
D27*
X147955000Y-117475000D03*
D21*
X205740000Y-126365000D03*
D27*
X205740000Y-118745000D03*
D21*
X123825000Y-100965000D03*
D27*
X131445000Y-100965000D03*
D21*
X205740000Y-107950000D03*
D27*
X205740000Y-115570000D03*
D21*
X142240000Y-101600000D03*
D27*
X134620000Y-101600000D03*
D21*
X188595000Y-106680000D03*
D27*
X196215000Y-106680000D03*
D21*
X196215000Y-110490000D03*
D27*
X188595000Y-110490000D03*
D21*
X196215000Y-99695000D03*
D27*
X203835000Y-99695000D03*
D21*
X123825000Y-97155000D03*
D27*
X131445000Y-97155000D03*
D21*
X142240000Y-97155000D03*
D27*
X134620000Y-97155000D03*
D21*
X134620000Y-105410000D03*
D27*
X142240000Y-105410000D03*
D21*
X198755000Y-85090000D03*
D27*
X198755000Y-77470000D03*
D21*
X139065000Y-85725000D03*
D27*
X139065000Y-78105000D03*
D21*
X194945000Y-77470000D03*
D27*
X194945000Y-85090000D03*
D21*
X142875000Y-78105000D03*
D27*
X142875000Y-85725000D03*
D21*
X191135000Y-85090000D03*
D27*
X191135000Y-77470000D03*
D21*
X146685000Y-85725000D03*
D27*
X146685000Y-78105000D03*
D21*
X207010000Y-77470000D03*
D27*
X207010000Y-85090000D03*
D21*
X210820000Y-77470000D03*
D27*
X210820000Y-85090000D03*
D21*
X214630000Y-71120000D03*
D27*
X214630000Y-78740000D03*
D21*
X187325000Y-77470000D03*
D27*
X187325000Y-85090000D03*
D21*
X202565000Y-66040000D03*
D27*
X202565000Y-73660000D03*
D21*
X172085000Y-77470000D03*
D27*
X179705000Y-77470000D03*
D21*
X199390000Y-64770000D03*
D27*
X191770000Y-64770000D03*
D20*
X156210000Y-90170000D03*
D28*
X156210000Y-118110000D03*
D20*
X168275000Y-90170000D03*
D28*
X168275000Y-118110000D03*
D20*
X180340000Y-90170000D03*
D28*
X180340000Y-118110000D03*
D21*
X130810000Y-65405000D03*
D27*
X138430000Y-65405000D03*
D21*
X158115000Y-78105000D03*
D27*
X158115000Y-85725000D03*
D21*
X130810000Y-74930000D03*
D27*
X138430000Y-74930000D03*
D21*
X154305000Y-78105000D03*
D27*
X154305000Y-85725000D03*
D21*
X125730000Y-78105000D03*
D27*
X125730000Y-85725000D03*
D21*
X121920000Y-78105000D03*
D27*
X121920000Y-85725000D03*
D21*
X118110000Y-78105000D03*
D27*
X118110000Y-85725000D03*
D15*
X150495000Y-78105000D03*
D16*
X150495000Y-85725000D03*
D15*
X183515000Y-77470000D03*
D16*
X183515000Y-85090000D03*
D14*
X179070000Y-127635000D03*
X184150000Y-127635000D03*
D13*
X173990000Y-127635000D03*
D14*
X189230000Y-127635000D03*
X194310000Y-127635000D03*
D13*
X146050000Y-127635000D03*
D14*
X151130000Y-127635000D03*
X156210000Y-127635000D03*
D13*
X162560000Y-127635000D03*
D14*
X167640000Y-127635000D03*
D29*
X127635000Y-118745000D03*
X127635000Y-121285000D03*
X127635000Y-116205000D03*
X185420000Y-119380000D03*
X185420000Y-121920000D03*
X173355000Y-121285000D03*
X170815000Y-121285000D03*
X175895000Y-121285000D03*
X189230000Y-97790000D03*
X149225000Y-88900000D03*
X132080000Y-86360000D03*
X120015000Y-96520000D03*
X132080000Y-104775000D03*
X205105000Y-75565000D03*
X195580000Y-92710000D03*
X187325000Y-88265000D03*
X148590000Y-121285000D03*
X178435000Y-121920000D03*
X134620000Y-122555000D03*
D30*
X101600000Y-100965000D02*
X101600000Y-114220000D01*
X101600000Y-114220000D02*
X101520000Y-114300000D01*
X98980000Y-116840000D02*
X101520000Y-119380000D01*
X101520000Y-119380000D02*
X104060000Y-116840000D01*
X104060000Y-116840000D02*
X101520000Y-114300000D01*
X101520000Y-114300000D02*
X98980000Y-116840000D01*
D31*
X202565000Y-73660000D02*
X198755000Y-69850000D01*
X198755000Y-69850000D02*
X196850000Y-69850000D01*
X123825000Y-91440000D02*
X123825000Y-90170000D01*
X133985000Y-74930000D02*
X138430000Y-74930000D01*
X130175000Y-78740000D02*
X133985000Y-74930000D01*
X130175000Y-86360000D02*
X130175000Y-78740000D01*
X127000000Y-89535000D02*
X130175000Y-86360000D01*
X124460000Y-89535000D02*
X127000000Y-89535000D01*
X123825000Y-90170000D02*
X124460000Y-89535000D01*
X138430000Y-74930000D02*
X138430000Y-72390000D01*
X138430000Y-72390000D02*
X138430000Y-73025000D01*
X138430000Y-73025000D02*
X138430000Y-72390000D01*
D30*
X101600000Y-81280000D02*
X101600000Y-79375000D01*
X101600000Y-79375000D02*
X119380000Y-61595000D01*
D31*
X193040000Y-89535000D02*
X193040000Y-92710000D01*
X195580000Y-81280000D02*
X198755000Y-81280000D01*
X198755000Y-81280000D02*
X200660000Y-79375000D01*
X200660000Y-79375000D02*
X200660000Y-76200000D01*
X200660000Y-76200000D02*
X196850000Y-72390000D01*
X196850000Y-72390000D02*
X196850000Y-69850000D01*
X193040000Y-89535000D02*
X193040000Y-83820000D01*
X198755000Y-100965000D02*
X198755000Y-98425000D01*
X198755000Y-98425000D02*
X196215000Y-95885000D01*
X199390000Y-103505000D02*
X199390000Y-101600000D01*
X199390000Y-101600000D02*
X198755000Y-100965000D01*
X193040000Y-83820000D02*
X195580000Y-81280000D01*
X193040000Y-92710000D02*
X196215000Y-95885000D01*
X123825000Y-91440000D02*
X123190000Y-90805000D01*
X123190000Y-90805000D02*
X120015000Y-90805000D01*
D30*
X119380000Y-61595000D02*
X137795000Y-61595000D01*
X101600000Y-100965000D02*
X101600000Y-81280000D01*
D31*
X199390000Y-103505000D02*
X192405000Y-103505000D01*
X192405000Y-103505000D02*
X191770000Y-102870000D01*
X188595000Y-106680000D02*
X189230000Y-106680000D01*
X189230000Y-106680000D02*
X191770000Y-104140000D01*
X191770000Y-104140000D02*
X191770000Y-102870000D01*
D30*
X135255000Y-68580000D02*
X135255000Y-72390000D01*
X135255000Y-64135000D02*
X137795000Y-61595000D01*
X135255000Y-68580000D02*
X135255000Y-64135000D01*
X135255000Y-72390000D02*
X138430000Y-72390000D01*
X138430000Y-72390000D02*
X140970000Y-72390000D01*
X140970000Y-72390000D02*
X143510000Y-72390000D01*
X143510000Y-72390000D02*
X143306802Y-72186802D01*
X143306802Y-72186802D02*
X143306802Y-69850000D01*
X143306802Y-69850000D02*
X143510000Y-69850000D01*
X137795000Y-61595000D02*
X191770000Y-61595000D01*
X196850000Y-69850000D02*
X196850000Y-67310000D01*
X196850000Y-67310000D02*
X196850000Y-65405000D01*
X196850000Y-65405000D02*
X193040000Y-61595000D01*
X193040000Y-61595000D02*
X191770000Y-61595000D01*
X143510000Y-69850000D02*
X143510000Y-72390000D01*
D31*
X123825000Y-97155000D02*
X123190000Y-96520000D01*
X123190000Y-92075000D02*
X123825000Y-91440000D01*
X123190000Y-96520000D02*
X123190000Y-92075000D01*
D30*
X127635000Y-116205000D02*
X127635000Y-118745000D01*
X127635000Y-121920000D02*
X130175000Y-124460000D01*
X127635000Y-121920000D02*
X127635000Y-121285000D01*
X127635000Y-118745000D02*
X127635000Y-121285000D01*
D31*
X185420000Y-119380000D02*
X186055000Y-118745000D01*
D30*
X184150000Y-127635000D02*
X185420000Y-126365000D01*
X185420000Y-126365000D02*
X185420000Y-121920000D01*
X185420000Y-119380000D02*
X185420000Y-121920000D01*
D31*
X186055000Y-118745000D02*
X186055000Y-113030000D01*
D30*
X175895000Y-121285000D02*
X173355000Y-121285000D01*
X167640000Y-124460000D02*
X167640000Y-127635000D01*
X167640000Y-124460000D02*
X170815000Y-121285000D01*
X173355000Y-121285000D02*
X170815000Y-121285000D01*
D31*
X189270000Y-102870000D02*
X189270000Y-97830000D01*
X189270000Y-97830000D02*
X189230000Y-97790000D01*
D30*
X118110000Y-78105000D02*
X112275000Y-78105000D01*
X112275000Y-78105000D02*
X109100000Y-81280000D01*
X132080000Y-127635000D02*
X132080000Y-126365000D01*
X132080000Y-126365000D02*
X130175000Y-124460000D01*
X130175000Y-124460000D02*
X125095000Y-119380000D01*
X109100000Y-105290000D02*
X109100000Y-100965000D01*
X114935000Y-111125000D02*
X109100000Y-105290000D01*
X120853198Y-111125000D02*
X114935000Y-111125000D01*
X125095000Y-115366802D02*
X120853198Y-111125000D01*
X125095000Y-119380000D02*
X125095000Y-115366802D01*
D31*
X214630000Y-86320000D02*
X213320000Y-86320000D01*
X212725000Y-83820000D02*
X207010000Y-78105000D01*
X212725000Y-85725000D02*
X212725000Y-83820000D01*
X213320000Y-86320000D02*
X212725000Y-85725000D01*
X207010000Y-78105000D02*
X207010000Y-77470000D01*
X186055000Y-113030000D02*
X186055000Y-112395000D01*
X150495000Y-85725000D02*
X150495000Y-87630000D01*
X150495000Y-87630000D02*
X149225000Y-88900000D01*
X130810000Y-91440000D02*
X130810000Y-87630000D01*
X130810000Y-87630000D02*
X132080000Y-86360000D01*
X120015000Y-93305000D02*
X120015000Y-96520000D01*
X120015000Y-96520000D02*
X120015000Y-99735000D01*
X134620000Y-105410000D02*
X132715000Y-105410000D01*
X132715000Y-105410000D02*
X132080000Y-104775000D01*
X207010000Y-75565000D02*
X205105000Y-75565000D01*
X207010000Y-77470000D02*
X207010000Y-75565000D01*
X207010000Y-75565000D02*
X207010000Y-74930000D01*
X207010000Y-74930000D02*
X209550000Y-72390000D01*
X198755000Y-95250000D02*
X198120000Y-95250000D01*
X198120000Y-95250000D02*
X195580000Y-92710000D01*
X187325000Y-85090000D02*
X187325000Y-88265000D01*
X151130000Y-127635000D02*
X151130000Y-123825000D01*
X151130000Y-123825000D02*
X148590000Y-121285000D01*
D30*
X132080000Y-127635000D02*
X132080000Y-127000000D01*
D31*
X198755000Y-77470000D02*
X198120000Y-77470000D01*
X198120000Y-77470000D02*
X196215000Y-79375000D01*
X191135000Y-81280000D02*
X191135000Y-85090000D01*
X193040000Y-79375000D02*
X191135000Y-81280000D01*
X196215000Y-79375000D02*
X193040000Y-79375000D01*
X116880000Y-73660000D02*
X116880000Y-72350000D01*
X123190000Y-71120000D02*
X124460000Y-72390000D01*
X118110000Y-71120000D02*
X123190000Y-71120000D01*
X116880000Y-72350000D02*
X118110000Y-71120000D01*
X118110000Y-78105000D02*
X116880000Y-76875000D01*
X116880000Y-76875000D02*
X116880000Y-73660000D01*
X116880000Y-73065000D02*
X116880000Y-73660000D01*
D30*
X109100000Y-100965000D02*
X109100000Y-81280000D01*
D31*
X137160000Y-109220000D02*
X137160000Y-107950000D01*
X137160000Y-107950000D02*
X134620000Y-105410000D01*
X196215000Y-99695000D02*
X192445000Y-99695000D01*
X192445000Y-99695000D02*
X189270000Y-102870000D01*
X199390000Y-114935000D02*
X199390000Y-114300000D01*
X199390000Y-114300000D02*
X198120000Y-113030000D01*
X187960000Y-102870000D02*
X189270000Y-102870000D01*
X186055000Y-104775000D02*
X187960000Y-102870000D01*
X139065000Y-78105000D02*
X139065000Y-78740000D01*
X139065000Y-78740000D02*
X140970000Y-80645000D01*
X140970000Y-80645000D02*
X143510000Y-80645000D01*
X143510000Y-80645000D02*
X146685000Y-83820000D01*
X146685000Y-83820000D02*
X146685000Y-85725000D01*
X146685000Y-85725000D02*
X150495000Y-85725000D01*
X150495000Y-85725000D02*
X154305000Y-85725000D01*
X187325000Y-85090000D02*
X191135000Y-85090000D01*
X183515000Y-85090000D02*
X187325000Y-85090000D01*
X198120000Y-113030000D02*
X187325000Y-113030000D01*
X187325000Y-113030000D02*
X186690000Y-113030000D01*
X186055000Y-112395000D02*
X186055000Y-104775000D01*
X186690000Y-113030000D02*
X186055000Y-112395000D01*
X187960000Y-132715000D02*
X202565000Y-132715000D01*
X205740000Y-129540000D02*
X205740000Y-126365000D01*
X202565000Y-132715000D02*
X205740000Y-129540000D01*
X120015000Y-102235000D02*
X122555000Y-104775000D01*
X126365000Y-104775000D02*
X139700000Y-118110000D01*
X122555000Y-104775000D02*
X126365000Y-104775000D01*
X187325000Y-132715000D02*
X187960000Y-132715000D01*
X120015000Y-102235000D02*
X122555000Y-102235000D01*
X122555000Y-102235000D02*
X123825000Y-100965000D01*
X140970000Y-130175000D02*
X140970000Y-130810000D01*
X142875000Y-132715000D02*
X187325000Y-132715000D01*
X140970000Y-130810000D02*
X142875000Y-132715000D01*
X140970000Y-128270000D02*
X140970000Y-130175000D01*
X137160000Y-127635000D02*
X140970000Y-127635000D01*
X139700000Y-121285000D02*
X139700000Y-122555000D01*
X139700000Y-121285000D02*
X139700000Y-118110000D01*
X139700000Y-122555000D02*
X140970000Y-123825000D01*
X140970000Y-123825000D02*
X140970000Y-127635000D01*
X140970000Y-127635000D02*
X140970000Y-128270000D01*
X214630000Y-78740000D02*
X212090000Y-78740000D01*
X212090000Y-78740000D02*
X210820000Y-77470000D01*
X214630000Y-83820000D02*
X214630000Y-78740000D01*
X119380000Y-73660000D02*
X119380000Y-75565000D01*
X119380000Y-75565000D02*
X121920000Y-78105000D01*
X125730000Y-85725000D02*
X125730000Y-82550000D01*
X125730000Y-82550000D02*
X121920000Y-78740000D01*
X121920000Y-78740000D02*
X121920000Y-78105000D01*
X201295000Y-95250000D02*
X201295000Y-92710000D01*
X198755000Y-88900000D02*
X194945000Y-85090000D01*
X198755000Y-90170000D02*
X198755000Y-88900000D01*
X201295000Y-92710000D02*
X198755000Y-90170000D01*
X194945000Y-85090000D02*
X195580000Y-85090000D01*
X195580000Y-85090000D02*
X197485000Y-83185000D01*
X202565000Y-81280000D02*
X202565000Y-77470000D01*
X200660000Y-83185000D02*
X202565000Y-81280000D01*
X197485000Y-83185000D02*
X200660000Y-83185000D01*
X200025000Y-96520000D02*
X200660000Y-97155000D01*
X200660000Y-89535000D02*
X200660000Y-85090000D01*
X203200000Y-92075000D02*
X200660000Y-89535000D01*
X203200000Y-96520000D02*
X203200000Y-92075000D01*
X202565000Y-97155000D02*
X203200000Y-96520000D01*
X200660000Y-97155000D02*
X202565000Y-97155000D01*
X201930000Y-103505000D02*
X201930000Y-101600000D01*
X200025000Y-99695000D02*
X200025000Y-96520000D01*
X201930000Y-101600000D02*
X200025000Y-99695000D01*
X202565000Y-85090000D02*
X200660000Y-85090000D01*
X200660000Y-85090000D02*
X198755000Y-85090000D01*
X133350000Y-91440000D02*
X138430000Y-91440000D01*
X142875000Y-86995000D02*
X142875000Y-85725000D01*
X138430000Y-91440000D02*
X142875000Y-86995000D01*
X135255000Y-78105000D02*
X139700000Y-82550000D01*
X139700000Y-82550000D02*
X140970000Y-82550000D01*
X140970000Y-82550000D02*
X142875000Y-84455000D01*
X142875000Y-84455000D02*
X142875000Y-85725000D01*
X132080000Y-90170000D02*
X132080000Y-88900000D01*
X132080000Y-92710000D02*
X132080000Y-90170000D01*
X132080000Y-88900000D02*
X135255000Y-85725000D01*
X126365000Y-91440000D02*
X128270000Y-93345000D01*
X131445000Y-93345000D02*
X132080000Y-92710000D01*
X128270000Y-93345000D02*
X131445000Y-93345000D01*
X135255000Y-85725000D02*
X139065000Y-85725000D01*
D30*
X119380000Y-116840000D02*
X119380000Y-122555000D01*
X124460000Y-127635000D02*
X127000000Y-127635000D01*
X119380000Y-122555000D02*
X124460000Y-127635000D01*
X114300000Y-116840000D02*
X116840000Y-114300000D01*
X116840000Y-114300000D02*
X119380000Y-116840000D01*
X119380000Y-116840000D02*
X116840000Y-119380000D01*
X116840000Y-119380000D02*
X114300000Y-116840000D01*
D31*
X179070000Y-127635000D02*
X182880000Y-123825000D01*
X182880000Y-116840000D02*
X180340000Y-114300000D01*
X182880000Y-123825000D02*
X182880000Y-116840000D01*
X179070000Y-127635000D02*
X179705000Y-127635000D01*
X180340000Y-114300000D02*
X156210000Y-114300000D01*
X153035000Y-117475000D02*
X147955000Y-117475000D01*
X156210000Y-114300000D02*
X153035000Y-117475000D01*
X189230000Y-127635000D02*
X189230000Y-116205000D01*
X189230000Y-116205000D02*
X188595000Y-115570000D01*
X134620000Y-120015000D02*
X134620000Y-118110000D01*
X125095000Y-108585000D02*
X119380000Y-108585000D01*
X134620000Y-118110000D02*
X125095000Y-108585000D01*
X173990000Y-127635000D02*
X174625000Y-127635000D01*
X174625000Y-127635000D02*
X178435000Y-123825000D01*
X178435000Y-123825000D02*
X178435000Y-121920000D01*
X118110000Y-85725000D02*
X118110000Y-86360000D01*
X118110000Y-86360000D02*
X115570000Y-88900000D01*
X134620000Y-120015000D02*
X134620000Y-122555000D01*
X115570000Y-104775000D02*
X119380000Y-108585000D01*
X115570000Y-88900000D02*
X115570000Y-104775000D01*
X118110000Y-85725000D02*
X121920000Y-85725000D01*
X194310000Y-127635000D02*
X196215000Y-127635000D01*
X196215000Y-127635000D02*
X202565000Y-121285000D01*
X205105000Y-121285000D02*
X202565000Y-121285000D01*
X205105000Y-121285000D02*
X206375000Y-121285000D01*
X206375000Y-121285000D02*
X208280000Y-119380000D01*
X208280000Y-86995000D02*
X208915000Y-86360000D01*
X208280000Y-119380000D02*
X208280000Y-86995000D01*
X208915000Y-86360000D02*
X208915000Y-85090000D01*
X194310000Y-127635000D02*
X194945000Y-127635000D01*
X207010000Y-85090000D02*
X208915000Y-85090000D01*
X208915000Y-85090000D02*
X210820000Y-85090000D01*
D30*
X173990000Y-83185000D02*
X171450000Y-83185000D01*
X173355000Y-82550000D02*
X172720000Y-83820000D01*
X175260000Y-79375000D02*
X172720000Y-81915000D01*
X172720000Y-81915000D02*
X172720000Y-83820000D01*
X175260000Y-79375000D02*
X175260000Y-69850000D01*
X173355000Y-82550000D02*
X173990000Y-83185000D01*
X175260000Y-69850000D02*
X175260000Y-71755000D01*
X175260000Y-71755000D02*
X177165000Y-73660000D01*
X177165000Y-73660000D02*
X193040000Y-73660000D01*
X193040000Y-73660000D02*
X194310000Y-72390000D01*
X194310000Y-72390000D02*
X194310000Y-69850000D01*
X157480000Y-69850000D02*
X157480000Y-71755000D01*
X163830000Y-78105000D02*
X163830000Y-83185000D01*
X157480000Y-71755000D02*
X163830000Y-78105000D01*
X165100000Y-83185000D02*
X163830000Y-83185000D01*
X163830000Y-83185000D02*
X162560000Y-83185000D01*
X140970000Y-69850000D02*
X140970000Y-67310000D01*
X140970000Y-67310000D02*
X141605000Y-66675000D01*
X141605000Y-66675000D02*
X156210000Y-66675000D01*
X156210000Y-66675000D02*
X157480000Y-67945000D01*
X157480000Y-67945000D02*
X157480000Y-69850000D01*
D31*
X200660000Y-116205000D02*
X199390000Y-117475000D01*
X198120000Y-117475000D02*
X196215000Y-116205000D01*
X199390000Y-117475000D02*
X198120000Y-117475000D01*
X196215000Y-116205000D02*
X196215000Y-115570000D01*
X201930000Y-114935000D02*
X205105000Y-114935000D01*
X205105000Y-114935000D02*
X205740000Y-115570000D01*
X205740000Y-118745000D02*
X205740000Y-115570000D01*
X205740000Y-116205000D02*
X205740000Y-115570000D01*
X138430000Y-110490000D02*
X138430000Y-111125000D01*
X138430000Y-111125000D02*
X139065000Y-111760000D01*
X139065000Y-111760000D02*
X146050000Y-111760000D01*
X146050000Y-111760000D02*
X147955000Y-109855000D01*
X138430000Y-111125000D02*
X139065000Y-111760000D01*
X139700000Y-109220000D02*
X139700000Y-106680000D01*
X139700000Y-106680000D02*
X134620000Y-101600000D01*
X131445000Y-100965000D02*
X133985000Y-100965000D01*
X133985000Y-100965000D02*
X134620000Y-101600000D01*
X200660000Y-110490000D02*
X201295000Y-111125000D01*
X203200000Y-111125000D02*
X205740000Y-108585000D01*
X201295000Y-111125000D02*
X203200000Y-111125000D01*
X205740000Y-108585000D02*
X205740000Y-107950000D01*
X196215000Y-110490000D02*
X197485000Y-110490000D01*
X198755000Y-109220000D02*
X199390000Y-109220000D01*
X197485000Y-110490000D02*
X198755000Y-109220000D01*
X201930000Y-109220000D02*
X201930000Y-107315000D01*
X203835000Y-105410000D02*
X203835000Y-99695000D01*
X201930000Y-107315000D02*
X203835000Y-105410000D01*
X142240000Y-101600000D02*
X144780000Y-99060000D01*
X146050000Y-99060000D02*
X146685000Y-98425000D01*
X144780000Y-99060000D02*
X146050000Y-99060000D01*
X142240000Y-97155000D02*
X143510000Y-97155000D01*
X147320000Y-96520000D02*
X147955000Y-97155000D01*
X144145000Y-96520000D02*
X147320000Y-96520000D01*
X143510000Y-97155000D02*
X144145000Y-96520000D01*
X142240000Y-105410000D02*
X147955000Y-99695000D01*
X188595000Y-110490000D02*
X190500000Y-110490000D01*
X194310000Y-106680000D02*
X196215000Y-106680000D01*
X190500000Y-110490000D02*
X194310000Y-106680000D01*
X196215000Y-106680000D02*
X197485000Y-106680000D01*
X197485000Y-106680000D02*
X200660000Y-104775000D01*
X125095000Y-92710000D02*
X129540000Y-97155000D01*
X129540000Y-97155000D02*
X131445000Y-97155000D01*
X131445000Y-97155000D02*
X134620000Y-97155000D01*
X209550000Y-69850000D02*
X206375000Y-69850000D01*
X206375000Y-69850000D02*
X202565000Y-66040000D01*
X199390000Y-64770000D02*
X201295000Y-64770000D01*
X201295000Y-64770000D02*
X202565000Y-66040000D01*
X191770000Y-64770000D02*
X191770000Y-69850000D01*
X172720000Y-69850000D02*
X172720000Y-76835000D01*
X172720000Y-76835000D02*
X172085000Y-77470000D01*
X146050000Y-127635000D02*
X146050000Y-125730000D01*
X146050000Y-125730000D02*
X142240000Y-121920000D01*
X142240000Y-121920000D02*
X142240000Y-118110000D01*
X168275000Y-97155000D02*
X168275000Y-90170000D01*
X150495000Y-114935000D02*
X168275000Y-97155000D01*
X145415000Y-114935000D02*
X150495000Y-114935000D01*
X142240000Y-118110000D02*
X145415000Y-114935000D01*
D30*
X177800000Y-69850000D02*
X177800000Y-66675000D01*
X168275000Y-67945000D02*
X168275000Y-76835000D01*
X169545000Y-66675000D02*
X168275000Y-67945000D01*
X177800000Y-66675000D02*
X169545000Y-66675000D01*
X168275000Y-90170000D02*
X156210000Y-90170000D01*
X168275000Y-90170000D02*
X180340000Y-90170000D01*
X160020000Y-69850000D02*
X162560000Y-69850000D01*
X168275000Y-75565000D02*
X168275000Y-76835000D01*
X168275000Y-76835000D02*
X168275000Y-90170000D01*
X162560000Y-69850000D02*
X168275000Y-75565000D01*
D31*
X138430000Y-65405000D02*
X138430000Y-69850000D01*
X158115000Y-78105000D02*
X158115000Y-76835000D01*
X154940000Y-73660000D02*
X154940000Y-69850000D01*
X158115000Y-76835000D02*
X154940000Y-73660000D01*
X127000000Y-72390000D02*
X130810000Y-72390000D01*
X130810000Y-65405000D02*
X130810000Y-72390000D01*
X130810000Y-72390000D02*
X130810000Y-74930000D01*
X183515000Y-77470000D02*
X187325000Y-77470000D01*
X183515000Y-77470000D02*
X179705000Y-77470000D01*
X191770000Y-77470000D02*
X194945000Y-77470000D01*
X191770000Y-77470000D02*
X187960000Y-77470000D01*
X184150000Y-77470000D02*
X187960000Y-77470000D01*
X154305000Y-78105000D02*
X154305000Y-78740000D01*
X154305000Y-78740000D02*
X158115000Y-82550000D01*
X158115000Y-82550000D02*
X158115000Y-85725000D01*
X146685000Y-78105000D02*
X142875000Y-78105000D01*
X150495000Y-78105000D02*
X146685000Y-78105000D01*
X154305000Y-78105000D02*
X150495000Y-78105000D01*
X206375000Y-123190000D02*
X202565000Y-123190000D01*
X194945000Y-130810000D02*
X193675000Y-130810000D01*
X202565000Y-123190000D02*
X194945000Y-130810000D01*
X211455000Y-116205000D02*
X211455000Y-118745000D01*
X207010000Y-123190000D02*
X206375000Y-123190000D01*
X211455000Y-118745000D02*
X207010000Y-123190000D01*
X185420000Y-130810000D02*
X193675000Y-130810000D01*
X156210000Y-127635000D02*
X159385000Y-130810000D01*
X159385000Y-130810000D02*
X170180000Y-130810000D01*
X170180000Y-130810000D02*
X185420000Y-130810000D01*
X211455000Y-116205000D02*
X211455000Y-98425000D01*
X144780000Y-119380000D02*
X150495000Y-119380000D01*
X150495000Y-119380000D02*
X153670000Y-122555000D01*
X156210000Y-127635000D02*
X156210000Y-123190000D01*
X156210000Y-123190000D02*
X155575000Y-122555000D01*
X155575000Y-122555000D02*
X153670000Y-122555000D01*
X156210000Y-127635000D02*
X156210000Y-128270000D01*
X211455000Y-90805000D02*
X213360000Y-90805000D01*
X214630000Y-74930000D02*
X214630000Y-71120000D01*
X216535000Y-76835000D02*
X214630000Y-74930000D01*
X216535000Y-87630000D02*
X216535000Y-76835000D01*
X213360000Y-90805000D02*
X216535000Y-87630000D01*
X214630000Y-71120000D02*
X210820000Y-71120000D01*
X128270000Y-85090000D02*
X128270000Y-86360000D01*
X128270000Y-86360000D02*
X127000000Y-87630000D01*
X119380000Y-87630000D02*
X117475000Y-89535000D01*
X127000000Y-87630000D02*
X119380000Y-87630000D01*
X117475000Y-99695000D02*
X117475000Y-104140000D01*
X117475000Y-104140000D02*
X120015000Y-106680000D01*
X120015000Y-106680000D02*
X125730000Y-106680000D01*
X137160000Y-119380000D02*
X137160000Y-118110000D01*
X137160000Y-118110000D02*
X132080000Y-113030000D01*
X117475000Y-89535000D02*
X117475000Y-99695000D01*
X125730000Y-78105000D02*
X125730000Y-79375000D01*
X128270000Y-81915000D02*
X128270000Y-85090000D01*
X125730000Y-79375000D02*
X128270000Y-81915000D01*
X132080000Y-113030000D02*
X125730000Y-106680000D01*
X125730000Y-78105000D02*
X125730000Y-73660000D01*
D30*
X162560000Y-127635000D02*
X162560000Y-124460000D01*
X162560000Y-124460000D02*
X168275000Y-118745000D01*
X168275000Y-118745000D02*
X168275000Y-118110000D01*
X168275000Y-118110000D02*
X180340000Y-118110000D01*
X165100000Y-118110000D02*
X156210000Y-118110000D01*
X165100000Y-118110000D02*
X168275000Y-118110000D01*
D31*
X168275000Y-118110000D02*
X156210000Y-118110000D01*
D32*
G36*
X218796800Y-133706800D02*
X203233002Y-133706800D01*
X203427105Y-133577105D01*
X206602105Y-130402105D01*
X206753851Y-130175000D01*
X206866394Y-130006568D01*
X206909322Y-129790754D01*
X206959201Y-129540000D01*
X206959200Y-129539995D01*
X206959200Y-128802370D01*
X210671334Y-128802370D01*
X211079726Y-129790754D01*
X211835269Y-130547616D01*
X212822938Y-130957732D01*
X213892370Y-130958666D01*
X214880754Y-130550274D01*
X215637616Y-129794731D01*
X216047732Y-128807062D01*
X216048666Y-127737630D01*
X215640274Y-126749246D01*
X214884731Y-125992384D01*
X213897062Y-125582268D01*
X212827630Y-125581334D01*
X211839246Y-125989726D01*
X211082384Y-126745269D01*
X210672268Y-127732938D01*
X210671334Y-128802370D01*
X206959200Y-128802370D01*
X206959200Y-127462671D01*
X207127988Y-127294177D01*
X207377915Y-126692288D01*
X207378484Y-126040572D01*
X207129608Y-125438247D01*
X206669177Y-124977012D01*
X206067288Y-124727085D01*
X205415572Y-124726516D01*
X204813247Y-124975392D01*
X204352012Y-125435823D01*
X204102085Y-126037712D01*
X204101516Y-126689428D01*
X204350392Y-127291753D01*
X204520800Y-127462459D01*
X204520800Y-129034990D01*
X202059990Y-131495800D01*
X195983410Y-131495800D01*
X203070009Y-124409200D01*
X207009995Y-124409200D01*
X207010000Y-124409201D01*
X207399159Y-124331792D01*
X207476568Y-124316394D01*
X207872105Y-124052105D01*
X212317102Y-119607107D01*
X212317105Y-119607105D01*
X212581394Y-119211568D01*
X212674200Y-118745000D01*
X212674200Y-100115652D01*
X212950902Y-99937599D01*
X213142289Y-99657495D01*
X213209621Y-99325000D01*
X213209621Y-97525000D01*
X213151174Y-97214382D01*
X212967599Y-96929098D01*
X212687495Y-96737711D01*
X212355000Y-96670379D01*
X210555000Y-96670379D01*
X210244382Y-96728826D01*
X209959098Y-96912401D01*
X209767711Y-97192505D01*
X209700379Y-97525000D01*
X209700379Y-99325000D01*
X209758826Y-99635618D01*
X209942401Y-99920902D01*
X210222505Y-100112289D01*
X210235800Y-100114981D01*
X210235800Y-118239991D01*
X209499200Y-118976591D01*
X209499200Y-87500009D01*
X209777102Y-87222107D01*
X209777105Y-87222105D01*
X210041394Y-86826568D01*
X210041395Y-86826567D01*
X210092722Y-86568530D01*
X210193088Y-86635593D01*
X210820000Y-86760294D01*
X211446912Y-86635593D01*
X211483598Y-86611080D01*
X213116938Y-86611080D01*
X213343504Y-87167947D01*
X213354280Y-87184072D01*
X213630958Y-87247200D01*
X214558158Y-86320000D01*
X213630958Y-85392800D01*
X213354280Y-85455928D01*
X213120722Y-86009898D01*
X213116938Y-86611080D01*
X211483598Y-86611080D01*
X211978382Y-86280476D01*
X212333499Y-85749006D01*
X212458200Y-85122094D01*
X212458200Y-85057906D01*
X212333499Y-84430994D01*
X211978382Y-83899524D01*
X211446912Y-83544407D01*
X210820000Y-83419706D01*
X210193088Y-83544407D01*
X209704606Y-83870800D01*
X208125394Y-83870800D01*
X207636912Y-83544407D01*
X207010000Y-83419706D01*
X206383088Y-83544407D01*
X205851618Y-83899524D01*
X205496501Y-84430994D01*
X205371800Y-85057906D01*
X205371800Y-85122094D01*
X205496501Y-85749006D01*
X205851618Y-86280476D01*
X206383088Y-86635593D01*
X207010000Y-86760294D01*
X207111502Y-86740104D01*
X207060799Y-86995000D01*
X207060800Y-86995005D01*
X207060800Y-106954319D01*
X206669177Y-106562012D01*
X206067288Y-106312085D01*
X205415572Y-106311516D01*
X204813247Y-106560392D01*
X204352012Y-107020823D01*
X204102085Y-107622712D01*
X204101516Y-108274428D01*
X204167257Y-108433534D01*
X203284621Y-109316169D01*
X203284621Y-108720000D01*
X203226174Y-108409382D01*
X203149200Y-108289761D01*
X203149200Y-107820010D01*
X204697102Y-106272107D01*
X204697105Y-106272105D01*
X204961394Y-105876568D01*
X205009026Y-105637105D01*
X205054201Y-105410000D01*
X205054200Y-105409995D01*
X205054200Y-100810394D01*
X205380593Y-100321912D01*
X205505294Y-99695000D01*
X205380593Y-99068088D01*
X205025476Y-98536618D01*
X204494006Y-98181501D01*
X203867094Y-98056800D01*
X203802906Y-98056800D01*
X203183220Y-98180064D01*
X203427105Y-98017105D01*
X203427106Y-98017104D01*
X204062102Y-97382107D01*
X204062105Y-97382105D01*
X204326394Y-96986568D01*
X204326395Y-96986567D01*
X204419201Y-96520000D01*
X204419200Y-96519995D01*
X204419200Y-92075000D01*
X204326394Y-91608432D01*
X204062105Y-91212895D01*
X204062102Y-91212893D01*
X201879200Y-89029990D01*
X201879200Y-86716162D01*
X201899820Y-86729940D01*
X202565000Y-86862253D01*
X203230180Y-86729940D01*
X203794093Y-86353146D01*
X204170887Y-85789233D01*
X204303200Y-85124053D01*
X204303200Y-85055947D01*
X204170887Y-84390767D01*
X203794093Y-83826854D01*
X203230180Y-83450060D01*
X202565000Y-83317747D01*
X202173610Y-83395600D01*
X203427102Y-82142107D01*
X203427105Y-82142105D01*
X203691394Y-81746568D01*
X203713605Y-81634905D01*
X203784201Y-81280000D01*
X203784200Y-81279995D01*
X203784200Y-79160652D01*
X204060902Y-78982599D01*
X204252289Y-78702495D01*
X204299564Y-78469042D01*
X206082800Y-78469042D01*
X206145928Y-78745720D01*
X206699898Y-78979278D01*
X207301080Y-78983062D01*
X207857947Y-78756496D01*
X207874072Y-78745720D01*
X207937200Y-78469042D01*
X207010000Y-77541842D01*
X206082800Y-78469042D01*
X204299564Y-78469042D01*
X204319621Y-78370000D01*
X204319621Y-77761080D01*
X205496938Y-77761080D01*
X205723504Y-78317947D01*
X205734280Y-78334072D01*
X206010958Y-78397200D01*
X206938158Y-77470000D01*
X207081842Y-77470000D01*
X208009042Y-78397200D01*
X208285720Y-78334072D01*
X208519278Y-77780102D01*
X208523062Y-77178920D01*
X208296496Y-76622053D01*
X208285720Y-76605928D01*
X208009042Y-76542800D01*
X207081842Y-77470000D01*
X206938158Y-77470000D01*
X206010958Y-76542800D01*
X205734280Y-76605928D01*
X205500722Y-77159898D01*
X205496938Y-77761080D01*
X204319621Y-77761080D01*
X204319621Y-76570000D01*
X204300985Y-76470958D01*
X206082800Y-76470958D01*
X207010000Y-77398158D01*
X207937200Y-76470958D01*
X207874072Y-76194280D01*
X207320102Y-75960722D01*
X206718920Y-75956938D01*
X206162053Y-76183504D01*
X206145928Y-76194280D01*
X206082800Y-76470958D01*
X204300985Y-76470958D01*
X204261174Y-76259382D01*
X204077599Y-75974098D01*
X203797495Y-75782711D01*
X203465000Y-75715379D01*
X201774331Y-75715379D01*
X201522105Y-75337895D01*
X201522102Y-75337893D01*
X198069200Y-71884990D01*
X198069200Y-71222534D01*
X198161117Y-71161117D01*
X198222534Y-71069200D01*
X198249990Y-71069200D01*
X200940187Y-73759397D01*
X201051501Y-74319006D01*
X201406618Y-74850476D01*
X201938088Y-75205593D01*
X202565000Y-75330294D01*
X203191912Y-75205593D01*
X203723382Y-74850476D01*
X204078499Y-74319006D01*
X204203200Y-73692094D01*
X204203200Y-73627906D01*
X204078499Y-73000994D01*
X203723382Y-72469524D01*
X203680394Y-72440800D01*
X208238800Y-72440800D01*
X208238800Y-72640800D01*
X208358049Y-73138708D01*
X208658762Y-73553080D01*
X209095158Y-73820832D01*
X209294862Y-73876138D01*
X209499200Y-73722261D01*
X209499200Y-72440800D01*
X208238800Y-72440800D01*
X203680394Y-72440800D01*
X203191912Y-72114407D01*
X202632303Y-72003093D01*
X199617105Y-68987895D01*
X199560391Y-68950000D01*
X199221568Y-68723606D01*
X199144159Y-68708208D01*
X198755000Y-68630799D01*
X198754995Y-68630800D01*
X198704200Y-68630800D01*
X198704200Y-66259047D01*
X199062712Y-66407915D01*
X199714428Y-66408484D01*
X200316753Y-66159608D01*
X200487459Y-65989200D01*
X200789990Y-65989200D01*
X200926724Y-66125934D01*
X200926516Y-66364428D01*
X201175392Y-66966753D01*
X201635823Y-67427988D01*
X202237712Y-67677915D01*
X202478916Y-67678126D01*
X205512893Y-70712102D01*
X205512895Y-70712105D01*
X205908432Y-70976394D01*
X205985841Y-70991792D01*
X206375000Y-71069201D01*
X206375005Y-71069200D01*
X208793543Y-71069200D01*
X208852077Y-71108311D01*
X208658762Y-71226920D01*
X208358049Y-71641292D01*
X208238800Y-72139200D01*
X208238800Y-72339200D01*
X209499200Y-72339200D01*
X209499200Y-72319200D01*
X209600800Y-72319200D01*
X209600800Y-72339200D01*
X209620800Y-72339200D01*
X209620800Y-72440800D01*
X209600800Y-72440800D01*
X209600800Y-73722261D01*
X209805138Y-73876138D01*
X210004842Y-73820832D01*
X210441238Y-73553080D01*
X210741951Y-73138708D01*
X210861200Y-72640800D01*
X210861200Y-72578181D01*
X211370375Y-72476900D01*
X211576457Y-72339200D01*
X213410800Y-72339200D01*
X213410800Y-74929995D01*
X213410799Y-74930000D01*
X213483983Y-75297915D01*
X213503606Y-75396568D01*
X213728691Y-75733432D01*
X213767895Y-75792105D01*
X215148666Y-77172875D01*
X214630000Y-77069706D01*
X214003088Y-77194407D01*
X213514606Y-77520800D01*
X212595009Y-77520800D01*
X212458276Y-77384066D01*
X212458484Y-77145572D01*
X212209608Y-76543247D01*
X211749177Y-76082012D01*
X211147288Y-75832085D01*
X210495572Y-75831516D01*
X209893247Y-76080392D01*
X209432012Y-76540823D01*
X209182085Y-77142712D01*
X209181516Y-77794428D01*
X209430392Y-78396753D01*
X209890823Y-78857988D01*
X210492712Y-79107915D01*
X210733916Y-79108126D01*
X211227893Y-79602102D01*
X211227895Y-79602105D01*
X211623432Y-79866394D01*
X212090000Y-79959200D01*
X213410800Y-79959200D01*
X213410800Y-82722329D01*
X213242012Y-82890823D01*
X212992085Y-83492712D01*
X212991516Y-84144428D01*
X213240392Y-84746753D01*
X213700823Y-85207988D01*
X213726174Y-85218515D01*
X213702800Y-85320958D01*
X214630000Y-86248158D01*
X214644143Y-86234016D01*
X214715985Y-86305858D01*
X214701842Y-86320000D01*
X214715985Y-86334143D01*
X214644143Y-86405985D01*
X214630000Y-86391842D01*
X213702800Y-87319042D01*
X213765928Y-87595720D01*
X214319898Y-87829278D01*
X214609688Y-87831102D01*
X212854990Y-89585800D01*
X212713457Y-89585800D01*
X212684093Y-89541854D01*
X212120180Y-89165060D01*
X211455000Y-89032747D01*
X210789820Y-89165060D01*
X210225907Y-89541854D01*
X209849113Y-90105767D01*
X209716800Y-90770947D01*
X209716800Y-90839053D01*
X209849113Y-91504233D01*
X210225907Y-92068146D01*
X210789820Y-92444940D01*
X211455000Y-92577253D01*
X212120180Y-92444940D01*
X212684093Y-92068146D01*
X212713457Y-92024200D01*
X213359995Y-92024200D01*
X213360000Y-92024201D01*
X213749159Y-91946792D01*
X213826568Y-91931394D01*
X214222105Y-91667105D01*
X217397105Y-88492105D01*
X217514908Y-88315800D01*
X217661394Y-88096568D01*
X217713809Y-87833062D01*
X217754201Y-87630000D01*
X217754200Y-87629995D01*
X217754200Y-76835005D01*
X217754201Y-76835000D01*
X217669429Y-76408826D01*
X217661394Y-76368432D01*
X217397105Y-75972895D01*
X217397102Y-75972893D01*
X215849200Y-74424990D01*
X215849200Y-72217671D01*
X216017988Y-72049177D01*
X216267915Y-71447288D01*
X216268484Y-70795572D01*
X216019608Y-70193247D01*
X215559177Y-69732012D01*
X214957288Y-69482085D01*
X214305572Y-69481516D01*
X213703247Y-69730392D01*
X213532541Y-69900800D01*
X211576457Y-69900800D01*
X211370375Y-69763100D01*
X210960294Y-69681530D01*
X210878724Y-69271449D01*
X210566961Y-68804863D01*
X210100375Y-68493100D01*
X209550000Y-68383624D01*
X208999625Y-68493100D01*
X208793543Y-68630800D01*
X206880009Y-68630800D01*
X204203276Y-65954066D01*
X204203484Y-65715572D01*
X203954608Y-65113247D01*
X203494177Y-64652012D01*
X202892288Y-64402085D01*
X202651084Y-64401874D01*
X202281580Y-64032370D01*
X210671334Y-64032370D01*
X211079726Y-65020754D01*
X211835269Y-65777616D01*
X212822938Y-66187732D01*
X213892370Y-66188666D01*
X214880754Y-65780274D01*
X215637616Y-65024731D01*
X216047732Y-64037062D01*
X216048666Y-62967630D01*
X215640274Y-61979246D01*
X214884731Y-61222384D01*
X213897062Y-60812268D01*
X212827630Y-60811334D01*
X211839246Y-61219726D01*
X211082384Y-61975269D01*
X210672268Y-62962938D01*
X210671334Y-64032370D01*
X202281580Y-64032370D01*
X202157105Y-63907895D01*
X202060352Y-63843247D01*
X201761568Y-63643606D01*
X201684159Y-63628208D01*
X201295000Y-63550799D01*
X201294995Y-63550800D01*
X200487671Y-63550800D01*
X200319177Y-63382012D01*
X199717288Y-63132085D01*
X199065572Y-63131516D01*
X198463247Y-63380392D01*
X198002012Y-63840823D01*
X197974445Y-63907210D01*
X194351117Y-60283883D01*
X193749572Y-59881943D01*
X193040000Y-59740800D01*
X119380000Y-59740800D01*
X118670428Y-59881943D01*
X118068883Y-60283883D01*
X100288883Y-78063883D01*
X99886943Y-78665428D01*
X99745800Y-79375000D01*
X99745800Y-79552723D01*
X99612711Y-79747505D01*
X99545379Y-80080000D01*
X99545379Y-82480000D01*
X99603826Y-82790618D01*
X99745800Y-83011252D01*
X99745800Y-99237723D01*
X99612711Y-99432505D01*
X99545379Y-99765000D01*
X99545379Y-102165000D01*
X99603826Y-102475618D01*
X99745800Y-102696252D01*
X99745800Y-113323060D01*
X99654265Y-113543500D01*
X98223452Y-114974314D01*
X97841104Y-115132297D01*
X97274287Y-115698125D01*
X96967150Y-116437793D01*
X96966451Y-117238693D01*
X97272297Y-117978896D01*
X97838125Y-118545713D01*
X98223501Y-118705735D01*
X99654314Y-120136549D01*
X99812297Y-120518896D01*
X100378125Y-121085713D01*
X101117793Y-121392850D01*
X101918693Y-121393549D01*
X102658896Y-121087703D01*
X103225713Y-120521875D01*
X103385735Y-120136499D01*
X104816549Y-118705686D01*
X105198896Y-118547703D01*
X105765713Y-117981875D01*
X106072850Y-117242207D01*
X106073549Y-116441307D01*
X105767703Y-115701104D01*
X105201875Y-115134287D01*
X104816500Y-114974265D01*
X103454200Y-113611966D01*
X103454200Y-102692277D01*
X103587289Y-102497495D01*
X103636885Y-102252581D01*
X107884261Y-102252581D01*
X107996104Y-102570809D01*
X108694649Y-102871017D01*
X109454905Y-102881051D01*
X110161131Y-102599384D01*
X110203896Y-102570809D01*
X110315739Y-102252581D01*
X109100000Y-101036842D01*
X107884261Y-102252581D01*
X103636885Y-102252581D01*
X103654621Y-102165000D01*
X103654621Y-101319905D01*
X107183949Y-101319905D01*
X107465616Y-102026131D01*
X107494191Y-102068896D01*
X107812419Y-102180739D01*
X109028158Y-100965000D01*
X109171842Y-100965000D01*
X110387581Y-102180739D01*
X110705809Y-102068896D01*
X111006017Y-101370351D01*
X111016051Y-100610095D01*
X110734384Y-99903869D01*
X110705809Y-99861104D01*
X110387581Y-99749261D01*
X109171842Y-100965000D01*
X109028158Y-100965000D01*
X107812419Y-99749261D01*
X107494191Y-99861104D01*
X107193983Y-100559649D01*
X107183949Y-101319905D01*
X103654621Y-101319905D01*
X103654621Y-99765000D01*
X103638142Y-99677419D01*
X107884261Y-99677419D01*
X109100000Y-100893158D01*
X110315739Y-99677419D01*
X110203896Y-99359191D01*
X109505351Y-99058983D01*
X108745095Y-99048949D01*
X108038869Y-99330616D01*
X107996104Y-99359191D01*
X107884261Y-99677419D01*
X103638142Y-99677419D01*
X103596174Y-99454382D01*
X103454200Y-99233748D01*
X103454200Y-83007277D01*
X103587289Y-82812495D01*
X103636885Y-82567581D01*
X107884261Y-82567581D01*
X107996104Y-82885809D01*
X108694649Y-83186017D01*
X109454905Y-83196051D01*
X110161131Y-82914384D01*
X110203896Y-82885809D01*
X110315739Y-82567581D01*
X109100000Y-81351842D01*
X107884261Y-82567581D01*
X103636885Y-82567581D01*
X103654621Y-82480000D01*
X103654621Y-81634905D01*
X107183949Y-81634905D01*
X107465616Y-82341131D01*
X107494191Y-82383896D01*
X107812419Y-82495739D01*
X109028158Y-81280000D01*
X109171842Y-81280000D01*
X110387581Y-82495739D01*
X110705809Y-82383896D01*
X111006017Y-81685351D01*
X111016051Y-80925095D01*
X110734384Y-80218869D01*
X110705809Y-80176104D01*
X110387581Y-80064261D01*
X109171842Y-81280000D01*
X109028158Y-81280000D01*
X107812419Y-80064261D01*
X107494191Y-80176104D01*
X107193983Y-80874649D01*
X107183949Y-81634905D01*
X103654621Y-81634905D01*
X103654621Y-80080000D01*
X103638142Y-79992419D01*
X107884261Y-79992419D01*
X109100000Y-81208158D01*
X110315739Y-79992419D01*
X110203896Y-79674191D01*
X109505351Y-79373983D01*
X108745095Y-79363949D01*
X108038869Y-79645616D01*
X107996104Y-79674191D01*
X107884261Y-79992419D01*
X103638142Y-79992419D01*
X103632864Y-79964370D01*
X104493192Y-79104042D01*
X117182800Y-79104042D01*
X117245928Y-79380720D01*
X117799898Y-79614278D01*
X118401080Y-79618062D01*
X118957947Y-79391496D01*
X118974072Y-79380720D01*
X119037200Y-79104042D01*
X118110000Y-78176842D01*
X117182800Y-79104042D01*
X104493192Y-79104042D01*
X105201154Y-78396080D01*
X116596938Y-78396080D01*
X116823504Y-78952947D01*
X116834280Y-78969072D01*
X117110958Y-79032200D01*
X118038158Y-78105000D01*
X117110958Y-77177800D01*
X116834280Y-77240928D01*
X116600722Y-77794898D01*
X116596938Y-78396080D01*
X105201154Y-78396080D01*
X108938192Y-74659042D01*
X115952800Y-74659042D01*
X116015928Y-74935720D01*
X116569898Y-75169278D01*
X117171080Y-75173062D01*
X117727947Y-74946496D01*
X117744072Y-74935720D01*
X117807200Y-74659042D01*
X116880000Y-73731842D01*
X115952800Y-74659042D01*
X108938192Y-74659042D01*
X109646154Y-73951080D01*
X115366938Y-73951080D01*
X115593504Y-74507947D01*
X115604280Y-74524072D01*
X115880958Y-74587200D01*
X116808158Y-73660000D01*
X115880958Y-72732800D01*
X115604280Y-72795928D01*
X115370722Y-73349898D01*
X115366938Y-73951080D01*
X109646154Y-73951080D01*
X110936276Y-72660958D01*
X115952800Y-72660958D01*
X116880000Y-73588158D01*
X117807200Y-72660958D01*
X117744072Y-72384280D01*
X117190102Y-72150722D01*
X116588920Y-72146938D01*
X116032053Y-72373504D01*
X116015928Y-72384280D01*
X115952800Y-72660958D01*
X110936276Y-72660958D01*
X120148034Y-63449200D01*
X133537214Y-63449200D01*
X133400800Y-64135000D01*
X133400800Y-72390000D01*
X133541943Y-73099572D01*
X133943883Y-73701117D01*
X133964481Y-73714880D01*
X133595841Y-73788208D01*
X133518432Y-73803606D01*
X133122895Y-74067895D01*
X133122893Y-74067898D01*
X132448365Y-74742426D01*
X132448484Y-74605572D01*
X132199608Y-74003247D01*
X132029200Y-73832541D01*
X132029200Y-66502671D01*
X132197988Y-66334177D01*
X132447915Y-65732288D01*
X132448484Y-65080572D01*
X132199608Y-64478247D01*
X131739177Y-64017012D01*
X131137288Y-63767085D01*
X130485572Y-63766516D01*
X129883247Y-64015392D01*
X129422012Y-64475823D01*
X129172085Y-65077712D01*
X129171516Y-65729428D01*
X129420392Y-66331753D01*
X129590800Y-66502459D01*
X129590800Y-71170800D01*
X127742465Y-71170800D01*
X127578551Y-71061276D01*
X127028176Y-70951800D01*
X126971824Y-70951800D01*
X126421449Y-71061276D01*
X125954863Y-71373039D01*
X125741689Y-71692077D01*
X125623080Y-71498762D01*
X125208708Y-71198049D01*
X124710800Y-71078800D01*
X124510800Y-71078800D01*
X124510800Y-72339200D01*
X124530800Y-72339200D01*
X124530800Y-72440800D01*
X124510800Y-72440800D01*
X124510800Y-72460800D01*
X124409200Y-72460800D01*
X124409200Y-72440800D01*
X123127739Y-72440800D01*
X122973862Y-72645138D01*
X123029168Y-72844842D01*
X123296920Y-73281238D01*
X123711292Y-73581951D01*
X124209200Y-73701200D01*
X124271819Y-73701200D01*
X124373100Y-74210375D01*
X124510800Y-74416457D01*
X124510800Y-77007329D01*
X124342012Y-77175823D01*
X124092085Y-77777712D01*
X124091516Y-78429428D01*
X124340392Y-79031753D01*
X124510800Y-79202459D01*
X124510800Y-79374995D01*
X124510799Y-79375000D01*
X124568304Y-79664095D01*
X123492950Y-78588740D01*
X123557915Y-78432288D01*
X123558484Y-77780572D01*
X123309608Y-77178247D01*
X122849177Y-76717012D01*
X122247288Y-76467085D01*
X122006084Y-76466874D01*
X120599200Y-75059990D01*
X120599200Y-74757671D01*
X120767988Y-74589177D01*
X121017915Y-73987288D01*
X121018484Y-73335572D01*
X120769608Y-72733247D01*
X120309177Y-72272012D01*
X119978885Y-72134862D01*
X122973862Y-72134862D01*
X123127739Y-72339200D01*
X124409200Y-72339200D01*
X124409200Y-71078800D01*
X124209200Y-71078800D01*
X123711292Y-71198049D01*
X123296920Y-71498762D01*
X123029168Y-71935158D01*
X122973862Y-72134862D01*
X119978885Y-72134862D01*
X119707288Y-72022085D01*
X119055572Y-72021516D01*
X118453247Y-72270392D01*
X117992012Y-72730823D01*
X117981485Y-72756174D01*
X117879042Y-72732800D01*
X116951842Y-73660000D01*
X117879042Y-74587200D01*
X117980968Y-74563944D01*
X117990392Y-74586753D01*
X118160800Y-74757459D01*
X118160800Y-75564995D01*
X118160799Y-75565000D01*
X118213926Y-75832085D01*
X118253606Y-76031568D01*
X118478691Y-76368432D01*
X118517895Y-76427105D01*
X118880707Y-76789916D01*
X118420102Y-76595722D01*
X117818920Y-76591938D01*
X117262053Y-76818504D01*
X117245928Y-76829280D01*
X117182800Y-77105958D01*
X118110000Y-78033158D01*
X118124143Y-78019016D01*
X118195985Y-78090858D01*
X118181842Y-78105000D01*
X119109042Y-79032200D01*
X119385720Y-78969072D01*
X119619278Y-78415102D01*
X119623062Y-77813920D01*
X119429869Y-77339078D01*
X120281724Y-78190934D01*
X120281516Y-78429428D01*
X120530392Y-79031753D01*
X120973169Y-79475303D01*
X120986068Y-79494608D01*
X121057895Y-79602105D01*
X124510800Y-83055009D01*
X124510800Y-84625545D01*
X124216501Y-85065994D01*
X124091800Y-85692906D01*
X124091800Y-85757094D01*
X124216501Y-86384006D01*
X124234404Y-86410800D01*
X123415596Y-86410800D01*
X123433499Y-86384006D01*
X123558200Y-85757094D01*
X123558200Y-85692906D01*
X123433499Y-85065994D01*
X123078382Y-84534524D01*
X122546912Y-84179407D01*
X121920000Y-84054706D01*
X121293088Y-84179407D01*
X120804606Y-84505800D01*
X119225394Y-84505800D01*
X118736912Y-84179407D01*
X118110000Y-84054706D01*
X117483088Y-84179407D01*
X116951618Y-84534524D01*
X116596501Y-85065994D01*
X116471800Y-85692906D01*
X116471800Y-85757094D01*
X116557559Y-86188232D01*
X114707895Y-88037895D01*
X114443606Y-88433432D01*
X114431935Y-88492104D01*
X114350799Y-88900000D01*
X114350800Y-88900005D01*
X114350800Y-104774995D01*
X114350799Y-104775000D01*
X114409618Y-105070700D01*
X114443606Y-105241568D01*
X114590092Y-105460800D01*
X114707895Y-105637105D01*
X118517893Y-109447102D01*
X118517895Y-109447105D01*
X118913432Y-109711394D01*
X118990841Y-109726792D01*
X119380000Y-109804201D01*
X119380005Y-109804200D01*
X124589990Y-109804200D01*
X133400800Y-118615009D01*
X133400800Y-121654581D01*
X133350290Y-121705003D01*
X133121661Y-122255602D01*
X133121141Y-122851782D01*
X133348808Y-123402780D01*
X133770003Y-123824710D01*
X134320602Y-124053339D01*
X134916782Y-124053859D01*
X135467780Y-123826192D01*
X135889710Y-123404997D01*
X136118339Y-122854398D01*
X136118859Y-122258218D01*
X135891192Y-121707220D01*
X135839200Y-121655137D01*
X135839200Y-120522808D01*
X135896854Y-120609093D01*
X136460767Y-120985887D01*
X137125947Y-121118200D01*
X137194053Y-121118200D01*
X137859233Y-120985887D01*
X138423146Y-120609093D01*
X138480800Y-120522808D01*
X138480800Y-122554995D01*
X138480799Y-122555000D01*
X138540354Y-122854398D01*
X138573606Y-123021568D01*
X138658675Y-123148883D01*
X138837895Y-123417105D01*
X139750800Y-124330009D01*
X139750800Y-126415800D01*
X139514621Y-126415800D01*
X139514621Y-126135000D01*
X139456174Y-125824382D01*
X139272599Y-125539098D01*
X138992495Y-125347711D01*
X138660000Y-125280379D01*
X135660000Y-125280379D01*
X135349382Y-125338826D01*
X135064098Y-125522401D01*
X134872711Y-125802505D01*
X134805379Y-126135000D01*
X134805379Y-129135000D01*
X134863826Y-129445618D01*
X135047401Y-129730902D01*
X135327505Y-129922289D01*
X135660000Y-129989621D01*
X138660000Y-129989621D01*
X138970618Y-129931174D01*
X139255902Y-129747599D01*
X139447289Y-129467495D01*
X139514621Y-129135000D01*
X139514621Y-128854200D01*
X139750800Y-128854200D01*
X139750800Y-130809995D01*
X139750799Y-130810000D01*
X139780371Y-130958666D01*
X139843606Y-131276568D01*
X139990092Y-131495800D01*
X140107895Y-131672105D01*
X142012893Y-133577102D01*
X142012895Y-133577105D01*
X142206998Y-133706800D01*
X119582486Y-133706800D01*
X119582486Y-125379720D01*
X123148883Y-128946117D01*
X123750428Y-129348057D01*
X124460000Y-129489200D01*
X125547134Y-129489200D01*
X125673787Y-129616074D01*
X126532863Y-129972793D01*
X127463056Y-129973605D01*
X128322754Y-129618385D01*
X128803031Y-129138945D01*
X130647897Y-129138945D01*
X130796261Y-129488342D01*
X131603223Y-129838530D01*
X132482770Y-129853251D01*
X133300999Y-129530263D01*
X133363739Y-129488342D01*
X133512103Y-129138945D01*
X132080000Y-127706842D01*
X130647897Y-129138945D01*
X128803031Y-129138945D01*
X128981074Y-128961213D01*
X129337793Y-128102137D01*
X129337849Y-128037770D01*
X129861749Y-128037770D01*
X130184737Y-128855999D01*
X130226658Y-128918739D01*
X130576055Y-129067103D01*
X132008158Y-127635000D01*
X132151842Y-127635000D01*
X133583945Y-129067103D01*
X133933342Y-128918739D01*
X134283530Y-128111777D01*
X134298251Y-127232230D01*
X133975263Y-126414001D01*
X133933342Y-126351261D01*
X133583945Y-126202897D01*
X132151842Y-127635000D01*
X132008158Y-127635000D01*
X130576055Y-126202897D01*
X130226658Y-126351261D01*
X129876470Y-127158223D01*
X129861749Y-128037770D01*
X129337849Y-128037770D01*
X129338605Y-127171944D01*
X128983385Y-126312246D01*
X128802510Y-126131055D01*
X130647897Y-126131055D01*
X132080000Y-127563158D01*
X133512103Y-126131055D01*
X133363739Y-125781658D01*
X132556777Y-125431470D01*
X131677230Y-125416749D01*
X130859001Y-125739737D01*
X130796261Y-125781658D01*
X130647897Y-126131055D01*
X128802510Y-126131055D01*
X128326213Y-125653926D01*
X127467137Y-125297207D01*
X126536944Y-125296395D01*
X125677246Y-125651615D01*
X125547835Y-125780800D01*
X125228034Y-125780800D01*
X121234200Y-121786966D01*
X121234200Y-117624279D01*
X121392850Y-117242207D01*
X121393549Y-116441307D01*
X121087703Y-115701104D01*
X120521875Y-115134287D01*
X120136500Y-114974265D01*
X118705686Y-113543452D01*
X118547703Y-113161104D01*
X117981875Y-112594287D01*
X117242207Y-112287150D01*
X116441307Y-112286451D01*
X115701104Y-112592297D01*
X115134287Y-113158125D01*
X114974265Y-113543500D01*
X113543452Y-114974314D01*
X113161104Y-115132297D01*
X112594287Y-115698125D01*
X112287150Y-116437793D01*
X112286451Y-117238693D01*
X112592297Y-117978896D01*
X113158125Y-118545713D01*
X113543501Y-118705735D01*
X114974314Y-120136549D01*
X115132297Y-120518896D01*
X115698125Y-121085713D01*
X116437793Y-121392850D01*
X117238693Y-121393549D01*
X117525800Y-121274919D01*
X117525800Y-122555000D01*
X117666943Y-123264572D01*
X118042206Y-123826192D01*
X118068883Y-123866117D01*
X119154566Y-124951800D01*
X106477515Y-124951800D01*
X106477515Y-133706800D01*
X95528200Y-133706800D01*
X95528200Y-128802370D01*
X98276334Y-128802370D01*
X98684726Y-129790754D01*
X99440269Y-130547616D01*
X100427938Y-130957732D01*
X101497370Y-130958666D01*
X102485754Y-130550274D01*
X103242616Y-129794731D01*
X103652732Y-128807062D01*
X103653666Y-127737630D01*
X103245274Y-126749246D01*
X102489731Y-125992384D01*
X101502062Y-125582268D01*
X100432630Y-125581334D01*
X99444246Y-125989726D01*
X98687384Y-126745269D01*
X98277268Y-127732938D01*
X98276334Y-128802370D01*
X95528200Y-128802370D01*
X95528200Y-63397370D01*
X97641334Y-63397370D01*
X98049726Y-64385754D01*
X98805269Y-65142616D01*
X99792938Y-65552732D01*
X100862370Y-65553666D01*
X101850754Y-65145274D01*
X102607616Y-64389731D01*
X103017732Y-63402062D01*
X103018666Y-62332630D01*
X102610274Y-61344246D01*
X101854731Y-60587384D01*
X100867062Y-60177268D01*
X99797630Y-60176334D01*
X98809246Y-60584726D01*
X98052384Y-61340269D01*
X97642268Y-62327938D01*
X97641334Y-63397370D01*
X95528200Y-63397370D01*
X95528200Y-58698200D01*
X218796800Y-58698200D01*
X218796800Y-133706800D01*
X218796800Y-133706800D01*
G37*
X218796800Y-133706800D02*
X203233002Y-133706800D01*
X203427105Y-133577105D01*
X206602105Y-130402105D01*
X206753851Y-130175000D01*
X206866394Y-130006568D01*
X206909322Y-129790754D01*
X206959201Y-129540000D01*
X206959200Y-129539995D01*
X206959200Y-128802370D01*
X210671334Y-128802370D01*
X211079726Y-129790754D01*
X211835269Y-130547616D01*
X212822938Y-130957732D01*
X213892370Y-130958666D01*
X214880754Y-130550274D01*
X215637616Y-129794731D01*
X216047732Y-128807062D01*
X216048666Y-127737630D01*
X215640274Y-126749246D01*
X214884731Y-125992384D01*
X213897062Y-125582268D01*
X212827630Y-125581334D01*
X211839246Y-125989726D01*
X211082384Y-126745269D01*
X210672268Y-127732938D01*
X210671334Y-128802370D01*
X206959200Y-128802370D01*
X206959200Y-127462671D01*
X207127988Y-127294177D01*
X207377915Y-126692288D01*
X207378484Y-126040572D01*
X207129608Y-125438247D01*
X206669177Y-124977012D01*
X206067288Y-124727085D01*
X205415572Y-124726516D01*
X204813247Y-124975392D01*
X204352012Y-125435823D01*
X204102085Y-126037712D01*
X204101516Y-126689428D01*
X204350392Y-127291753D01*
X204520800Y-127462459D01*
X204520800Y-129034990D01*
X202059990Y-131495800D01*
X195983410Y-131495800D01*
X203070009Y-124409200D01*
X207009995Y-124409200D01*
X207010000Y-124409201D01*
X207399159Y-124331792D01*
X207476568Y-124316394D01*
X207872105Y-124052105D01*
X212317102Y-119607107D01*
X212317105Y-119607105D01*
X212581394Y-119211568D01*
X212674200Y-118745000D01*
X212674200Y-100115652D01*
X212950902Y-99937599D01*
X213142289Y-99657495D01*
X213209621Y-99325000D01*
X213209621Y-97525000D01*
X213151174Y-97214382D01*
X212967599Y-96929098D01*
X212687495Y-96737711D01*
X212355000Y-96670379D01*
X210555000Y-96670379D01*
X210244382Y-96728826D01*
X209959098Y-96912401D01*
X209767711Y-97192505D01*
X209700379Y-97525000D01*
X209700379Y-99325000D01*
X209758826Y-99635618D01*
X209942401Y-99920902D01*
X210222505Y-100112289D01*
X210235800Y-100114981D01*
X210235800Y-118239991D01*
X209499200Y-118976591D01*
X209499200Y-87500009D01*
X209777102Y-87222107D01*
X209777105Y-87222105D01*
X210041394Y-86826568D01*
X210041395Y-86826567D01*
X210092722Y-86568530D01*
X210193088Y-86635593D01*
X210820000Y-86760294D01*
X211446912Y-86635593D01*
X211483598Y-86611080D01*
X213116938Y-86611080D01*
X213343504Y-87167947D01*
X213354280Y-87184072D01*
X213630958Y-87247200D01*
X214558158Y-86320000D01*
X213630958Y-85392800D01*
X213354280Y-85455928D01*
X213120722Y-86009898D01*
X213116938Y-86611080D01*
X211483598Y-86611080D01*
X211978382Y-86280476D01*
X212333499Y-85749006D01*
X212458200Y-85122094D01*
X212458200Y-85057906D01*
X212333499Y-84430994D01*
X211978382Y-83899524D01*
X211446912Y-83544407D01*
X210820000Y-83419706D01*
X210193088Y-83544407D01*
X209704606Y-83870800D01*
X208125394Y-83870800D01*
X207636912Y-83544407D01*
X207010000Y-83419706D01*
X206383088Y-83544407D01*
X205851618Y-83899524D01*
X205496501Y-84430994D01*
X205371800Y-85057906D01*
X205371800Y-85122094D01*
X205496501Y-85749006D01*
X205851618Y-86280476D01*
X206383088Y-86635593D01*
X207010000Y-86760294D01*
X207111502Y-86740104D01*
X207060799Y-86995000D01*
X207060800Y-86995005D01*
X207060800Y-106954319D01*
X206669177Y-106562012D01*
X206067288Y-106312085D01*
X205415572Y-106311516D01*
X204813247Y-106560392D01*
X204352012Y-107020823D01*
X204102085Y-107622712D01*
X204101516Y-108274428D01*
X204167257Y-108433534D01*
X203284621Y-109316169D01*
X203284621Y-108720000D01*
X203226174Y-108409382D01*
X203149200Y-108289761D01*
X203149200Y-107820010D01*
X204697102Y-106272107D01*
X204697105Y-106272105D01*
X204961394Y-105876568D01*
X205009026Y-105637105D01*
X205054201Y-105410000D01*
X205054200Y-105409995D01*
X205054200Y-100810394D01*
X205380593Y-100321912D01*
X205505294Y-99695000D01*
X205380593Y-99068088D01*
X205025476Y-98536618D01*
X204494006Y-98181501D01*
X203867094Y-98056800D01*
X203802906Y-98056800D01*
X203183220Y-98180064D01*
X203427105Y-98017105D01*
X203427106Y-98017104D01*
X204062102Y-97382107D01*
X204062105Y-97382105D01*
X204326394Y-96986568D01*
X204326395Y-96986567D01*
X204419201Y-96520000D01*
X204419200Y-96519995D01*
X204419200Y-92075000D01*
X204326394Y-91608432D01*
X204062105Y-91212895D01*
X204062102Y-91212893D01*
X201879200Y-89029990D01*
X201879200Y-86716162D01*
X201899820Y-86729940D01*
X202565000Y-86862253D01*
X203230180Y-86729940D01*
X203794093Y-86353146D01*
X204170887Y-85789233D01*
X204303200Y-85124053D01*
X204303200Y-85055947D01*
X204170887Y-84390767D01*
X203794093Y-83826854D01*
X203230180Y-83450060D01*
X202565000Y-83317747D01*
X202173610Y-83395600D01*
X203427102Y-82142107D01*
X203427105Y-82142105D01*
X203691394Y-81746568D01*
X203713605Y-81634905D01*
X203784201Y-81280000D01*
X203784200Y-81279995D01*
X203784200Y-79160652D01*
X204060902Y-78982599D01*
X204252289Y-78702495D01*
X204299564Y-78469042D01*
X206082800Y-78469042D01*
X206145928Y-78745720D01*
X206699898Y-78979278D01*
X207301080Y-78983062D01*
X207857947Y-78756496D01*
X207874072Y-78745720D01*
X207937200Y-78469042D01*
X207010000Y-77541842D01*
X206082800Y-78469042D01*
X204299564Y-78469042D01*
X204319621Y-78370000D01*
X204319621Y-77761080D01*
X205496938Y-77761080D01*
X205723504Y-78317947D01*
X205734280Y-78334072D01*
X206010958Y-78397200D01*
X206938158Y-77470000D01*
X207081842Y-77470000D01*
X208009042Y-78397200D01*
X208285720Y-78334072D01*
X208519278Y-77780102D01*
X208523062Y-77178920D01*
X208296496Y-76622053D01*
X208285720Y-76605928D01*
X208009042Y-76542800D01*
X207081842Y-77470000D01*
X206938158Y-77470000D01*
X206010958Y-76542800D01*
X205734280Y-76605928D01*
X205500722Y-77159898D01*
X205496938Y-77761080D01*
X204319621Y-77761080D01*
X204319621Y-76570000D01*
X204300985Y-76470958D01*
X206082800Y-76470958D01*
X207010000Y-77398158D01*
X207937200Y-76470958D01*
X207874072Y-76194280D01*
X207320102Y-75960722D01*
X206718920Y-75956938D01*
X206162053Y-76183504D01*
X206145928Y-76194280D01*
X206082800Y-76470958D01*
X204300985Y-76470958D01*
X204261174Y-76259382D01*
X204077599Y-75974098D01*
X203797495Y-75782711D01*
X203465000Y-75715379D01*
X201774331Y-75715379D01*
X201522105Y-75337895D01*
X201522102Y-75337893D01*
X198069200Y-71884990D01*
X198069200Y-71222534D01*
X198161117Y-71161117D01*
X198222534Y-71069200D01*
X198249990Y-71069200D01*
X200940187Y-73759397D01*
X201051501Y-74319006D01*
X201406618Y-74850476D01*
X201938088Y-75205593D01*
X202565000Y-75330294D01*
X203191912Y-75205593D01*
X203723382Y-74850476D01*
X204078499Y-74319006D01*
X204203200Y-73692094D01*
X204203200Y-73627906D01*
X204078499Y-73000994D01*
X203723382Y-72469524D01*
X203680394Y-72440800D01*
X208238800Y-72440800D01*
X208238800Y-72640800D01*
X208358049Y-73138708D01*
X208658762Y-73553080D01*
X209095158Y-73820832D01*
X209294862Y-73876138D01*
X209499200Y-73722261D01*
X209499200Y-72440800D01*
X208238800Y-72440800D01*
X203680394Y-72440800D01*
X203191912Y-72114407D01*
X202632303Y-72003093D01*
X199617105Y-68987895D01*
X199560391Y-68950000D01*
X199221568Y-68723606D01*
X199144159Y-68708208D01*
X198755000Y-68630799D01*
X198754995Y-68630800D01*
X198704200Y-68630800D01*
X198704200Y-66259047D01*
X199062712Y-66407915D01*
X199714428Y-66408484D01*
X200316753Y-66159608D01*
X200487459Y-65989200D01*
X200789990Y-65989200D01*
X200926724Y-66125934D01*
X200926516Y-66364428D01*
X201175392Y-66966753D01*
X201635823Y-67427988D01*
X202237712Y-67677915D01*
X202478916Y-67678126D01*
X205512893Y-70712102D01*
X205512895Y-70712105D01*
X205908432Y-70976394D01*
X205985841Y-70991792D01*
X206375000Y-71069201D01*
X206375005Y-71069200D01*
X208793543Y-71069200D01*
X208852077Y-71108311D01*
X208658762Y-71226920D01*
X208358049Y-71641292D01*
X208238800Y-72139200D01*
X208238800Y-72339200D01*
X209499200Y-72339200D01*
X209499200Y-72319200D01*
X209600800Y-72319200D01*
X209600800Y-72339200D01*
X209620800Y-72339200D01*
X209620800Y-72440800D01*
X209600800Y-72440800D01*
X209600800Y-73722261D01*
X209805138Y-73876138D01*
X210004842Y-73820832D01*
X210441238Y-73553080D01*
X210741951Y-73138708D01*
X210861200Y-72640800D01*
X210861200Y-72578181D01*
X211370375Y-72476900D01*
X211576457Y-72339200D01*
X213410800Y-72339200D01*
X213410800Y-74929995D01*
X213410799Y-74930000D01*
X213483983Y-75297915D01*
X213503606Y-75396568D01*
X213728691Y-75733432D01*
X213767895Y-75792105D01*
X215148666Y-77172875D01*
X214630000Y-77069706D01*
X214003088Y-77194407D01*
X213514606Y-77520800D01*
X212595009Y-77520800D01*
X212458276Y-77384066D01*
X212458484Y-77145572D01*
X212209608Y-76543247D01*
X211749177Y-76082012D01*
X211147288Y-75832085D01*
X210495572Y-75831516D01*
X209893247Y-76080392D01*
X209432012Y-76540823D01*
X209182085Y-77142712D01*
X209181516Y-77794428D01*
X209430392Y-78396753D01*
X209890823Y-78857988D01*
X210492712Y-79107915D01*
X210733916Y-79108126D01*
X211227893Y-79602102D01*
X211227895Y-79602105D01*
X211623432Y-79866394D01*
X212090000Y-79959200D01*
X213410800Y-79959200D01*
X213410800Y-82722329D01*
X213242012Y-82890823D01*
X212992085Y-83492712D01*
X212991516Y-84144428D01*
X213240392Y-84746753D01*
X213700823Y-85207988D01*
X213726174Y-85218515D01*
X213702800Y-85320958D01*
X214630000Y-86248158D01*
X214644143Y-86234016D01*
X214715985Y-86305858D01*
X214701842Y-86320000D01*
X214715985Y-86334143D01*
X214644143Y-86405985D01*
X214630000Y-86391842D01*
X213702800Y-87319042D01*
X213765928Y-87595720D01*
X214319898Y-87829278D01*
X214609688Y-87831102D01*
X212854990Y-89585800D01*
X212713457Y-89585800D01*
X212684093Y-89541854D01*
X212120180Y-89165060D01*
X211455000Y-89032747D01*
X210789820Y-89165060D01*
X210225907Y-89541854D01*
X209849113Y-90105767D01*
X209716800Y-90770947D01*
X209716800Y-90839053D01*
X209849113Y-91504233D01*
X210225907Y-92068146D01*
X210789820Y-92444940D01*
X211455000Y-92577253D01*
X212120180Y-92444940D01*
X212684093Y-92068146D01*
X212713457Y-92024200D01*
X213359995Y-92024200D01*
X213360000Y-92024201D01*
X213749159Y-91946792D01*
X213826568Y-91931394D01*
X214222105Y-91667105D01*
X217397105Y-88492105D01*
X217514908Y-88315800D01*
X217661394Y-88096568D01*
X217713809Y-87833062D01*
X217754201Y-87630000D01*
X217754200Y-87629995D01*
X217754200Y-76835005D01*
X217754201Y-76835000D01*
X217669429Y-76408826D01*
X217661394Y-76368432D01*
X217397105Y-75972895D01*
X217397102Y-75972893D01*
X215849200Y-74424990D01*
X215849200Y-72217671D01*
X216017988Y-72049177D01*
X216267915Y-71447288D01*
X216268484Y-70795572D01*
X216019608Y-70193247D01*
X215559177Y-69732012D01*
X214957288Y-69482085D01*
X214305572Y-69481516D01*
X213703247Y-69730392D01*
X213532541Y-69900800D01*
X211576457Y-69900800D01*
X211370375Y-69763100D01*
X210960294Y-69681530D01*
X210878724Y-69271449D01*
X210566961Y-68804863D01*
X210100375Y-68493100D01*
X209550000Y-68383624D01*
X208999625Y-68493100D01*
X208793543Y-68630800D01*
X206880009Y-68630800D01*
X204203276Y-65954066D01*
X204203484Y-65715572D01*
X203954608Y-65113247D01*
X203494177Y-64652012D01*
X202892288Y-64402085D01*
X202651084Y-64401874D01*
X202281580Y-64032370D01*
X210671334Y-64032370D01*
X211079726Y-65020754D01*
X211835269Y-65777616D01*
X212822938Y-66187732D01*
X213892370Y-66188666D01*
X214880754Y-65780274D01*
X215637616Y-65024731D01*
X216047732Y-64037062D01*
X216048666Y-62967630D01*
X215640274Y-61979246D01*
X214884731Y-61222384D01*
X213897062Y-60812268D01*
X212827630Y-60811334D01*
X211839246Y-61219726D01*
X211082384Y-61975269D01*
X210672268Y-62962938D01*
X210671334Y-64032370D01*
X202281580Y-64032370D01*
X202157105Y-63907895D01*
X202060352Y-63843247D01*
X201761568Y-63643606D01*
X201684159Y-63628208D01*
X201295000Y-63550799D01*
X201294995Y-63550800D01*
X200487671Y-63550800D01*
X200319177Y-63382012D01*
X199717288Y-63132085D01*
X199065572Y-63131516D01*
X198463247Y-63380392D01*
X198002012Y-63840823D01*
X197974445Y-63907210D01*
X194351117Y-60283883D01*
X193749572Y-59881943D01*
X193040000Y-59740800D01*
X119380000Y-59740800D01*
X118670428Y-59881943D01*
X118068883Y-60283883D01*
X100288883Y-78063883D01*
X99886943Y-78665428D01*
X99745800Y-79375000D01*
X99745800Y-79552723D01*
X99612711Y-79747505D01*
X99545379Y-80080000D01*
X99545379Y-82480000D01*
X99603826Y-82790618D01*
X99745800Y-83011252D01*
X99745800Y-99237723D01*
X99612711Y-99432505D01*
X99545379Y-99765000D01*
X99545379Y-102165000D01*
X99603826Y-102475618D01*
X99745800Y-102696252D01*
X99745800Y-113323060D01*
X99654265Y-113543500D01*
X98223452Y-114974314D01*
X97841104Y-115132297D01*
X97274287Y-115698125D01*
X96967150Y-116437793D01*
X96966451Y-117238693D01*
X97272297Y-117978896D01*
X97838125Y-118545713D01*
X98223501Y-118705735D01*
X99654314Y-120136549D01*
X99812297Y-120518896D01*
X100378125Y-121085713D01*
X101117793Y-121392850D01*
X101918693Y-121393549D01*
X102658896Y-121087703D01*
X103225713Y-120521875D01*
X103385735Y-120136499D01*
X104816549Y-118705686D01*
X105198896Y-118547703D01*
X105765713Y-117981875D01*
X106072850Y-117242207D01*
X106073549Y-116441307D01*
X105767703Y-115701104D01*
X105201875Y-115134287D01*
X104816500Y-114974265D01*
X103454200Y-113611966D01*
X103454200Y-102692277D01*
X103587289Y-102497495D01*
X103636885Y-102252581D01*
X107884261Y-102252581D01*
X107996104Y-102570809D01*
X108694649Y-102871017D01*
X109454905Y-102881051D01*
X110161131Y-102599384D01*
X110203896Y-102570809D01*
X110315739Y-102252581D01*
X109100000Y-101036842D01*
X107884261Y-102252581D01*
X103636885Y-102252581D01*
X103654621Y-102165000D01*
X103654621Y-101319905D01*
X107183949Y-101319905D01*
X107465616Y-102026131D01*
X107494191Y-102068896D01*
X107812419Y-102180739D01*
X109028158Y-100965000D01*
X109171842Y-100965000D01*
X110387581Y-102180739D01*
X110705809Y-102068896D01*
X111006017Y-101370351D01*
X111016051Y-100610095D01*
X110734384Y-99903869D01*
X110705809Y-99861104D01*
X110387581Y-99749261D01*
X109171842Y-100965000D01*
X109028158Y-100965000D01*
X107812419Y-99749261D01*
X107494191Y-99861104D01*
X107193983Y-100559649D01*
X107183949Y-101319905D01*
X103654621Y-101319905D01*
X103654621Y-99765000D01*
X103638142Y-99677419D01*
X107884261Y-99677419D01*
X109100000Y-100893158D01*
X110315739Y-99677419D01*
X110203896Y-99359191D01*
X109505351Y-99058983D01*
X108745095Y-99048949D01*
X108038869Y-99330616D01*
X107996104Y-99359191D01*
X107884261Y-99677419D01*
X103638142Y-99677419D01*
X103596174Y-99454382D01*
X103454200Y-99233748D01*
X103454200Y-83007277D01*
X103587289Y-82812495D01*
X103636885Y-82567581D01*
X107884261Y-82567581D01*
X107996104Y-82885809D01*
X108694649Y-83186017D01*
X109454905Y-83196051D01*
X110161131Y-82914384D01*
X110203896Y-82885809D01*
X110315739Y-82567581D01*
X109100000Y-81351842D01*
X107884261Y-82567581D01*
X103636885Y-82567581D01*
X103654621Y-82480000D01*
X103654621Y-81634905D01*
X107183949Y-81634905D01*
X107465616Y-82341131D01*
X107494191Y-82383896D01*
X107812419Y-82495739D01*
X109028158Y-81280000D01*
X109171842Y-81280000D01*
X110387581Y-82495739D01*
X110705809Y-82383896D01*
X111006017Y-81685351D01*
X111016051Y-80925095D01*
X110734384Y-80218869D01*
X110705809Y-80176104D01*
X110387581Y-80064261D01*
X109171842Y-81280000D01*
X109028158Y-81280000D01*
X107812419Y-80064261D01*
X107494191Y-80176104D01*
X107193983Y-80874649D01*
X107183949Y-81634905D01*
X103654621Y-81634905D01*
X103654621Y-80080000D01*
X103638142Y-79992419D01*
X107884261Y-79992419D01*
X109100000Y-81208158D01*
X110315739Y-79992419D01*
X110203896Y-79674191D01*
X109505351Y-79373983D01*
X108745095Y-79363949D01*
X108038869Y-79645616D01*
X107996104Y-79674191D01*
X107884261Y-79992419D01*
X103638142Y-79992419D01*
X103632864Y-79964370D01*
X104493192Y-79104042D01*
X117182800Y-79104042D01*
X117245928Y-79380720D01*
X117799898Y-79614278D01*
X118401080Y-79618062D01*
X118957947Y-79391496D01*
X118974072Y-79380720D01*
X119037200Y-79104042D01*
X118110000Y-78176842D01*
X117182800Y-79104042D01*
X104493192Y-79104042D01*
X105201154Y-78396080D01*
X116596938Y-78396080D01*
X116823504Y-78952947D01*
X116834280Y-78969072D01*
X117110958Y-79032200D01*
X118038158Y-78105000D01*
X117110958Y-77177800D01*
X116834280Y-77240928D01*
X116600722Y-77794898D01*
X116596938Y-78396080D01*
X105201154Y-78396080D01*
X108938192Y-74659042D01*
X115952800Y-74659042D01*
X116015928Y-74935720D01*
X116569898Y-75169278D01*
X117171080Y-75173062D01*
X117727947Y-74946496D01*
X117744072Y-74935720D01*
X117807200Y-74659042D01*
X116880000Y-73731842D01*
X115952800Y-74659042D01*
X108938192Y-74659042D01*
X109646154Y-73951080D01*
X115366938Y-73951080D01*
X115593504Y-74507947D01*
X115604280Y-74524072D01*
X115880958Y-74587200D01*
X116808158Y-73660000D01*
X115880958Y-72732800D01*
X115604280Y-72795928D01*
X115370722Y-73349898D01*
X115366938Y-73951080D01*
X109646154Y-73951080D01*
X110936276Y-72660958D01*
X115952800Y-72660958D01*
X116880000Y-73588158D01*
X117807200Y-72660958D01*
X117744072Y-72384280D01*
X117190102Y-72150722D01*
X116588920Y-72146938D01*
X116032053Y-72373504D01*
X116015928Y-72384280D01*
X115952800Y-72660958D01*
X110936276Y-72660958D01*
X120148034Y-63449200D01*
X133537214Y-63449200D01*
X133400800Y-64135000D01*
X133400800Y-72390000D01*
X133541943Y-73099572D01*
X133943883Y-73701117D01*
X133964481Y-73714880D01*
X133595841Y-73788208D01*
X133518432Y-73803606D01*
X133122895Y-74067895D01*
X133122893Y-74067898D01*
X132448365Y-74742426D01*
X132448484Y-74605572D01*
X132199608Y-74003247D01*
X132029200Y-73832541D01*
X132029200Y-66502671D01*
X132197988Y-66334177D01*
X132447915Y-65732288D01*
X132448484Y-65080572D01*
X132199608Y-64478247D01*
X131739177Y-64017012D01*
X131137288Y-63767085D01*
X130485572Y-63766516D01*
X129883247Y-64015392D01*
X129422012Y-64475823D01*
X129172085Y-65077712D01*
X129171516Y-65729428D01*
X129420392Y-66331753D01*
X129590800Y-66502459D01*
X129590800Y-71170800D01*
X127742465Y-71170800D01*
X127578551Y-71061276D01*
X127028176Y-70951800D01*
X126971824Y-70951800D01*
X126421449Y-71061276D01*
X125954863Y-71373039D01*
X125741689Y-71692077D01*
X125623080Y-71498762D01*
X125208708Y-71198049D01*
X124710800Y-71078800D01*
X124510800Y-71078800D01*
X124510800Y-72339200D01*
X124530800Y-72339200D01*
X124530800Y-72440800D01*
X124510800Y-72440800D01*
X124510800Y-72460800D01*
X124409200Y-72460800D01*
X124409200Y-72440800D01*
X123127739Y-72440800D01*
X122973862Y-72645138D01*
X123029168Y-72844842D01*
X123296920Y-73281238D01*
X123711292Y-73581951D01*
X124209200Y-73701200D01*
X124271819Y-73701200D01*
X124373100Y-74210375D01*
X124510800Y-74416457D01*
X124510800Y-77007329D01*
X124342012Y-77175823D01*
X124092085Y-77777712D01*
X124091516Y-78429428D01*
X124340392Y-79031753D01*
X124510800Y-79202459D01*
X124510800Y-79374995D01*
X124510799Y-79375000D01*
X124568304Y-79664095D01*
X123492950Y-78588740D01*
X123557915Y-78432288D01*
X123558484Y-77780572D01*
X123309608Y-77178247D01*
X122849177Y-76717012D01*
X122247288Y-76467085D01*
X122006084Y-76466874D01*
X120599200Y-75059990D01*
X120599200Y-74757671D01*
X120767988Y-74589177D01*
X121017915Y-73987288D01*
X121018484Y-73335572D01*
X120769608Y-72733247D01*
X120309177Y-72272012D01*
X119978885Y-72134862D01*
X122973862Y-72134862D01*
X123127739Y-72339200D01*
X124409200Y-72339200D01*
X124409200Y-71078800D01*
X124209200Y-71078800D01*
X123711292Y-71198049D01*
X123296920Y-71498762D01*
X123029168Y-71935158D01*
X122973862Y-72134862D01*
X119978885Y-72134862D01*
X119707288Y-72022085D01*
X119055572Y-72021516D01*
X118453247Y-72270392D01*
X117992012Y-72730823D01*
X117981485Y-72756174D01*
X117879042Y-72732800D01*
X116951842Y-73660000D01*
X117879042Y-74587200D01*
X117980968Y-74563944D01*
X117990392Y-74586753D01*
X118160800Y-74757459D01*
X118160800Y-75564995D01*
X118160799Y-75565000D01*
X118213926Y-75832085D01*
X118253606Y-76031568D01*
X118478691Y-76368432D01*
X118517895Y-76427105D01*
X118880707Y-76789916D01*
X118420102Y-76595722D01*
X117818920Y-76591938D01*
X117262053Y-76818504D01*
X117245928Y-76829280D01*
X117182800Y-77105958D01*
X118110000Y-78033158D01*
X118124143Y-78019016D01*
X118195985Y-78090858D01*
X118181842Y-78105000D01*
X119109042Y-79032200D01*
X119385720Y-78969072D01*
X119619278Y-78415102D01*
X119623062Y-77813920D01*
X119429869Y-77339078D01*
X120281724Y-78190934D01*
X120281516Y-78429428D01*
X120530392Y-79031753D01*
X120973169Y-79475303D01*
X120986068Y-79494608D01*
X121057895Y-79602105D01*
X124510800Y-83055009D01*
X124510800Y-84625545D01*
X124216501Y-85065994D01*
X124091800Y-85692906D01*
X124091800Y-85757094D01*
X124216501Y-86384006D01*
X124234404Y-86410800D01*
X123415596Y-86410800D01*
X123433499Y-86384006D01*
X123558200Y-85757094D01*
X123558200Y-85692906D01*
X123433499Y-85065994D01*
X123078382Y-84534524D01*
X122546912Y-84179407D01*
X121920000Y-84054706D01*
X121293088Y-84179407D01*
X120804606Y-84505800D01*
X119225394Y-84505800D01*
X118736912Y-84179407D01*
X118110000Y-84054706D01*
X117483088Y-84179407D01*
X116951618Y-84534524D01*
X116596501Y-85065994D01*
X116471800Y-85692906D01*
X116471800Y-85757094D01*
X116557559Y-86188232D01*
X114707895Y-88037895D01*
X114443606Y-88433432D01*
X114431935Y-88492104D01*
X114350799Y-88900000D01*
X114350800Y-88900005D01*
X114350800Y-104774995D01*
X114350799Y-104775000D01*
X114409618Y-105070700D01*
X114443606Y-105241568D01*
X114590092Y-105460800D01*
X114707895Y-105637105D01*
X118517893Y-109447102D01*
X118517895Y-109447105D01*
X118913432Y-109711394D01*
X118990841Y-109726792D01*
X119380000Y-109804201D01*
X119380005Y-109804200D01*
X124589990Y-109804200D01*
X133400800Y-118615009D01*
X133400800Y-121654581D01*
X133350290Y-121705003D01*
X133121661Y-122255602D01*
X133121141Y-122851782D01*
X133348808Y-123402780D01*
X133770003Y-123824710D01*
X134320602Y-124053339D01*
X134916782Y-124053859D01*
X135467780Y-123826192D01*
X135889710Y-123404997D01*
X136118339Y-122854398D01*
X136118859Y-122258218D01*
X135891192Y-121707220D01*
X135839200Y-121655137D01*
X135839200Y-120522808D01*
X135896854Y-120609093D01*
X136460767Y-120985887D01*
X137125947Y-121118200D01*
X137194053Y-121118200D01*
X137859233Y-120985887D01*
X138423146Y-120609093D01*
X138480800Y-120522808D01*
X138480800Y-122554995D01*
X138480799Y-122555000D01*
X138540354Y-122854398D01*
X138573606Y-123021568D01*
X138658675Y-123148883D01*
X138837895Y-123417105D01*
X139750800Y-124330009D01*
X139750800Y-126415800D01*
X139514621Y-126415800D01*
X139514621Y-126135000D01*
X139456174Y-125824382D01*
X139272599Y-125539098D01*
X138992495Y-125347711D01*
X138660000Y-125280379D01*
X135660000Y-125280379D01*
X135349382Y-125338826D01*
X135064098Y-125522401D01*
X134872711Y-125802505D01*
X134805379Y-126135000D01*
X134805379Y-129135000D01*
X134863826Y-129445618D01*
X135047401Y-129730902D01*
X135327505Y-129922289D01*
X135660000Y-129989621D01*
X138660000Y-129989621D01*
X138970618Y-129931174D01*
X139255902Y-129747599D01*
X139447289Y-129467495D01*
X139514621Y-129135000D01*
X139514621Y-128854200D01*
X139750800Y-128854200D01*
X139750800Y-130809995D01*
X139750799Y-130810000D01*
X139780371Y-130958666D01*
X139843606Y-131276568D01*
X139990092Y-131495800D01*
X140107895Y-131672105D01*
X142012893Y-133577102D01*
X142012895Y-133577105D01*
X142206998Y-133706800D01*
X119582486Y-133706800D01*
X119582486Y-125379720D01*
X123148883Y-128946117D01*
X123750428Y-129348057D01*
X124460000Y-129489200D01*
X125547134Y-129489200D01*
X125673787Y-129616074D01*
X126532863Y-129972793D01*
X127463056Y-129973605D01*
X128322754Y-129618385D01*
X128803031Y-129138945D01*
X130647897Y-129138945D01*
X130796261Y-129488342D01*
X131603223Y-129838530D01*
X132482770Y-129853251D01*
X133300999Y-129530263D01*
X133363739Y-129488342D01*
X133512103Y-129138945D01*
X132080000Y-127706842D01*
X130647897Y-129138945D01*
X128803031Y-129138945D01*
X128981074Y-128961213D01*
X129337793Y-128102137D01*
X129337849Y-128037770D01*
X129861749Y-128037770D01*
X130184737Y-128855999D01*
X130226658Y-128918739D01*
X130576055Y-129067103D01*
X132008158Y-127635000D01*
X132151842Y-127635000D01*
X133583945Y-129067103D01*
X133933342Y-128918739D01*
X134283530Y-128111777D01*
X134298251Y-127232230D01*
X133975263Y-126414001D01*
X133933342Y-126351261D01*
X133583945Y-126202897D01*
X132151842Y-127635000D01*
X132008158Y-127635000D01*
X130576055Y-126202897D01*
X130226658Y-126351261D01*
X129876470Y-127158223D01*
X129861749Y-128037770D01*
X129337849Y-128037770D01*
X129338605Y-127171944D01*
X128983385Y-126312246D01*
X128802510Y-126131055D01*
X130647897Y-126131055D01*
X132080000Y-127563158D01*
X133512103Y-126131055D01*
X133363739Y-125781658D01*
X132556777Y-125431470D01*
X131677230Y-125416749D01*
X130859001Y-125739737D01*
X130796261Y-125781658D01*
X130647897Y-126131055D01*
X128802510Y-126131055D01*
X128326213Y-125653926D01*
X127467137Y-125297207D01*
X126536944Y-125296395D01*
X125677246Y-125651615D01*
X125547835Y-125780800D01*
X125228034Y-125780800D01*
X121234200Y-121786966D01*
X121234200Y-117624279D01*
X121392850Y-117242207D01*
X121393549Y-116441307D01*
X121087703Y-115701104D01*
X120521875Y-115134287D01*
X120136500Y-114974265D01*
X118705686Y-113543452D01*
X118547703Y-113161104D01*
X117981875Y-112594287D01*
X117242207Y-112287150D01*
X116441307Y-112286451D01*
X115701104Y-112592297D01*
X115134287Y-113158125D01*
X114974265Y-113543500D01*
X113543452Y-114974314D01*
X113161104Y-115132297D01*
X112594287Y-115698125D01*
X112287150Y-116437793D01*
X112286451Y-117238693D01*
X112592297Y-117978896D01*
X113158125Y-118545713D01*
X113543501Y-118705735D01*
X114974314Y-120136549D01*
X115132297Y-120518896D01*
X115698125Y-121085713D01*
X116437793Y-121392850D01*
X117238693Y-121393549D01*
X117525800Y-121274919D01*
X117525800Y-122555000D01*
X117666943Y-123264572D01*
X118042206Y-123826192D01*
X118068883Y-123866117D01*
X119154566Y-124951800D01*
X106477515Y-124951800D01*
X106477515Y-133706800D01*
X95528200Y-133706800D01*
X95528200Y-128802370D01*
X98276334Y-128802370D01*
X98684726Y-129790754D01*
X99440269Y-130547616D01*
X100427938Y-130957732D01*
X101497370Y-130958666D01*
X102485754Y-130550274D01*
X103242616Y-129794731D01*
X103652732Y-128807062D01*
X103653666Y-127737630D01*
X103245274Y-126749246D01*
X102489731Y-125992384D01*
X101502062Y-125582268D01*
X100432630Y-125581334D01*
X99444246Y-125989726D01*
X98687384Y-126745269D01*
X98277268Y-127732938D01*
X98276334Y-128802370D01*
X95528200Y-128802370D01*
X95528200Y-63397370D01*
X97641334Y-63397370D01*
X98049726Y-64385754D01*
X98805269Y-65142616D01*
X99792938Y-65552732D01*
X100862370Y-65553666D01*
X101850754Y-65145274D01*
X102607616Y-64389731D01*
X103017732Y-63402062D01*
X103018666Y-62332630D01*
X102610274Y-61344246D01*
X101854731Y-60587384D01*
X100867062Y-60177268D01*
X99797630Y-60176334D01*
X98809246Y-60584726D01*
X98052384Y-61340269D01*
X97642268Y-62327938D01*
X97641334Y-63397370D01*
X95528200Y-63397370D01*
X95528200Y-58698200D01*
X218796800Y-58698200D01*
X218796800Y-133706800D01*
G36*
X152807895Y-123417105D02*
X153203432Y-123681394D01*
X153280841Y-123696792D01*
X153670000Y-123774201D01*
X153670005Y-123774200D01*
X154990800Y-123774200D01*
X154990800Y-125608827D01*
X154887246Y-125651615D01*
X154228926Y-126308787D01*
X153872207Y-127167863D01*
X153871395Y-128098056D01*
X154226615Y-128957754D01*
X154883787Y-129616074D01*
X155742863Y-129972793D01*
X156673056Y-129973605D01*
X156780146Y-129929356D01*
X158346590Y-131495800D01*
X143380009Y-131495800D01*
X142189200Y-130304990D01*
X142189200Y-123825000D01*
X142131696Y-123535905D01*
X144053943Y-125458152D01*
X143954098Y-125522401D01*
X143762711Y-125802505D01*
X143695379Y-126135000D01*
X143695379Y-129135000D01*
X143753826Y-129445618D01*
X143937401Y-129730902D01*
X144217505Y-129922289D01*
X144550000Y-129989621D01*
X147550000Y-129989621D01*
X147860618Y-129931174D01*
X148145902Y-129747599D01*
X148337289Y-129467495D01*
X148403822Y-129138945D01*
X149697897Y-129138945D01*
X149846261Y-129488342D01*
X150653223Y-129838530D01*
X151532770Y-129853251D01*
X152350999Y-129530263D01*
X152413739Y-129488342D01*
X152562103Y-129138945D01*
X151130000Y-127706842D01*
X149697897Y-129138945D01*
X148403822Y-129138945D01*
X148404621Y-129135000D01*
X148404621Y-128037770D01*
X148911749Y-128037770D01*
X149234737Y-128855999D01*
X149276658Y-128918739D01*
X149626055Y-129067103D01*
X151058158Y-127635000D01*
X151201842Y-127635000D01*
X152633945Y-129067103D01*
X152983342Y-128918739D01*
X153333530Y-128111777D01*
X153348251Y-127232230D01*
X153025263Y-126414001D01*
X152983342Y-126351261D01*
X152633945Y-126202897D01*
X151201842Y-127635000D01*
X151058158Y-127635000D01*
X149626055Y-126202897D01*
X149276658Y-126351261D01*
X148926470Y-127158223D01*
X148911749Y-128037770D01*
X148404621Y-128037770D01*
X148404621Y-126135000D01*
X148403879Y-126131055D01*
X149697897Y-126131055D01*
X151130000Y-127563158D01*
X152562103Y-126131055D01*
X152413739Y-125781658D01*
X151606777Y-125431470D01*
X150727230Y-125416749D01*
X149909001Y-125739737D01*
X149846261Y-125781658D01*
X149697897Y-126131055D01*
X148403879Y-126131055D01*
X148346174Y-125824382D01*
X148162599Y-125539098D01*
X147882495Y-125347711D01*
X147550000Y-125280379D01*
X147179765Y-125280379D01*
X147176394Y-125263433D01*
X147176394Y-125263432D01*
X146912105Y-124867895D01*
X146912102Y-124867893D01*
X143459200Y-121414990D01*
X143459200Y-121006953D01*
X143547505Y-121067289D01*
X143880000Y-121134621D01*
X145680000Y-121134621D01*
X145990618Y-121076174D01*
X146275902Y-120892599D01*
X146467289Y-120612495D01*
X146469981Y-120599200D01*
X149989990Y-120599200D01*
X152807895Y-123417105D01*
X152807895Y-123417105D01*
G37*
X152807895Y-123417105D02*
X153203432Y-123681394D01*
X153280841Y-123696792D01*
X153670000Y-123774201D01*
X153670005Y-123774200D01*
X154990800Y-123774200D01*
X154990800Y-125608827D01*
X154887246Y-125651615D01*
X154228926Y-126308787D01*
X153872207Y-127167863D01*
X153871395Y-128098056D01*
X154226615Y-128957754D01*
X154883787Y-129616074D01*
X155742863Y-129972793D01*
X156673056Y-129973605D01*
X156780146Y-129929356D01*
X158346590Y-131495800D01*
X143380009Y-131495800D01*
X142189200Y-130304990D01*
X142189200Y-123825000D01*
X142131696Y-123535905D01*
X144053943Y-125458152D01*
X143954098Y-125522401D01*
X143762711Y-125802505D01*
X143695379Y-126135000D01*
X143695379Y-129135000D01*
X143753826Y-129445618D01*
X143937401Y-129730902D01*
X144217505Y-129922289D01*
X144550000Y-129989621D01*
X147550000Y-129989621D01*
X147860618Y-129931174D01*
X148145902Y-129747599D01*
X148337289Y-129467495D01*
X148403822Y-129138945D01*
X149697897Y-129138945D01*
X149846261Y-129488342D01*
X150653223Y-129838530D01*
X151532770Y-129853251D01*
X152350999Y-129530263D01*
X152413739Y-129488342D01*
X152562103Y-129138945D01*
X151130000Y-127706842D01*
X149697897Y-129138945D01*
X148403822Y-129138945D01*
X148404621Y-129135000D01*
X148404621Y-128037770D01*
X148911749Y-128037770D01*
X149234737Y-128855999D01*
X149276658Y-128918739D01*
X149626055Y-129067103D01*
X151058158Y-127635000D01*
X151201842Y-127635000D01*
X152633945Y-129067103D01*
X152983342Y-128918739D01*
X153333530Y-128111777D01*
X153348251Y-127232230D01*
X153025263Y-126414001D01*
X152983342Y-126351261D01*
X152633945Y-126202897D01*
X151201842Y-127635000D01*
X151058158Y-127635000D01*
X149626055Y-126202897D01*
X149276658Y-126351261D01*
X148926470Y-127158223D01*
X148911749Y-128037770D01*
X148404621Y-128037770D01*
X148404621Y-126135000D01*
X148403879Y-126131055D01*
X149697897Y-126131055D01*
X151130000Y-127563158D01*
X152562103Y-126131055D01*
X152413739Y-125781658D01*
X151606777Y-125431470D01*
X150727230Y-125416749D01*
X149909001Y-125739737D01*
X149846261Y-125781658D01*
X149697897Y-126131055D01*
X148403879Y-126131055D01*
X148346174Y-125824382D01*
X148162599Y-125539098D01*
X147882495Y-125347711D01*
X147550000Y-125280379D01*
X147179765Y-125280379D01*
X147176394Y-125263433D01*
X147176394Y-125263432D01*
X146912105Y-124867895D01*
X146912102Y-124867893D01*
X143459200Y-121414990D01*
X143459200Y-121006953D01*
X143547505Y-121067289D01*
X143880000Y-121134621D01*
X145680000Y-121134621D01*
X145990618Y-121076174D01*
X146275902Y-120892599D01*
X146467289Y-120612495D01*
X146469981Y-120599200D01*
X149989990Y-120599200D01*
X152807895Y-123417105D01*
G36*
X195987895Y-73252105D02*
X198704198Y-75968407D01*
X198704198Y-76137567D01*
X198468555Y-75986196D01*
X198451811Y-75989523D01*
X197908336Y-76218243D01*
X197493758Y-76637531D01*
X197271192Y-77183555D01*
X197422450Y-77419200D01*
X198704200Y-77419200D01*
X198704200Y-77399200D01*
X198805800Y-77399200D01*
X198805800Y-77419200D01*
X198825800Y-77419200D01*
X198825800Y-77520800D01*
X198805800Y-77520800D01*
X198805800Y-78802432D01*
X199041445Y-78953804D01*
X199058189Y-78950477D01*
X199440800Y-78789456D01*
X199440800Y-78869991D01*
X198249990Y-80060800D01*
X195580000Y-80060800D01*
X195113432Y-80153606D01*
X194717895Y-80417895D01*
X194717893Y-80417898D01*
X192177895Y-82957895D01*
X191913606Y-83353432D01*
X191913606Y-83353433D01*
X191835643Y-83745377D01*
X191445102Y-83580722D01*
X190843920Y-83576938D01*
X190287053Y-83803504D01*
X190270928Y-83814280D01*
X190207800Y-84090958D01*
X191135000Y-85018158D01*
X191149143Y-85004016D01*
X191220985Y-85075858D01*
X191206842Y-85090000D01*
X191220985Y-85104143D01*
X191149143Y-85175985D01*
X191135000Y-85161842D01*
X190207800Y-86089042D01*
X190270928Y-86365720D01*
X190824898Y-86599278D01*
X191426080Y-86603062D01*
X191820800Y-86442467D01*
X191820800Y-92709995D01*
X191820799Y-92710000D01*
X191881253Y-93013920D01*
X191913606Y-93176568D01*
X192026149Y-93345000D01*
X192177895Y-93572105D01*
X196985707Y-98379917D01*
X196525102Y-98185722D01*
X195923920Y-98181938D01*
X195367053Y-98408504D01*
X195350928Y-98419280D01*
X195287800Y-98695958D01*
X196215000Y-99623158D01*
X196229143Y-99609016D01*
X196300985Y-99680858D01*
X196286842Y-99695000D01*
X197214042Y-100622200D01*
X197490720Y-100559072D01*
X197535800Y-100452148D01*
X197535800Y-100964995D01*
X197535799Y-100965000D01*
X197603594Y-101305823D01*
X197628606Y-101431568D01*
X197775092Y-101650800D01*
X197892895Y-101827105D01*
X198170800Y-102105010D01*
X198170800Y-102285800D01*
X193301148Y-102285800D01*
X193159608Y-101943247D01*
X192699177Y-101482012D01*
X192097288Y-101232085D01*
X191445572Y-101231516D01*
X190843247Y-101480392D01*
X190382012Y-101940823D01*
X190371485Y-101966174D01*
X190269042Y-101942800D01*
X189341842Y-102870000D01*
X189355985Y-102884143D01*
X189284143Y-102955985D01*
X189270000Y-102941842D01*
X188342800Y-103869042D01*
X188405928Y-104145720D01*
X188959898Y-104379278D01*
X189561080Y-104383062D01*
X189968485Y-104217306D01*
X189078740Y-105107050D01*
X188922288Y-105042085D01*
X188270572Y-105041516D01*
X187668247Y-105290392D01*
X187207012Y-105750823D01*
X186957085Y-106352712D01*
X186956516Y-107004428D01*
X187205392Y-107606753D01*
X187665823Y-108067988D01*
X188267712Y-108317915D01*
X188919428Y-108318484D01*
X189521753Y-108069608D01*
X189965303Y-107626831D01*
X190092105Y-107542105D01*
X190092106Y-107542104D01*
X192632102Y-105002107D01*
X192632105Y-105002105D01*
X192817795Y-104724200D01*
X198374968Y-104724200D01*
X197235372Y-105407958D01*
X196874006Y-105166501D01*
X196247094Y-105041800D01*
X196182906Y-105041800D01*
X195555994Y-105166501D01*
X195115545Y-105460800D01*
X194310005Y-105460800D01*
X194310000Y-105460799D01*
X193920841Y-105538208D01*
X193843432Y-105553606D01*
X193447895Y-105817895D01*
X193447893Y-105817898D01*
X189994990Y-109270800D01*
X189694455Y-109270800D01*
X189254006Y-108976501D01*
X188627094Y-108851800D01*
X188562906Y-108851800D01*
X187935994Y-108976501D01*
X187404524Y-109331618D01*
X187049407Y-109863088D01*
X186924706Y-110490000D01*
X187049407Y-111116912D01*
X187404524Y-111648382D01*
X187935994Y-112003499D01*
X188562906Y-112128200D01*
X188627094Y-112128200D01*
X189254006Y-112003499D01*
X189694455Y-111709200D01*
X190499995Y-111709200D01*
X190500000Y-111709201D01*
X190929290Y-111623809D01*
X190966568Y-111616394D01*
X191362105Y-111352105D01*
X194815009Y-107899200D01*
X195115545Y-107899200D01*
X195555994Y-108193499D01*
X196182906Y-108318200D01*
X196247094Y-108318200D01*
X196874006Y-108193499D01*
X197314455Y-107899200D01*
X197485000Y-107899200D01*
X197573905Y-107881516D01*
X197664446Y-107885922D01*
X197805063Y-107835536D01*
X197951568Y-107806394D01*
X198026941Y-107756032D01*
X198112273Y-107725455D01*
X200799163Y-106113322D01*
X200925017Y-106113432D01*
X201417039Y-105910132D01*
X201793809Y-105534019D01*
X201997967Y-105042352D01*
X201998127Y-104859621D01*
X202430000Y-104859621D01*
X202615800Y-104824660D01*
X202615800Y-104904991D01*
X201067895Y-106452895D01*
X200803606Y-106848432D01*
X200803606Y-106848433D01*
X200710799Y-107315000D01*
X200710800Y-107315005D01*
X200710800Y-108287854D01*
X200642711Y-108387505D01*
X200593784Y-108629112D01*
X200525132Y-108462961D01*
X200149019Y-108086191D01*
X199657352Y-107882033D01*
X199124983Y-107881568D01*
X198836420Y-108000800D01*
X198755000Y-108000800D01*
X198288432Y-108093606D01*
X197892895Y-108357895D01*
X197892893Y-108357898D01*
X197146476Y-109104315D01*
X197144177Y-109102012D01*
X196542288Y-108852085D01*
X195890572Y-108851516D01*
X195288247Y-109100392D01*
X194827012Y-109560823D01*
X194577085Y-110162712D01*
X194576516Y-110814428D01*
X194825392Y-111416753D01*
X195285823Y-111877988D01*
X195887712Y-112127915D01*
X196539428Y-112128484D01*
X197141753Y-111879608D01*
X197312459Y-111709200D01*
X197484995Y-111709200D01*
X197485000Y-111709201D01*
X197914290Y-111623809D01*
X197951568Y-111616394D01*
X198347105Y-111352105D01*
X199141226Y-110557983D01*
X199321740Y-110558141D01*
X199321568Y-110755017D01*
X199524868Y-111247039D01*
X199900981Y-111623809D01*
X200189334Y-111743544D01*
X200432893Y-111987102D01*
X200432895Y-111987105D01*
X200644059Y-112128200D01*
X200828433Y-112251395D01*
X201295000Y-112344201D01*
X201295005Y-112344200D01*
X203199995Y-112344200D01*
X203200000Y-112344201D01*
X203589159Y-112266792D01*
X203666568Y-112251394D01*
X204062105Y-111987105D01*
X206602102Y-109447107D01*
X206602105Y-109447105D01*
X206688313Y-109318086D01*
X207060800Y-108946248D01*
X207060800Y-114622600D01*
X206898382Y-114379524D01*
X206366912Y-114024407D01*
X205740000Y-113899706D01*
X205715271Y-113904625D01*
X205571568Y-113808606D01*
X205494159Y-113793208D01*
X205105000Y-113715799D01*
X205104995Y-113715800D01*
X202862146Y-113715800D01*
X202762495Y-113647711D01*
X202430000Y-113580379D01*
X201430000Y-113580379D01*
X201119382Y-113638826D01*
X200834098Y-113822401D01*
X200642711Y-114102505D01*
X200575379Y-114435000D01*
X200575379Y-114630562D01*
X200418093Y-114250840D01*
X200172561Y-114224281D01*
X199461842Y-114935000D01*
X199475985Y-114949143D01*
X199404143Y-115020985D01*
X199390000Y-115006842D01*
X198679281Y-115717561D01*
X198705840Y-115963093D01*
X199040013Y-116100778D01*
X198884990Y-116255800D01*
X198489144Y-116255800D01*
X197852972Y-115831686D01*
X197853484Y-115245572D01*
X197626551Y-114696352D01*
X198178349Y-114696352D01*
X198179254Y-115178197D01*
X198361907Y-115619160D01*
X198607439Y-115645719D01*
X199318158Y-114935000D01*
X198607439Y-114224281D01*
X198361907Y-114250840D01*
X198178349Y-114696352D01*
X197626551Y-114696352D01*
X197604608Y-114643247D01*
X197144177Y-114182012D01*
X197072958Y-114152439D01*
X198679281Y-114152439D01*
X199390000Y-114863158D01*
X200100719Y-114152439D01*
X200074160Y-113906907D01*
X199628648Y-113723349D01*
X199146803Y-113724254D01*
X198705840Y-113906907D01*
X198679281Y-114152439D01*
X197072958Y-114152439D01*
X196542288Y-113932085D01*
X195890572Y-113931516D01*
X195288247Y-114180392D01*
X194827012Y-114640823D01*
X194577085Y-115242712D01*
X194576516Y-115894428D01*
X194825392Y-116496753D01*
X195195284Y-116867291D01*
X195201981Y-116883411D01*
X195286531Y-116967784D01*
X195352895Y-117067105D01*
X195453266Y-117134171D01*
X195538710Y-117219436D01*
X197443709Y-118489436D01*
X197554114Y-118535032D01*
X197653432Y-118601394D01*
X197771824Y-118624944D01*
X197883397Y-118671022D01*
X198002847Y-118670897D01*
X198120000Y-118694200D01*
X199389995Y-118694200D01*
X199390000Y-118694201D01*
X199779159Y-118616792D01*
X199856568Y-118601394D01*
X200252105Y-118337105D01*
X201130809Y-117458400D01*
X201417039Y-117340132D01*
X201793809Y-116964019D01*
X201997967Y-116472352D01*
X201998127Y-116289621D01*
X202430000Y-116289621D01*
X202740618Y-116231174D01*
X202860239Y-116154200D01*
X204211621Y-116154200D01*
X204226501Y-116229006D01*
X204520800Y-116669455D01*
X204520800Y-117645545D01*
X204226501Y-118085994D01*
X204101800Y-118712906D01*
X204101800Y-118777094D01*
X204226501Y-119404006D01*
X204581618Y-119935476D01*
X204776662Y-120065800D01*
X202565000Y-120065800D01*
X202098432Y-120158606D01*
X201702895Y-120422895D01*
X196053674Y-126072116D01*
X195636213Y-125653926D01*
X194777137Y-125297207D01*
X193846944Y-125296395D01*
X192987246Y-125651615D01*
X192328926Y-126308787D01*
X191972207Y-127167863D01*
X191971395Y-128098056D01*
X192326615Y-128957754D01*
X192958557Y-129590800D01*
X190580387Y-129590800D01*
X191211074Y-128961213D01*
X191567793Y-128102137D01*
X191568605Y-127171944D01*
X191213385Y-126312246D01*
X190556213Y-125653926D01*
X190449200Y-125609490D01*
X190449200Y-116205005D01*
X190449201Y-116205000D01*
X190356395Y-115738433D01*
X190260375Y-115594729D01*
X190265294Y-115570000D01*
X190140593Y-114943088D01*
X189785476Y-114411618D01*
X189254006Y-114056501D01*
X188627094Y-113931800D01*
X188562906Y-113931800D01*
X187935994Y-114056501D01*
X187404524Y-114411618D01*
X187049407Y-114943088D01*
X186924706Y-115570000D01*
X187049407Y-116196912D01*
X187404524Y-116728382D01*
X187935994Y-117083499D01*
X188010800Y-117098379D01*
X188010800Y-125608827D01*
X187907246Y-125651615D01*
X187248926Y-126308787D01*
X186892207Y-127167863D01*
X186891395Y-128098056D01*
X187246615Y-128957754D01*
X187878557Y-129590800D01*
X185217640Y-129590800D01*
X185370999Y-129530263D01*
X185433739Y-129488342D01*
X185582103Y-129138945D01*
X184150000Y-127706842D01*
X182717897Y-129138945D01*
X182866261Y-129488342D01*
X183102362Y-129590800D01*
X180420387Y-129590800D01*
X181051074Y-128961213D01*
X181407793Y-128102137D01*
X181407849Y-128037770D01*
X181931749Y-128037770D01*
X182254737Y-128855999D01*
X182296658Y-128918739D01*
X182646055Y-129067103D01*
X184078158Y-127635000D01*
X184221842Y-127635000D01*
X185653945Y-129067103D01*
X186003342Y-128918739D01*
X186353530Y-128111777D01*
X186368251Y-127232230D01*
X186045263Y-126414001D01*
X186003342Y-126351261D01*
X185653945Y-126202897D01*
X184221842Y-127635000D01*
X184078158Y-127635000D01*
X182646055Y-126202897D01*
X182296658Y-126351261D01*
X181946470Y-127158223D01*
X181931749Y-128037770D01*
X181407849Y-128037770D01*
X181408605Y-127171944D01*
X181364356Y-127064854D01*
X182298154Y-126131055D01*
X182717897Y-126131055D01*
X184150000Y-127563158D01*
X185582103Y-126131055D01*
X185433739Y-125781658D01*
X184626777Y-125431470D01*
X183747230Y-125416749D01*
X182929001Y-125739737D01*
X182866261Y-125781658D01*
X182717897Y-126131055D01*
X182298154Y-126131055D01*
X183742102Y-124687107D01*
X183742105Y-124687105D01*
X184006394Y-124291568D01*
X184021792Y-124214159D01*
X184099201Y-123825000D01*
X184099200Y-123824995D01*
X184099200Y-116840000D01*
X184006394Y-116373432D01*
X183742105Y-115977895D01*
X183742102Y-115977893D01*
X181202105Y-113437895D01*
X180806568Y-113173606D01*
X180728740Y-113158125D01*
X180340000Y-113080799D01*
X180339995Y-113080800D01*
X156210005Y-113080800D01*
X156210000Y-113080799D01*
X155821260Y-113158125D01*
X155743432Y-113173606D01*
X155347895Y-113437895D01*
X152529990Y-116255800D01*
X149070394Y-116255800D01*
X148918338Y-116154200D01*
X150494995Y-116154200D01*
X150495000Y-116154201D01*
X150897188Y-116074200D01*
X150961568Y-116061394D01*
X151357105Y-115797105D01*
X163993129Y-103161080D01*
X187756938Y-103161080D01*
X187983504Y-103717947D01*
X187994280Y-103734072D01*
X188270958Y-103797200D01*
X189198158Y-102870000D01*
X188270958Y-101942800D01*
X187994280Y-102005928D01*
X187760722Y-102559898D01*
X187756938Y-103161080D01*
X163993129Y-103161080D01*
X165283251Y-101870958D01*
X188342800Y-101870958D01*
X189270000Y-102798158D01*
X190197200Y-101870958D01*
X190134072Y-101594280D01*
X189580102Y-101360722D01*
X188978920Y-101356938D01*
X188422053Y-101583504D01*
X188405928Y-101594280D01*
X188342800Y-101870958D01*
X165283251Y-101870958D01*
X166460167Y-100694042D01*
X195287800Y-100694042D01*
X195350928Y-100970720D01*
X195904898Y-101204278D01*
X196506080Y-101208062D01*
X197062947Y-100981496D01*
X197079072Y-100970720D01*
X197142200Y-100694042D01*
X196215000Y-99766842D01*
X195287800Y-100694042D01*
X166460167Y-100694042D01*
X167168129Y-99986080D01*
X194701938Y-99986080D01*
X194928504Y-100542947D01*
X194939280Y-100559072D01*
X195215958Y-100622200D01*
X196143158Y-99695000D01*
X195215958Y-98767800D01*
X194939280Y-98830928D01*
X194705722Y-99384898D01*
X194701938Y-99986080D01*
X167168129Y-99986080D01*
X169137102Y-98017107D01*
X169137105Y-98017105D01*
X169401394Y-97621568D01*
X169494200Y-97155000D01*
X169494200Y-92024200D01*
X179490529Y-92024200D01*
X179932798Y-92207846D01*
X180743644Y-92208553D01*
X181493039Y-91898910D01*
X182066895Y-91326055D01*
X182377846Y-90577202D01*
X182378553Y-89766356D01*
X182068910Y-89016961D01*
X181496055Y-88443105D01*
X180747202Y-88132154D01*
X179936356Y-88131447D01*
X179490187Y-88315800D01*
X170129200Y-88315800D01*
X170129200Y-84816772D01*
X170323437Y-85107469D01*
X170840309Y-85452831D01*
X171450000Y-85574106D01*
X171907663Y-85483071D01*
X171955034Y-85496044D01*
X172010428Y-85533057D01*
X172301915Y-85591037D01*
X172588558Y-85669535D01*
X172654657Y-85661202D01*
X172720000Y-85674200D01*
X173011490Y-85616219D01*
X173306349Y-85579048D01*
X173364228Y-85546055D01*
X173429572Y-85533057D01*
X173510794Y-85478786D01*
X173990000Y-85574106D01*
X174599691Y-85452831D01*
X174690586Y-85392097D01*
X181932371Y-85392097D01*
X182168449Y-85974747D01*
X182609527Y-86422702D01*
X183188455Y-86667766D01*
X183212904Y-86672625D01*
X183464200Y-86522500D01*
X183464200Y-85140800D01*
X183565800Y-85140800D01*
X183565800Y-86522500D01*
X183817096Y-86672625D01*
X183841545Y-86667766D01*
X184420473Y-86422702D01*
X184861551Y-85974747D01*
X185097629Y-85392097D01*
X185088285Y-85376445D01*
X185841192Y-85376445D01*
X186063758Y-85922469D01*
X186478336Y-86341757D01*
X187021811Y-86570477D01*
X187038555Y-86573804D01*
X187274200Y-86422432D01*
X187274200Y-85140800D01*
X187375800Y-85140800D01*
X187375800Y-86422432D01*
X187611445Y-86573804D01*
X187628189Y-86570477D01*
X188171664Y-86341757D01*
X188586242Y-85922469D01*
X188806918Y-85381080D01*
X189621938Y-85381080D01*
X189848504Y-85937947D01*
X189859280Y-85954072D01*
X190135958Y-86017200D01*
X191063158Y-85090000D01*
X190135958Y-84162800D01*
X189859280Y-84225928D01*
X189625722Y-84779898D01*
X189621938Y-85381080D01*
X188806918Y-85381080D01*
X188808808Y-85376445D01*
X188657550Y-85140800D01*
X187375800Y-85140800D01*
X187274200Y-85140800D01*
X185992450Y-85140800D01*
X185841192Y-85376445D01*
X185088285Y-85376445D01*
X184947603Y-85140800D01*
X183565800Y-85140800D01*
X183464200Y-85140800D01*
X182082397Y-85140800D01*
X181932371Y-85392097D01*
X174690586Y-85392097D01*
X175116563Y-85107469D01*
X175330089Y-84787903D01*
X181932371Y-84787903D01*
X182082397Y-85039200D01*
X183464200Y-85039200D01*
X183464200Y-83657500D01*
X183565800Y-83657500D01*
X183565800Y-85039200D01*
X184947603Y-85039200D01*
X185088284Y-84803555D01*
X185841192Y-84803555D01*
X185992450Y-85039200D01*
X187274200Y-85039200D01*
X187274200Y-83757568D01*
X187375800Y-83757568D01*
X187375800Y-85039200D01*
X188657550Y-85039200D01*
X188808808Y-84803555D01*
X188586242Y-84257531D01*
X188171664Y-83838243D01*
X187628189Y-83609523D01*
X187611445Y-83606196D01*
X187375800Y-83757568D01*
X187274200Y-83757568D01*
X187038555Y-83606196D01*
X187021811Y-83609523D01*
X186478336Y-83838243D01*
X186063758Y-84257531D01*
X185841192Y-84803555D01*
X185088284Y-84803555D01*
X185097629Y-84787903D01*
X184861551Y-84205253D01*
X184420473Y-83757298D01*
X183841545Y-83512234D01*
X183817096Y-83507375D01*
X183565800Y-83657500D01*
X183464200Y-83657500D01*
X183212904Y-83507375D01*
X183188455Y-83512234D01*
X182609527Y-83757298D01*
X182168449Y-84205253D01*
X181932371Y-84787903D01*
X175330089Y-84787903D01*
X175461925Y-84590597D01*
X175556847Y-84113392D01*
X175703058Y-83894571D01*
X175844200Y-83185000D01*
X175703058Y-82475429D01*
X175556847Y-82256609D01*
X175464564Y-81792670D01*
X176571117Y-80686118D01*
X176838739Y-80285593D01*
X176973057Y-80084572D01*
X177114200Y-79375000D01*
X177114200Y-77470000D01*
X178034706Y-77470000D01*
X178159407Y-78096912D01*
X178514524Y-78628382D01*
X179045994Y-78983499D01*
X179672906Y-79108200D01*
X179737094Y-79108200D01*
X180364006Y-78983499D01*
X180804455Y-78689200D01*
X181824348Y-78689200D01*
X182002401Y-78965902D01*
X182282505Y-79157289D01*
X182615000Y-79224621D01*
X184415000Y-79224621D01*
X184725618Y-79166174D01*
X185010902Y-78982599D01*
X185202289Y-78702495D01*
X185204981Y-78689200D01*
X186227329Y-78689200D01*
X186395823Y-78857988D01*
X186997712Y-79107915D01*
X187649428Y-79108484D01*
X188251753Y-78859608D01*
X188422459Y-78689200D01*
X190019606Y-78689200D01*
X190508088Y-79015593D01*
X191135000Y-79140294D01*
X191761912Y-79015593D01*
X192250394Y-78689200D01*
X193847329Y-78689200D01*
X194015823Y-78857988D01*
X194617712Y-79107915D01*
X195269428Y-79108484D01*
X195871753Y-78859608D01*
X196332988Y-78399177D01*
X196582915Y-77797288D01*
X196582950Y-77756445D01*
X197271192Y-77756445D01*
X197493758Y-78302469D01*
X197908336Y-78721757D01*
X198451811Y-78950477D01*
X198468555Y-78953804D01*
X198704200Y-78802432D01*
X198704200Y-77520800D01*
X197422450Y-77520800D01*
X197271192Y-77756445D01*
X196582950Y-77756445D01*
X196583484Y-77145572D01*
X196334608Y-76543247D01*
X195874177Y-76082012D01*
X195272288Y-75832085D01*
X194620572Y-75831516D01*
X194018247Y-76080392D01*
X193847541Y-76250800D01*
X192250394Y-76250800D01*
X191761912Y-75924407D01*
X191135000Y-75799706D01*
X190508088Y-75924407D01*
X190019606Y-76250800D01*
X188422671Y-76250800D01*
X188254177Y-76082012D01*
X187652288Y-75832085D01*
X187000572Y-75831516D01*
X186398247Y-76080392D01*
X186227541Y-76250800D01*
X185205652Y-76250800D01*
X185027599Y-75974098D01*
X184747495Y-75782711D01*
X184415000Y-75715379D01*
X182615000Y-75715379D01*
X182304382Y-75773826D01*
X182019098Y-75957401D01*
X181827711Y-76237505D01*
X181825019Y-76250800D01*
X180804455Y-76250800D01*
X180364006Y-75956501D01*
X179737094Y-75831800D01*
X179672906Y-75831800D01*
X179045994Y-75956501D01*
X178514524Y-76311618D01*
X178159407Y-76843088D01*
X178034706Y-77470000D01*
X177114200Y-77470000D01*
X177114200Y-75504095D01*
X177165000Y-75514200D01*
X193040000Y-75514200D01*
X193749572Y-75373057D01*
X194351117Y-74971117D01*
X195621117Y-73701118D01*
X195865367Y-73335572D01*
X195954516Y-73202150D01*
X195987895Y-73252105D01*
X195987895Y-73252105D01*
G37*
X195987895Y-73252105D02*
X198704198Y-75968407D01*
X198704198Y-76137567D01*
X198468555Y-75986196D01*
X198451811Y-75989523D01*
X197908336Y-76218243D01*
X197493758Y-76637531D01*
X197271192Y-77183555D01*
X197422450Y-77419200D01*
X198704200Y-77419200D01*
X198704200Y-77399200D01*
X198805800Y-77399200D01*
X198805800Y-77419200D01*
X198825800Y-77419200D01*
X198825800Y-77520800D01*
X198805800Y-77520800D01*
X198805800Y-78802432D01*
X199041445Y-78953804D01*
X199058189Y-78950477D01*
X199440800Y-78789456D01*
X199440800Y-78869991D01*
X198249990Y-80060800D01*
X195580000Y-80060800D01*
X195113432Y-80153606D01*
X194717895Y-80417895D01*
X194717893Y-80417898D01*
X192177895Y-82957895D01*
X191913606Y-83353432D01*
X191913606Y-83353433D01*
X191835643Y-83745377D01*
X191445102Y-83580722D01*
X190843920Y-83576938D01*
X190287053Y-83803504D01*
X190270928Y-83814280D01*
X190207800Y-84090958D01*
X191135000Y-85018158D01*
X191149143Y-85004016D01*
X191220985Y-85075858D01*
X191206842Y-85090000D01*
X191220985Y-85104143D01*
X191149143Y-85175985D01*
X191135000Y-85161842D01*
X190207800Y-86089042D01*
X190270928Y-86365720D01*
X190824898Y-86599278D01*
X191426080Y-86603062D01*
X191820800Y-86442467D01*
X191820800Y-92709995D01*
X191820799Y-92710000D01*
X191881253Y-93013920D01*
X191913606Y-93176568D01*
X192026149Y-93345000D01*
X192177895Y-93572105D01*
X196985707Y-98379917D01*
X196525102Y-98185722D01*
X195923920Y-98181938D01*
X195367053Y-98408504D01*
X195350928Y-98419280D01*
X195287800Y-98695958D01*
X196215000Y-99623158D01*
X196229143Y-99609016D01*
X196300985Y-99680858D01*
X196286842Y-99695000D01*
X197214042Y-100622200D01*
X197490720Y-100559072D01*
X197535800Y-100452148D01*
X197535800Y-100964995D01*
X197535799Y-100965000D01*
X197603594Y-101305823D01*
X197628606Y-101431568D01*
X197775092Y-101650800D01*
X197892895Y-101827105D01*
X198170800Y-102105010D01*
X198170800Y-102285800D01*
X193301148Y-102285800D01*
X193159608Y-101943247D01*
X192699177Y-101482012D01*
X192097288Y-101232085D01*
X191445572Y-101231516D01*
X190843247Y-101480392D01*
X190382012Y-101940823D01*
X190371485Y-101966174D01*
X190269042Y-101942800D01*
X189341842Y-102870000D01*
X189355985Y-102884143D01*
X189284143Y-102955985D01*
X189270000Y-102941842D01*
X188342800Y-103869042D01*
X188405928Y-104145720D01*
X188959898Y-104379278D01*
X189561080Y-104383062D01*
X189968485Y-104217306D01*
X189078740Y-105107050D01*
X188922288Y-105042085D01*
X188270572Y-105041516D01*
X187668247Y-105290392D01*
X187207012Y-105750823D01*
X186957085Y-106352712D01*
X186956516Y-107004428D01*
X187205392Y-107606753D01*
X187665823Y-108067988D01*
X188267712Y-108317915D01*
X188919428Y-108318484D01*
X189521753Y-108069608D01*
X189965303Y-107626831D01*
X190092105Y-107542105D01*
X190092106Y-107542104D01*
X192632102Y-105002107D01*
X192632105Y-105002105D01*
X192817795Y-104724200D01*
X198374968Y-104724200D01*
X197235372Y-105407958D01*
X196874006Y-105166501D01*
X196247094Y-105041800D01*
X196182906Y-105041800D01*
X195555994Y-105166501D01*
X195115545Y-105460800D01*
X194310005Y-105460800D01*
X194310000Y-105460799D01*
X193920841Y-105538208D01*
X193843432Y-105553606D01*
X193447895Y-105817895D01*
X193447893Y-105817898D01*
X189994990Y-109270800D01*
X189694455Y-109270800D01*
X189254006Y-108976501D01*
X188627094Y-108851800D01*
X188562906Y-108851800D01*
X187935994Y-108976501D01*
X187404524Y-109331618D01*
X187049407Y-109863088D01*
X186924706Y-110490000D01*
X187049407Y-111116912D01*
X187404524Y-111648382D01*
X187935994Y-112003499D01*
X188562906Y-112128200D01*
X188627094Y-112128200D01*
X189254006Y-112003499D01*
X189694455Y-111709200D01*
X190499995Y-111709200D01*
X190500000Y-111709201D01*
X190929290Y-111623809D01*
X190966568Y-111616394D01*
X191362105Y-111352105D01*
X194815009Y-107899200D01*
X195115545Y-107899200D01*
X195555994Y-108193499D01*
X196182906Y-108318200D01*
X196247094Y-108318200D01*
X196874006Y-108193499D01*
X197314455Y-107899200D01*
X197485000Y-107899200D01*
X197573905Y-107881516D01*
X197664446Y-107885922D01*
X197805063Y-107835536D01*
X197951568Y-107806394D01*
X198026941Y-107756032D01*
X198112273Y-107725455D01*
X200799163Y-106113322D01*
X200925017Y-106113432D01*
X201417039Y-105910132D01*
X201793809Y-105534019D01*
X201997967Y-105042352D01*
X201998127Y-104859621D01*
X202430000Y-104859621D01*
X202615800Y-104824660D01*
X202615800Y-104904991D01*
X201067895Y-106452895D01*
X200803606Y-106848432D01*
X200803606Y-106848433D01*
X200710799Y-107315000D01*
X200710800Y-107315005D01*
X200710800Y-108287854D01*
X200642711Y-108387505D01*
X200593784Y-108629112D01*
X200525132Y-108462961D01*
X200149019Y-108086191D01*
X199657352Y-107882033D01*
X199124983Y-107881568D01*
X198836420Y-108000800D01*
X198755000Y-108000800D01*
X198288432Y-108093606D01*
X197892895Y-108357895D01*
X197892893Y-108357898D01*
X197146476Y-109104315D01*
X197144177Y-109102012D01*
X196542288Y-108852085D01*
X195890572Y-108851516D01*
X195288247Y-109100392D01*
X194827012Y-109560823D01*
X194577085Y-110162712D01*
X194576516Y-110814428D01*
X194825392Y-111416753D01*
X195285823Y-111877988D01*
X195887712Y-112127915D01*
X196539428Y-112128484D01*
X197141753Y-111879608D01*
X197312459Y-111709200D01*
X197484995Y-111709200D01*
X197485000Y-111709201D01*
X197914290Y-111623809D01*
X197951568Y-111616394D01*
X198347105Y-111352105D01*
X199141226Y-110557983D01*
X199321740Y-110558141D01*
X199321568Y-110755017D01*
X199524868Y-111247039D01*
X199900981Y-111623809D01*
X200189334Y-111743544D01*
X200432893Y-111987102D01*
X200432895Y-111987105D01*
X200644059Y-112128200D01*
X200828433Y-112251395D01*
X201295000Y-112344201D01*
X201295005Y-112344200D01*
X203199995Y-112344200D01*
X203200000Y-112344201D01*
X203589159Y-112266792D01*
X203666568Y-112251394D01*
X204062105Y-111987105D01*
X206602102Y-109447107D01*
X206602105Y-109447105D01*
X206688313Y-109318086D01*
X207060800Y-108946248D01*
X207060800Y-114622600D01*
X206898382Y-114379524D01*
X206366912Y-114024407D01*
X205740000Y-113899706D01*
X205715271Y-113904625D01*
X205571568Y-113808606D01*
X205494159Y-113793208D01*
X205105000Y-113715799D01*
X205104995Y-113715800D01*
X202862146Y-113715800D01*
X202762495Y-113647711D01*
X202430000Y-113580379D01*
X201430000Y-113580379D01*
X201119382Y-113638826D01*
X200834098Y-113822401D01*
X200642711Y-114102505D01*
X200575379Y-114435000D01*
X200575379Y-114630562D01*
X200418093Y-114250840D01*
X200172561Y-114224281D01*
X199461842Y-114935000D01*
X199475985Y-114949143D01*
X199404143Y-115020985D01*
X199390000Y-115006842D01*
X198679281Y-115717561D01*
X198705840Y-115963093D01*
X199040013Y-116100778D01*
X198884990Y-116255800D01*
X198489144Y-116255800D01*
X197852972Y-115831686D01*
X197853484Y-115245572D01*
X197626551Y-114696352D01*
X198178349Y-114696352D01*
X198179254Y-115178197D01*
X198361907Y-115619160D01*
X198607439Y-115645719D01*
X199318158Y-114935000D01*
X198607439Y-114224281D01*
X198361907Y-114250840D01*
X198178349Y-114696352D01*
X197626551Y-114696352D01*
X197604608Y-114643247D01*
X197144177Y-114182012D01*
X197072958Y-114152439D01*
X198679281Y-114152439D01*
X199390000Y-114863158D01*
X200100719Y-114152439D01*
X200074160Y-113906907D01*
X199628648Y-113723349D01*
X199146803Y-113724254D01*
X198705840Y-113906907D01*
X198679281Y-114152439D01*
X197072958Y-114152439D01*
X196542288Y-113932085D01*
X195890572Y-113931516D01*
X195288247Y-114180392D01*
X194827012Y-114640823D01*
X194577085Y-115242712D01*
X194576516Y-115894428D01*
X194825392Y-116496753D01*
X195195284Y-116867291D01*
X195201981Y-116883411D01*
X195286531Y-116967784D01*
X195352895Y-117067105D01*
X195453266Y-117134171D01*
X195538710Y-117219436D01*
X197443709Y-118489436D01*
X197554114Y-118535032D01*
X197653432Y-118601394D01*
X197771824Y-118624944D01*
X197883397Y-118671022D01*
X198002847Y-118670897D01*
X198120000Y-118694200D01*
X199389995Y-118694200D01*
X199390000Y-118694201D01*
X199779159Y-118616792D01*
X199856568Y-118601394D01*
X200252105Y-118337105D01*
X201130809Y-117458400D01*
X201417039Y-117340132D01*
X201793809Y-116964019D01*
X201997967Y-116472352D01*
X201998127Y-116289621D01*
X202430000Y-116289621D01*
X202740618Y-116231174D01*
X202860239Y-116154200D01*
X204211621Y-116154200D01*
X204226501Y-116229006D01*
X204520800Y-116669455D01*
X204520800Y-117645545D01*
X204226501Y-118085994D01*
X204101800Y-118712906D01*
X204101800Y-118777094D01*
X204226501Y-119404006D01*
X204581618Y-119935476D01*
X204776662Y-120065800D01*
X202565000Y-120065800D01*
X202098432Y-120158606D01*
X201702895Y-120422895D01*
X196053674Y-126072116D01*
X195636213Y-125653926D01*
X194777137Y-125297207D01*
X193846944Y-125296395D01*
X192987246Y-125651615D01*
X192328926Y-126308787D01*
X191972207Y-127167863D01*
X191971395Y-128098056D01*
X192326615Y-128957754D01*
X192958557Y-129590800D01*
X190580387Y-129590800D01*
X191211074Y-128961213D01*
X191567793Y-128102137D01*
X191568605Y-127171944D01*
X191213385Y-126312246D01*
X190556213Y-125653926D01*
X190449200Y-125609490D01*
X190449200Y-116205005D01*
X190449201Y-116205000D01*
X190356395Y-115738433D01*
X190260375Y-115594729D01*
X190265294Y-115570000D01*
X190140593Y-114943088D01*
X189785476Y-114411618D01*
X189254006Y-114056501D01*
X188627094Y-113931800D01*
X188562906Y-113931800D01*
X187935994Y-114056501D01*
X187404524Y-114411618D01*
X187049407Y-114943088D01*
X186924706Y-115570000D01*
X187049407Y-116196912D01*
X187404524Y-116728382D01*
X187935994Y-117083499D01*
X188010800Y-117098379D01*
X188010800Y-125608827D01*
X187907246Y-125651615D01*
X187248926Y-126308787D01*
X186892207Y-127167863D01*
X186891395Y-128098056D01*
X187246615Y-128957754D01*
X187878557Y-129590800D01*
X185217640Y-129590800D01*
X185370999Y-129530263D01*
X185433739Y-129488342D01*
X185582103Y-129138945D01*
X184150000Y-127706842D01*
X182717897Y-129138945D01*
X182866261Y-129488342D01*
X183102362Y-129590800D01*
X180420387Y-129590800D01*
X181051074Y-128961213D01*
X181407793Y-128102137D01*
X181407849Y-128037770D01*
X181931749Y-128037770D01*
X182254737Y-128855999D01*
X182296658Y-128918739D01*
X182646055Y-129067103D01*
X184078158Y-127635000D01*
X184221842Y-127635000D01*
X185653945Y-129067103D01*
X186003342Y-128918739D01*
X186353530Y-128111777D01*
X186368251Y-127232230D01*
X186045263Y-126414001D01*
X186003342Y-126351261D01*
X185653945Y-126202897D01*
X184221842Y-127635000D01*
X184078158Y-127635000D01*
X182646055Y-126202897D01*
X182296658Y-126351261D01*
X181946470Y-127158223D01*
X181931749Y-128037770D01*
X181407849Y-128037770D01*
X181408605Y-127171944D01*
X181364356Y-127064854D01*
X182298154Y-126131055D01*
X182717897Y-126131055D01*
X184150000Y-127563158D01*
X185582103Y-126131055D01*
X185433739Y-125781658D01*
X184626777Y-125431470D01*
X183747230Y-125416749D01*
X182929001Y-125739737D01*
X182866261Y-125781658D01*
X182717897Y-126131055D01*
X182298154Y-126131055D01*
X183742102Y-124687107D01*
X183742105Y-124687105D01*
X184006394Y-124291568D01*
X184021792Y-124214159D01*
X184099201Y-123825000D01*
X184099200Y-123824995D01*
X184099200Y-116840000D01*
X184006394Y-116373432D01*
X183742105Y-115977895D01*
X183742102Y-115977893D01*
X181202105Y-113437895D01*
X180806568Y-113173606D01*
X180728740Y-113158125D01*
X180340000Y-113080799D01*
X180339995Y-113080800D01*
X156210005Y-113080800D01*
X156210000Y-113080799D01*
X155821260Y-113158125D01*
X155743432Y-113173606D01*
X155347895Y-113437895D01*
X152529990Y-116255800D01*
X149070394Y-116255800D01*
X148918338Y-116154200D01*
X150494995Y-116154200D01*
X150495000Y-116154201D01*
X150897188Y-116074200D01*
X150961568Y-116061394D01*
X151357105Y-115797105D01*
X163993129Y-103161080D01*
X187756938Y-103161080D01*
X187983504Y-103717947D01*
X187994280Y-103734072D01*
X188270958Y-103797200D01*
X189198158Y-102870000D01*
X188270958Y-101942800D01*
X187994280Y-102005928D01*
X187760722Y-102559898D01*
X187756938Y-103161080D01*
X163993129Y-103161080D01*
X165283251Y-101870958D01*
X188342800Y-101870958D01*
X189270000Y-102798158D01*
X190197200Y-101870958D01*
X190134072Y-101594280D01*
X189580102Y-101360722D01*
X188978920Y-101356938D01*
X188422053Y-101583504D01*
X188405928Y-101594280D01*
X188342800Y-101870958D01*
X165283251Y-101870958D01*
X166460167Y-100694042D01*
X195287800Y-100694042D01*
X195350928Y-100970720D01*
X195904898Y-101204278D01*
X196506080Y-101208062D01*
X197062947Y-100981496D01*
X197079072Y-100970720D01*
X197142200Y-100694042D01*
X196215000Y-99766842D01*
X195287800Y-100694042D01*
X166460167Y-100694042D01*
X167168129Y-99986080D01*
X194701938Y-99986080D01*
X194928504Y-100542947D01*
X194939280Y-100559072D01*
X195215958Y-100622200D01*
X196143158Y-99695000D01*
X195215958Y-98767800D01*
X194939280Y-98830928D01*
X194705722Y-99384898D01*
X194701938Y-99986080D01*
X167168129Y-99986080D01*
X169137102Y-98017107D01*
X169137105Y-98017105D01*
X169401394Y-97621568D01*
X169494200Y-97155000D01*
X169494200Y-92024200D01*
X179490529Y-92024200D01*
X179932798Y-92207846D01*
X180743644Y-92208553D01*
X181493039Y-91898910D01*
X182066895Y-91326055D01*
X182377846Y-90577202D01*
X182378553Y-89766356D01*
X182068910Y-89016961D01*
X181496055Y-88443105D01*
X180747202Y-88132154D01*
X179936356Y-88131447D01*
X179490187Y-88315800D01*
X170129200Y-88315800D01*
X170129200Y-84816772D01*
X170323437Y-85107469D01*
X170840309Y-85452831D01*
X171450000Y-85574106D01*
X171907663Y-85483071D01*
X171955034Y-85496044D01*
X172010428Y-85533057D01*
X172301915Y-85591037D01*
X172588558Y-85669535D01*
X172654657Y-85661202D01*
X172720000Y-85674200D01*
X173011490Y-85616219D01*
X173306349Y-85579048D01*
X173364228Y-85546055D01*
X173429572Y-85533057D01*
X173510794Y-85478786D01*
X173990000Y-85574106D01*
X174599691Y-85452831D01*
X174690586Y-85392097D01*
X181932371Y-85392097D01*
X182168449Y-85974747D01*
X182609527Y-86422702D01*
X183188455Y-86667766D01*
X183212904Y-86672625D01*
X183464200Y-86522500D01*
X183464200Y-85140800D01*
X183565800Y-85140800D01*
X183565800Y-86522500D01*
X183817096Y-86672625D01*
X183841545Y-86667766D01*
X184420473Y-86422702D01*
X184861551Y-85974747D01*
X185097629Y-85392097D01*
X185088285Y-85376445D01*
X185841192Y-85376445D01*
X186063758Y-85922469D01*
X186478336Y-86341757D01*
X187021811Y-86570477D01*
X187038555Y-86573804D01*
X187274200Y-86422432D01*
X187274200Y-85140800D01*
X187375800Y-85140800D01*
X187375800Y-86422432D01*
X187611445Y-86573804D01*
X187628189Y-86570477D01*
X188171664Y-86341757D01*
X188586242Y-85922469D01*
X188806918Y-85381080D01*
X189621938Y-85381080D01*
X189848504Y-85937947D01*
X189859280Y-85954072D01*
X190135958Y-86017200D01*
X191063158Y-85090000D01*
X190135958Y-84162800D01*
X189859280Y-84225928D01*
X189625722Y-84779898D01*
X189621938Y-85381080D01*
X188806918Y-85381080D01*
X188808808Y-85376445D01*
X188657550Y-85140800D01*
X187375800Y-85140800D01*
X187274200Y-85140800D01*
X185992450Y-85140800D01*
X185841192Y-85376445D01*
X185088285Y-85376445D01*
X184947603Y-85140800D01*
X183565800Y-85140800D01*
X183464200Y-85140800D01*
X182082397Y-85140800D01*
X181932371Y-85392097D01*
X174690586Y-85392097D01*
X175116563Y-85107469D01*
X175330089Y-84787903D01*
X181932371Y-84787903D01*
X182082397Y-85039200D01*
X183464200Y-85039200D01*
X183464200Y-83657500D01*
X183565800Y-83657500D01*
X183565800Y-85039200D01*
X184947603Y-85039200D01*
X185088284Y-84803555D01*
X185841192Y-84803555D01*
X185992450Y-85039200D01*
X187274200Y-85039200D01*
X187274200Y-83757568D01*
X187375800Y-83757568D01*
X187375800Y-85039200D01*
X188657550Y-85039200D01*
X188808808Y-84803555D01*
X188586242Y-84257531D01*
X188171664Y-83838243D01*
X187628189Y-83609523D01*
X187611445Y-83606196D01*
X187375800Y-83757568D01*
X187274200Y-83757568D01*
X187038555Y-83606196D01*
X187021811Y-83609523D01*
X186478336Y-83838243D01*
X186063758Y-84257531D01*
X185841192Y-84803555D01*
X185088284Y-84803555D01*
X185097629Y-84787903D01*
X184861551Y-84205253D01*
X184420473Y-83757298D01*
X183841545Y-83512234D01*
X183817096Y-83507375D01*
X183565800Y-83657500D01*
X183464200Y-83657500D01*
X183212904Y-83507375D01*
X183188455Y-83512234D01*
X182609527Y-83757298D01*
X182168449Y-84205253D01*
X181932371Y-84787903D01*
X175330089Y-84787903D01*
X175461925Y-84590597D01*
X175556847Y-84113392D01*
X175703058Y-83894571D01*
X175844200Y-83185000D01*
X175703058Y-82475429D01*
X175556847Y-82256609D01*
X175464564Y-81792670D01*
X176571117Y-80686118D01*
X176838739Y-80285593D01*
X176973057Y-80084572D01*
X177114200Y-79375000D01*
X177114200Y-77470000D01*
X178034706Y-77470000D01*
X178159407Y-78096912D01*
X178514524Y-78628382D01*
X179045994Y-78983499D01*
X179672906Y-79108200D01*
X179737094Y-79108200D01*
X180364006Y-78983499D01*
X180804455Y-78689200D01*
X181824348Y-78689200D01*
X182002401Y-78965902D01*
X182282505Y-79157289D01*
X182615000Y-79224621D01*
X184415000Y-79224621D01*
X184725618Y-79166174D01*
X185010902Y-78982599D01*
X185202289Y-78702495D01*
X185204981Y-78689200D01*
X186227329Y-78689200D01*
X186395823Y-78857988D01*
X186997712Y-79107915D01*
X187649428Y-79108484D01*
X188251753Y-78859608D01*
X188422459Y-78689200D01*
X190019606Y-78689200D01*
X190508088Y-79015593D01*
X191135000Y-79140294D01*
X191761912Y-79015593D01*
X192250394Y-78689200D01*
X193847329Y-78689200D01*
X194015823Y-78857988D01*
X194617712Y-79107915D01*
X195269428Y-79108484D01*
X195871753Y-78859608D01*
X196332988Y-78399177D01*
X196582915Y-77797288D01*
X196582950Y-77756445D01*
X197271192Y-77756445D01*
X197493758Y-78302469D01*
X197908336Y-78721757D01*
X198451811Y-78950477D01*
X198468555Y-78953804D01*
X198704200Y-78802432D01*
X198704200Y-77520800D01*
X197422450Y-77520800D01*
X197271192Y-77756445D01*
X196582950Y-77756445D01*
X196583484Y-77145572D01*
X196334608Y-76543247D01*
X195874177Y-76082012D01*
X195272288Y-75832085D01*
X194620572Y-75831516D01*
X194018247Y-76080392D01*
X193847541Y-76250800D01*
X192250394Y-76250800D01*
X191761912Y-75924407D01*
X191135000Y-75799706D01*
X190508088Y-75924407D01*
X190019606Y-76250800D01*
X188422671Y-76250800D01*
X188254177Y-76082012D01*
X187652288Y-75832085D01*
X187000572Y-75831516D01*
X186398247Y-76080392D01*
X186227541Y-76250800D01*
X185205652Y-76250800D01*
X185027599Y-75974098D01*
X184747495Y-75782711D01*
X184415000Y-75715379D01*
X182615000Y-75715379D01*
X182304382Y-75773826D01*
X182019098Y-75957401D01*
X181827711Y-76237505D01*
X181825019Y-76250800D01*
X180804455Y-76250800D01*
X180364006Y-75956501D01*
X179737094Y-75831800D01*
X179672906Y-75831800D01*
X179045994Y-75956501D01*
X178514524Y-76311618D01*
X178159407Y-76843088D01*
X178034706Y-77470000D01*
X177114200Y-77470000D01*
X177114200Y-75504095D01*
X177165000Y-75514200D01*
X193040000Y-75514200D01*
X193749572Y-75373057D01*
X194351117Y-74971117D01*
X195621117Y-73701118D01*
X195865367Y-73335572D01*
X195954516Y-73202150D01*
X195987895Y-73252105D01*
G36*
X181660800Y-123319991D02*
X179640615Y-125340175D01*
X179537137Y-125297207D01*
X178687744Y-125296466D01*
X179297102Y-124687107D01*
X179297105Y-124687105D01*
X179561394Y-124291568D01*
X179576792Y-124214159D01*
X179654201Y-123825000D01*
X179654200Y-123824995D01*
X179654200Y-122820419D01*
X179704710Y-122769997D01*
X179933339Y-122219398D01*
X179933859Y-121623218D01*
X179706192Y-121072220D01*
X179284997Y-120650290D01*
X178734398Y-120421661D01*
X178138218Y-120421141D01*
X177587220Y-120648808D01*
X177165290Y-121070003D01*
X176936661Y-121620602D01*
X176936141Y-122216782D01*
X177163808Y-122767780D01*
X177215800Y-122819863D01*
X177215800Y-123319991D01*
X175255411Y-125280379D01*
X172490000Y-125280379D01*
X172179382Y-125338826D01*
X171894098Y-125522401D01*
X171702711Y-125802505D01*
X171635379Y-126135000D01*
X171635379Y-129135000D01*
X171693826Y-129445618D01*
X171787248Y-129590800D01*
X168707640Y-129590800D01*
X168860999Y-129530263D01*
X168923739Y-129488342D01*
X169072103Y-129138945D01*
X167640000Y-127706842D01*
X166207897Y-129138945D01*
X166356261Y-129488342D01*
X166592362Y-129590800D01*
X164763038Y-129590800D01*
X164847289Y-129467495D01*
X164914621Y-129135000D01*
X164914621Y-128037770D01*
X165421749Y-128037770D01*
X165744737Y-128855999D01*
X165786658Y-128918739D01*
X166136055Y-129067103D01*
X167568158Y-127635000D01*
X167711842Y-127635000D01*
X169143945Y-129067103D01*
X169493342Y-128918739D01*
X169843530Y-128111777D01*
X169858251Y-127232230D01*
X169535263Y-126414001D01*
X169493342Y-126351261D01*
X169143945Y-126202897D01*
X167711842Y-127635000D01*
X167568158Y-127635000D01*
X166136055Y-126202897D01*
X165786658Y-126351261D01*
X165436470Y-127158223D01*
X165421749Y-128037770D01*
X164914621Y-128037770D01*
X164914621Y-126135000D01*
X164913879Y-126131055D01*
X166207897Y-126131055D01*
X167640000Y-127563158D01*
X169072103Y-126131055D01*
X168923739Y-125781658D01*
X168116777Y-125431470D01*
X167237230Y-125416749D01*
X166419001Y-125739737D01*
X166356261Y-125781658D01*
X166207897Y-126131055D01*
X164913879Y-126131055D01*
X164856174Y-125824382D01*
X164672599Y-125539098D01*
X164414200Y-125362541D01*
X164414200Y-125228034D01*
X169586118Y-120056117D01*
X169647535Y-119964200D01*
X179457075Y-119964200D01*
X179560015Y-120032982D01*
X180340000Y-120188131D01*
X181119985Y-120032982D01*
X181660800Y-119671621D01*
X181660800Y-123319991D01*
X181660800Y-123319991D01*
G37*
X181660800Y-123319991D02*
X179640615Y-125340175D01*
X179537137Y-125297207D01*
X178687744Y-125296466D01*
X179297102Y-124687107D01*
X179297105Y-124687105D01*
X179561394Y-124291568D01*
X179576792Y-124214159D01*
X179654201Y-123825000D01*
X179654200Y-123824995D01*
X179654200Y-122820419D01*
X179704710Y-122769997D01*
X179933339Y-122219398D01*
X179933859Y-121623218D01*
X179706192Y-121072220D01*
X179284997Y-120650290D01*
X178734398Y-120421661D01*
X178138218Y-120421141D01*
X177587220Y-120648808D01*
X177165290Y-121070003D01*
X176936661Y-121620602D01*
X176936141Y-122216782D01*
X177163808Y-122767780D01*
X177215800Y-122819863D01*
X177215800Y-123319991D01*
X175255411Y-125280379D01*
X172490000Y-125280379D01*
X172179382Y-125338826D01*
X171894098Y-125522401D01*
X171702711Y-125802505D01*
X171635379Y-126135000D01*
X171635379Y-129135000D01*
X171693826Y-129445618D01*
X171787248Y-129590800D01*
X168707640Y-129590800D01*
X168860999Y-129530263D01*
X168923739Y-129488342D01*
X169072103Y-129138945D01*
X167640000Y-127706842D01*
X166207897Y-129138945D01*
X166356261Y-129488342D01*
X166592362Y-129590800D01*
X164763038Y-129590800D01*
X164847289Y-129467495D01*
X164914621Y-129135000D01*
X164914621Y-128037770D01*
X165421749Y-128037770D01*
X165744737Y-128855999D01*
X165786658Y-128918739D01*
X166136055Y-129067103D01*
X167568158Y-127635000D01*
X167711842Y-127635000D01*
X169143945Y-129067103D01*
X169493342Y-128918739D01*
X169843530Y-128111777D01*
X169858251Y-127232230D01*
X169535263Y-126414001D01*
X169493342Y-126351261D01*
X169143945Y-126202897D01*
X167711842Y-127635000D01*
X167568158Y-127635000D01*
X166136055Y-126202897D01*
X165786658Y-126351261D01*
X165436470Y-127158223D01*
X165421749Y-128037770D01*
X164914621Y-128037770D01*
X164914621Y-126135000D01*
X164913879Y-126131055D01*
X166207897Y-126131055D01*
X167640000Y-127563158D01*
X169072103Y-126131055D01*
X168923739Y-125781658D01*
X168116777Y-125431470D01*
X167237230Y-125416749D01*
X166419001Y-125739737D01*
X166356261Y-125781658D01*
X166207897Y-126131055D01*
X164913879Y-126131055D01*
X164856174Y-125824382D01*
X164672599Y-125539098D01*
X164414200Y-125362541D01*
X164414200Y-125228034D01*
X169586118Y-120056117D01*
X169647535Y-119964200D01*
X179457075Y-119964200D01*
X179560015Y-120032982D01*
X180340000Y-120188131D01*
X181119985Y-120032982D01*
X181660800Y-119671621D01*
X181660800Y-123319991D01*
G36*
X153252711Y-68617505D02*
X153185379Y-68950000D01*
X153185379Y-70750000D01*
X153243826Y-71060618D01*
X153427401Y-71345902D01*
X153707505Y-71537289D01*
X153720800Y-71539981D01*
X153720800Y-73659995D01*
X153720799Y-73660000D01*
X153788594Y-74000823D01*
X153813606Y-74126568D01*
X153975975Y-74369571D01*
X154077895Y-74522105D01*
X156729315Y-77173525D01*
X156727012Y-77175823D01*
X156477085Y-77777712D01*
X156476516Y-78429428D01*
X156725392Y-79031753D01*
X157185823Y-79492988D01*
X157787712Y-79742915D01*
X158439428Y-79743484D01*
X159041753Y-79494608D01*
X159502988Y-79034177D01*
X159752915Y-78432288D01*
X159753484Y-77780572D01*
X159504608Y-77178247D01*
X159334200Y-77007541D01*
X159334200Y-76835005D01*
X159334201Y-76835000D01*
X159249429Y-76408826D01*
X159241394Y-76368432D01*
X158977105Y-75972895D01*
X156159200Y-73154990D01*
X156159200Y-73051625D01*
X156168883Y-73066117D01*
X161975800Y-78873034D01*
X161975800Y-80912099D01*
X161950309Y-80917169D01*
X161433437Y-81262531D01*
X161088075Y-81779403D01*
X160993153Y-82256610D01*
X160846943Y-82475428D01*
X160705800Y-83185000D01*
X160846943Y-83894572D01*
X160993153Y-84113390D01*
X161088075Y-84590597D01*
X161433437Y-85107469D01*
X161950309Y-85452831D01*
X162560000Y-85574106D01*
X163169691Y-85452831D01*
X163686563Y-85107469D01*
X163732179Y-85039200D01*
X163927821Y-85039200D01*
X163973437Y-85107469D01*
X164490309Y-85452831D01*
X165100000Y-85574106D01*
X165709691Y-85452831D01*
X166226563Y-85107469D01*
X166420800Y-84816772D01*
X166420800Y-88315800D01*
X157059471Y-88315800D01*
X156617202Y-88132154D01*
X155806356Y-88131447D01*
X155056961Y-88441090D01*
X154483105Y-89013945D01*
X154172154Y-89762798D01*
X154171447Y-90573644D01*
X154481090Y-91323039D01*
X155053945Y-91896895D01*
X155802798Y-92207846D01*
X156613644Y-92208553D01*
X157059813Y-92024200D01*
X167055800Y-92024200D01*
X167055800Y-96649991D01*
X149989990Y-113715800D01*
X145415005Y-113715800D01*
X145415000Y-113715799D01*
X145025841Y-113793208D01*
X144948432Y-113808606D01*
X144625463Y-114024407D01*
X144552895Y-114072895D01*
X141377895Y-117247895D01*
X141113606Y-117643432D01*
X141107469Y-117674287D01*
X141020799Y-118110000D01*
X141020800Y-118110005D01*
X141020800Y-121919995D01*
X141020799Y-121920000D01*
X141078304Y-122209095D01*
X140919200Y-122049990D01*
X140919200Y-118110005D01*
X140919201Y-118110000D01*
X140832531Y-117674287D01*
X140826394Y-117643432D01*
X140562105Y-117247895D01*
X140562102Y-117247893D01*
X132295562Y-108981352D01*
X135948349Y-108981352D01*
X135949254Y-109463197D01*
X136131907Y-109904160D01*
X136377439Y-109930719D01*
X137088158Y-109220000D01*
X136377439Y-108509281D01*
X136131907Y-108535840D01*
X135948349Y-108981352D01*
X132295562Y-108981352D01*
X131751649Y-108437439D01*
X136449281Y-108437439D01*
X137160000Y-109148158D01*
X137870719Y-108437439D01*
X137844160Y-108191907D01*
X137398648Y-108008349D01*
X136916803Y-108009254D01*
X136475840Y-108191907D01*
X136449281Y-108437439D01*
X131751649Y-108437439D01*
X129723252Y-106409042D01*
X133692800Y-106409042D01*
X133755928Y-106685720D01*
X134309898Y-106919278D01*
X134911080Y-106923062D01*
X135467947Y-106696496D01*
X135484072Y-106685720D01*
X135547200Y-106409042D01*
X134620000Y-105481842D01*
X133692800Y-106409042D01*
X129723252Y-106409042D01*
X129015290Y-105701080D01*
X133106938Y-105701080D01*
X133333504Y-106257947D01*
X133344280Y-106274072D01*
X133620958Y-106337200D01*
X134548158Y-105410000D01*
X133620958Y-104482800D01*
X133344280Y-104545928D01*
X133110722Y-105099898D01*
X133106938Y-105701080D01*
X129015290Y-105701080D01*
X127227105Y-103912895D01*
X127168122Y-103873484D01*
X126831568Y-103648606D01*
X126710922Y-103624608D01*
X126365000Y-103555799D01*
X126364995Y-103555800D01*
X123060009Y-103555800D01*
X122891480Y-103387270D01*
X122944159Y-103376792D01*
X123021568Y-103361394D01*
X123417105Y-103097105D01*
X123910934Y-102603276D01*
X124149428Y-102603484D01*
X124751753Y-102354608D01*
X125212988Y-101894177D01*
X125462915Y-101292288D01*
X125463200Y-100965000D01*
X129774706Y-100965000D01*
X129899407Y-101591912D01*
X130254524Y-102123382D01*
X130785994Y-102478499D01*
X131412906Y-102603200D01*
X131477094Y-102603200D01*
X132104006Y-102478499D01*
X132544455Y-102184200D01*
X133065911Y-102184200D01*
X133074407Y-102226912D01*
X133429524Y-102758382D01*
X133960994Y-103113499D01*
X134520602Y-103224812D01*
X135390706Y-104094916D01*
X134930102Y-103900722D01*
X134328920Y-103896938D01*
X133772053Y-104123504D01*
X133755928Y-104134280D01*
X133692800Y-104410958D01*
X134620000Y-105338158D01*
X134634143Y-105324016D01*
X134705985Y-105395858D01*
X134691842Y-105410000D01*
X135619042Y-106337200D01*
X135895720Y-106274072D01*
X136129278Y-105720102D01*
X136133062Y-105118920D01*
X135939869Y-104644079D01*
X138480800Y-107185010D01*
X138480800Y-108287854D01*
X138412711Y-108387505D01*
X138345379Y-108720000D01*
X138345379Y-108915562D01*
X138188093Y-108535840D01*
X137942561Y-108509281D01*
X137231842Y-109220000D01*
X137245985Y-109234143D01*
X137174143Y-109305985D01*
X137160000Y-109291842D01*
X136449281Y-110002561D01*
X136475840Y-110248093D01*
X136921352Y-110431651D01*
X137091851Y-110431331D01*
X137091568Y-110755017D01*
X137210800Y-111043580D01*
X137210800Y-111124995D01*
X137210799Y-111125000D01*
X137244303Y-111293432D01*
X137303606Y-111591568D01*
X137496068Y-111879608D01*
X137567895Y-111987105D01*
X138202893Y-112622102D01*
X138202895Y-112622105D01*
X138467185Y-112798698D01*
X138598433Y-112886395D01*
X139065000Y-112979201D01*
X139065005Y-112979200D01*
X146049995Y-112979200D01*
X146050000Y-112979201D01*
X146439159Y-112901792D01*
X146516568Y-112886394D01*
X146912105Y-112622105D01*
X148040934Y-111493276D01*
X148279428Y-111493484D01*
X148881753Y-111244608D01*
X149342988Y-110784177D01*
X149592915Y-110182288D01*
X149593484Y-109530572D01*
X149344608Y-108928247D01*
X148884177Y-108467012D01*
X148282288Y-108217085D01*
X147630572Y-108216516D01*
X147028247Y-108465392D01*
X146567012Y-108925823D01*
X146317085Y-109527712D01*
X146316874Y-109768916D01*
X145544990Y-110540800D01*
X140379743Y-110540800D01*
X140510618Y-110516174D01*
X140795902Y-110332599D01*
X140987289Y-110052495D01*
X141054621Y-109720000D01*
X141054621Y-108720000D01*
X140996174Y-108409382D01*
X140919200Y-108289761D01*
X140919200Y-106680005D01*
X140919201Y-106680000D01*
X140838065Y-106272104D01*
X140832345Y-106243351D01*
X141049524Y-106568382D01*
X141580994Y-106923499D01*
X142207906Y-107048200D01*
X142272094Y-107048200D01*
X142899006Y-106923499D01*
X143430476Y-106568382D01*
X143785593Y-106036912D01*
X143896906Y-105477303D01*
X148324588Y-101049621D01*
X148455000Y-101049621D01*
X148765618Y-100991174D01*
X149050902Y-100807599D01*
X149242289Y-100527495D01*
X149309621Y-100195000D01*
X149309621Y-99195000D01*
X149251174Y-98884382D01*
X149067599Y-98599098D01*
X148787495Y-98407711D01*
X148545888Y-98358784D01*
X148712039Y-98290132D01*
X149088809Y-97914019D01*
X149292967Y-97422352D01*
X149293432Y-96889983D01*
X149090132Y-96397961D01*
X148714019Y-96021191D01*
X148425666Y-95901456D01*
X148182105Y-95657895D01*
X148157570Y-95641501D01*
X147786568Y-95393606D01*
X147709159Y-95378208D01*
X147320000Y-95300799D01*
X147319995Y-95300800D01*
X144145005Y-95300800D01*
X144145000Y-95300799D01*
X143678433Y-95393605D01*
X143547185Y-95481302D01*
X143282895Y-95657895D01*
X143282893Y-95657898D01*
X143171476Y-95769315D01*
X143169177Y-95767012D01*
X142567288Y-95517085D01*
X141915572Y-95516516D01*
X141313247Y-95765392D01*
X140852012Y-96225823D01*
X140602085Y-96827712D01*
X140601516Y-97479428D01*
X140850392Y-98081753D01*
X141310823Y-98542988D01*
X141912712Y-98792915D01*
X142564428Y-98793484D01*
X143166753Y-98544608D01*
X143337459Y-98374200D01*
X143509995Y-98374200D01*
X143510000Y-98374201D01*
X143799095Y-98316696D01*
X142154066Y-99961724D01*
X141915572Y-99961516D01*
X141313247Y-100210392D01*
X140852012Y-100670823D01*
X140602085Y-101272712D01*
X140601516Y-101924428D01*
X140850392Y-102526753D01*
X141310823Y-102987988D01*
X141912712Y-103237915D01*
X142564428Y-103238484D01*
X142773829Y-103151961D01*
X142140603Y-103785188D01*
X141580994Y-103896501D01*
X141049524Y-104251618D01*
X140694407Y-104783088D01*
X140569706Y-105410000D01*
X140688456Y-106006992D01*
X140562105Y-105817895D01*
X136276906Y-101532696D01*
X136165593Y-100973088D01*
X135810476Y-100441618D01*
X135279006Y-100086501D01*
X134652094Y-99961800D01*
X134635941Y-99961800D01*
X134451568Y-99838606D01*
X134374159Y-99823208D01*
X133985000Y-99745799D01*
X133984995Y-99745800D01*
X132544455Y-99745800D01*
X132104006Y-99451501D01*
X131477094Y-99326800D01*
X131412906Y-99326800D01*
X130785994Y-99451501D01*
X130254524Y-99806618D01*
X129899407Y-100338088D01*
X129774706Y-100965000D01*
X125463200Y-100965000D01*
X125463484Y-100640572D01*
X125214608Y-100038247D01*
X124754177Y-99577012D01*
X124152288Y-99327085D01*
X123500572Y-99326516D01*
X122898247Y-99575392D01*
X122437012Y-100035823D01*
X122187085Y-100637712D01*
X122186874Y-100878916D01*
X122049990Y-101015800D01*
X121112671Y-101015800D01*
X120944177Y-100847012D01*
X120918826Y-100836485D01*
X120942200Y-100734042D01*
X120015000Y-99806842D01*
X119087800Y-100734042D01*
X119111056Y-100835968D01*
X119088247Y-100845392D01*
X118694200Y-101238752D01*
X118694200Y-100498633D01*
X118728504Y-100582947D01*
X118739280Y-100599072D01*
X119015958Y-100662200D01*
X119943158Y-99735000D01*
X120086842Y-99735000D01*
X121014042Y-100662200D01*
X121290720Y-100599072D01*
X121524278Y-100045102D01*
X121528062Y-99443920D01*
X121301496Y-98887053D01*
X121290720Y-98870928D01*
X121014042Y-98807800D01*
X120086842Y-99735000D01*
X119943158Y-99735000D01*
X119015958Y-98807800D01*
X118739280Y-98870928D01*
X118694200Y-98977852D01*
X118694200Y-98735958D01*
X119087800Y-98735958D01*
X120015000Y-99663158D01*
X120942200Y-98735958D01*
X120879072Y-98459280D01*
X120325102Y-98225722D01*
X119723920Y-98221938D01*
X119167053Y-98448504D01*
X119150928Y-98459280D01*
X119087800Y-98735958D01*
X118694200Y-98735958D01*
X118694200Y-94304042D01*
X119087800Y-94304042D01*
X119150928Y-94580720D01*
X119704898Y-94814278D01*
X120306080Y-94818062D01*
X120862947Y-94591496D01*
X120879072Y-94580720D01*
X120942200Y-94304042D01*
X120015000Y-93376842D01*
X119087800Y-94304042D01*
X118694200Y-94304042D01*
X118694200Y-94068633D01*
X118728504Y-94152947D01*
X118739280Y-94169072D01*
X119015958Y-94232200D01*
X119943158Y-93305000D01*
X120086842Y-93305000D01*
X121014042Y-94232200D01*
X121290720Y-94169072D01*
X121524278Y-93615102D01*
X121528062Y-93013920D01*
X121301496Y-92457053D01*
X121290720Y-92440928D01*
X121014042Y-92377800D01*
X120086842Y-93305000D01*
X119943158Y-93305000D01*
X119015958Y-92377800D01*
X118739280Y-92440928D01*
X118694200Y-92547852D01*
X118694200Y-91800681D01*
X119085823Y-92192988D01*
X119111174Y-92203515D01*
X119087800Y-92305958D01*
X120015000Y-93233158D01*
X120942200Y-92305958D01*
X120918944Y-92204032D01*
X120941753Y-92194608D01*
X121112459Y-92024200D01*
X121980904Y-92024200D01*
X121970799Y-92075000D01*
X121970800Y-92075005D01*
X121970800Y-96519995D01*
X121970799Y-96520000D01*
X122043930Y-96887648D01*
X122063606Y-96986568D01*
X122186785Y-97170919D01*
X122186516Y-97479428D01*
X122435392Y-98081753D01*
X122895823Y-98542988D01*
X123497712Y-98792915D01*
X124149428Y-98793484D01*
X124751753Y-98544608D01*
X125212988Y-98084177D01*
X125462915Y-97482288D01*
X125463484Y-96830572D01*
X125214608Y-96228247D01*
X124754177Y-95767012D01*
X124409200Y-95623765D01*
X124409200Y-93874212D01*
X124624334Y-93963543D01*
X128677893Y-98017102D01*
X128677895Y-98017105D01*
X129073432Y-98281394D01*
X129540000Y-98374200D01*
X130345545Y-98374200D01*
X130785994Y-98668499D01*
X131412906Y-98793200D01*
X131477094Y-98793200D01*
X132104006Y-98668499D01*
X132544455Y-98374200D01*
X133520545Y-98374200D01*
X133960994Y-98668499D01*
X134587906Y-98793200D01*
X134652094Y-98793200D01*
X135279006Y-98668499D01*
X135810476Y-98313382D01*
X136165593Y-97781912D01*
X136290294Y-97155000D01*
X136165593Y-96528088D01*
X135810476Y-95996618D01*
X135279006Y-95641501D01*
X134652094Y-95516800D01*
X134587906Y-95516800D01*
X133960994Y-95641501D01*
X133520545Y-95935800D01*
X132544455Y-95935800D01*
X132104006Y-95641501D01*
X131477094Y-95516800D01*
X131412906Y-95516800D01*
X130785994Y-95641501D01*
X130345545Y-95935800D01*
X130045009Y-95935800D01*
X128673409Y-94564200D01*
X131444995Y-94564200D01*
X131445000Y-94564201D01*
X131834159Y-94486792D01*
X131911568Y-94471394D01*
X132307105Y-94207105D01*
X132550810Y-93963400D01*
X132837039Y-93845132D01*
X133213809Y-93469019D01*
X133417967Y-92977352D01*
X133418127Y-92794621D01*
X133850000Y-92794621D01*
X134160618Y-92736174D01*
X134280239Y-92659200D01*
X138429995Y-92659200D01*
X138430000Y-92659201D01*
X138859290Y-92573809D01*
X138896568Y-92566394D01*
X139292105Y-92302105D01*
X139292106Y-92302104D01*
X143737102Y-87857107D01*
X143737105Y-87857105D01*
X144001394Y-87461568D01*
X144094200Y-86995000D01*
X144094200Y-86824455D01*
X144161293Y-86724042D01*
X145757800Y-86724042D01*
X145820928Y-87000720D01*
X146374898Y-87234278D01*
X146976080Y-87238062D01*
X147532947Y-87011496D01*
X147549072Y-87000720D01*
X147612200Y-86724042D01*
X146685000Y-85796842D01*
X145757800Y-86724042D01*
X144161293Y-86724042D01*
X144388499Y-86384006D01*
X144461684Y-86016080D01*
X145171938Y-86016080D01*
X145398504Y-86572947D01*
X145409280Y-86589072D01*
X145685958Y-86652200D01*
X146613158Y-85725000D01*
X146756842Y-85725000D01*
X147684042Y-86652200D01*
X147960720Y-86589072D01*
X148194278Y-86035102D01*
X148194328Y-86027097D01*
X148912371Y-86027097D01*
X149148449Y-86609747D01*
X149589527Y-87057702D01*
X150168455Y-87302766D01*
X150192904Y-87307625D01*
X150444200Y-87157500D01*
X150444200Y-85775800D01*
X150545800Y-85775800D01*
X150545800Y-87157500D01*
X150797096Y-87307625D01*
X150821545Y-87302766D01*
X151400473Y-87057702D01*
X151841551Y-86609747D01*
X152077629Y-86027097D01*
X152068285Y-86011445D01*
X152821192Y-86011445D01*
X153043758Y-86557469D01*
X153458336Y-86976757D01*
X154001811Y-87205477D01*
X154018555Y-87208804D01*
X154254200Y-87057432D01*
X154254200Y-85775800D01*
X154355800Y-85775800D01*
X154355800Y-87057432D01*
X154591445Y-87208804D01*
X154608189Y-87205477D01*
X155151664Y-86976757D01*
X155566242Y-86557469D01*
X155788808Y-86011445D01*
X155637550Y-85775800D01*
X154355800Y-85775800D01*
X154254200Y-85775800D01*
X152972450Y-85775800D01*
X152821192Y-86011445D01*
X152068285Y-86011445D01*
X151927603Y-85775800D01*
X150545800Y-85775800D01*
X150444200Y-85775800D01*
X149062397Y-85775800D01*
X148912371Y-86027097D01*
X148194328Y-86027097D01*
X148198062Y-85433920D01*
X148193580Y-85422903D01*
X148912371Y-85422903D01*
X149062397Y-85674200D01*
X150444200Y-85674200D01*
X150444200Y-84292500D01*
X150545800Y-84292500D01*
X150545800Y-85674200D01*
X151927603Y-85674200D01*
X152068284Y-85438555D01*
X152821192Y-85438555D01*
X152972450Y-85674200D01*
X154254200Y-85674200D01*
X154254200Y-84392568D01*
X154355800Y-84392568D01*
X154355800Y-85674200D01*
X155637550Y-85674200D01*
X155788808Y-85438555D01*
X155566242Y-84892531D01*
X155151664Y-84473243D01*
X154608189Y-84244523D01*
X154591445Y-84241196D01*
X154355800Y-84392568D01*
X154254200Y-84392568D01*
X154018555Y-84241196D01*
X154001811Y-84244523D01*
X153458336Y-84473243D01*
X153043758Y-84892531D01*
X152821192Y-85438555D01*
X152068284Y-85438555D01*
X152077629Y-85422903D01*
X151841551Y-84840253D01*
X151400473Y-84392298D01*
X150821545Y-84147234D01*
X150797096Y-84142375D01*
X150545800Y-84292500D01*
X150444200Y-84292500D01*
X150192904Y-84142375D01*
X150168455Y-84147234D01*
X149589527Y-84392298D01*
X149148449Y-84840253D01*
X148912371Y-85422903D01*
X148193580Y-85422903D01*
X147971496Y-84877053D01*
X147960720Y-84860928D01*
X147684042Y-84797800D01*
X146756842Y-85725000D01*
X146613158Y-85725000D01*
X145685958Y-84797800D01*
X145409280Y-84860928D01*
X145175722Y-85414898D01*
X145171938Y-86016080D01*
X144461684Y-86016080D01*
X144513200Y-85757094D01*
X144513200Y-85692906D01*
X144388499Y-85065994D01*
X144161294Y-84725958D01*
X145757800Y-84725958D01*
X146685000Y-85653158D01*
X147612200Y-84725958D01*
X147549072Y-84449280D01*
X146995102Y-84215722D01*
X146393920Y-84211938D01*
X145837053Y-84438504D01*
X145820928Y-84449280D01*
X145757800Y-84725958D01*
X144161294Y-84725958D01*
X144094200Y-84625545D01*
X144094200Y-84455005D01*
X144094201Y-84455000D01*
X144001394Y-83988433D01*
X144001394Y-83988432D01*
X143737105Y-83592895D01*
X143737102Y-83592893D01*
X141832105Y-81687895D01*
X141752800Y-81634905D01*
X141436568Y-81423606D01*
X141359159Y-81408208D01*
X140970000Y-81330799D01*
X140969995Y-81330800D01*
X140205009Y-81330800D01*
X138240145Y-79365935D01*
X138761811Y-79585477D01*
X138778555Y-79588804D01*
X139014200Y-79437432D01*
X139014200Y-78155800D01*
X139115800Y-78155800D01*
X139115800Y-79437432D01*
X139351445Y-79588804D01*
X139368189Y-79585477D01*
X139911664Y-79356757D01*
X140326242Y-78937469D01*
X140533325Y-78429428D01*
X141236516Y-78429428D01*
X141485392Y-79031753D01*
X141945823Y-79492988D01*
X142547712Y-79742915D01*
X143199428Y-79743484D01*
X143801753Y-79494608D01*
X143972459Y-79324200D01*
X145569606Y-79324200D01*
X146058088Y-79650593D01*
X146685000Y-79775294D01*
X147311912Y-79650593D01*
X147800394Y-79324200D01*
X148804348Y-79324200D01*
X148982401Y-79600902D01*
X149262505Y-79792289D01*
X149595000Y-79859621D01*
X151395000Y-79859621D01*
X151705618Y-79801174D01*
X151990902Y-79617599D01*
X152182289Y-79337495D01*
X152184981Y-79324200D01*
X153207329Y-79324200D01*
X153358169Y-79475303D01*
X153371068Y-79494608D01*
X153442895Y-79602105D01*
X156895800Y-83055009D01*
X156895800Y-84625545D01*
X156601501Y-85065994D01*
X156476800Y-85692906D01*
X156476800Y-85757094D01*
X156601501Y-86384006D01*
X156956618Y-86915476D01*
X157488088Y-87270593D01*
X158115000Y-87395294D01*
X158741912Y-87270593D01*
X159273382Y-86915476D01*
X159628499Y-86384006D01*
X159753200Y-85757094D01*
X159753200Y-85692906D01*
X159628499Y-85065994D01*
X159334200Y-84625545D01*
X159334200Y-82550005D01*
X159334201Y-82550000D01*
X159241394Y-82083433D01*
X159241394Y-82083432D01*
X158977105Y-81687895D01*
X158977102Y-81687893D01*
X155877950Y-78588740D01*
X155942915Y-78432288D01*
X155943484Y-77780572D01*
X155694608Y-77178247D01*
X155234177Y-76717012D01*
X154632288Y-76467085D01*
X153980572Y-76466516D01*
X153378247Y-76715392D01*
X153207541Y-76885800D01*
X152185652Y-76885800D01*
X152007599Y-76609098D01*
X151727495Y-76417711D01*
X151395000Y-76350379D01*
X149595000Y-76350379D01*
X149284382Y-76408826D01*
X148999098Y-76592401D01*
X148807711Y-76872505D01*
X148805019Y-76885800D01*
X147800394Y-76885800D01*
X147311912Y-76559407D01*
X146685000Y-76434706D01*
X146058088Y-76559407D01*
X145569606Y-76885800D01*
X143972671Y-76885800D01*
X143804177Y-76717012D01*
X143202288Y-76467085D01*
X142550572Y-76466516D01*
X141948247Y-76715392D01*
X141487012Y-77175823D01*
X141237085Y-77777712D01*
X141236516Y-78429428D01*
X140533325Y-78429428D01*
X140548808Y-78391445D01*
X140397550Y-78155800D01*
X139115800Y-78155800D01*
X139014200Y-78155800D01*
X137732450Y-78155800D01*
X137581192Y-78391445D01*
X137798308Y-78924098D01*
X137009621Y-78135411D01*
X137009621Y-77818555D01*
X137581192Y-77818555D01*
X137732450Y-78054200D01*
X139014200Y-78054200D01*
X139014200Y-76772568D01*
X139115800Y-76772568D01*
X139115800Y-78054200D01*
X140397550Y-78054200D01*
X140548808Y-77818555D01*
X140326242Y-77272531D01*
X139911664Y-76853243D01*
X139368189Y-76624523D01*
X139351445Y-76621196D01*
X139115800Y-76772568D01*
X139014200Y-76772568D01*
X138778555Y-76621196D01*
X138761811Y-76624523D01*
X138218336Y-76853243D01*
X137803758Y-77272531D01*
X137581192Y-77818555D01*
X137009621Y-77818555D01*
X137009621Y-77205000D01*
X136951174Y-76894382D01*
X136767599Y-76609098D01*
X136487495Y-76417711D01*
X136155000Y-76350379D01*
X134355000Y-76350379D01*
X134273494Y-76365716D01*
X134490009Y-76149200D01*
X137330545Y-76149200D01*
X137770994Y-76443499D01*
X138397906Y-76568200D01*
X138462094Y-76568200D01*
X139089006Y-76443499D01*
X139620476Y-76088382D01*
X139975593Y-75556912D01*
X140100294Y-74930000D01*
X139975593Y-74303088D01*
X139936245Y-74244200D01*
X143510000Y-74244200D01*
X144219572Y-74103057D01*
X144821117Y-73701117D01*
X145223057Y-73099572D01*
X145364200Y-72390000D01*
X145364200Y-69850000D01*
X145223057Y-69140428D01*
X144821117Y-68538883D01*
X144806625Y-68529200D01*
X153313047Y-68529200D01*
X153252711Y-68617505D01*
X153252711Y-68617505D01*
G37*
X153252711Y-68617505D02*
X153185379Y-68950000D01*
X153185379Y-70750000D01*
X153243826Y-71060618D01*
X153427401Y-71345902D01*
X153707505Y-71537289D01*
X153720800Y-71539981D01*
X153720800Y-73659995D01*
X153720799Y-73660000D01*
X153788594Y-74000823D01*
X153813606Y-74126568D01*
X153975975Y-74369571D01*
X154077895Y-74522105D01*
X156729315Y-77173525D01*
X156727012Y-77175823D01*
X156477085Y-77777712D01*
X156476516Y-78429428D01*
X156725392Y-79031753D01*
X157185823Y-79492988D01*
X157787712Y-79742915D01*
X158439428Y-79743484D01*
X159041753Y-79494608D01*
X159502988Y-79034177D01*
X159752915Y-78432288D01*
X159753484Y-77780572D01*
X159504608Y-77178247D01*
X159334200Y-77007541D01*
X159334200Y-76835005D01*
X159334201Y-76835000D01*
X159249429Y-76408826D01*
X159241394Y-76368432D01*
X158977105Y-75972895D01*
X156159200Y-73154990D01*
X156159200Y-73051625D01*
X156168883Y-73066117D01*
X161975800Y-78873034D01*
X161975800Y-80912099D01*
X161950309Y-80917169D01*
X161433437Y-81262531D01*
X161088075Y-81779403D01*
X160993153Y-82256610D01*
X160846943Y-82475428D01*
X160705800Y-83185000D01*
X160846943Y-83894572D01*
X160993153Y-84113390D01*
X161088075Y-84590597D01*
X161433437Y-85107469D01*
X161950309Y-85452831D01*
X162560000Y-85574106D01*
X163169691Y-85452831D01*
X163686563Y-85107469D01*
X163732179Y-85039200D01*
X163927821Y-85039200D01*
X163973437Y-85107469D01*
X164490309Y-85452831D01*
X165100000Y-85574106D01*
X165709691Y-85452831D01*
X166226563Y-85107469D01*
X166420800Y-84816772D01*
X166420800Y-88315800D01*
X157059471Y-88315800D01*
X156617202Y-88132154D01*
X155806356Y-88131447D01*
X155056961Y-88441090D01*
X154483105Y-89013945D01*
X154172154Y-89762798D01*
X154171447Y-90573644D01*
X154481090Y-91323039D01*
X155053945Y-91896895D01*
X155802798Y-92207846D01*
X156613644Y-92208553D01*
X157059813Y-92024200D01*
X167055800Y-92024200D01*
X167055800Y-96649991D01*
X149989990Y-113715800D01*
X145415005Y-113715800D01*
X145415000Y-113715799D01*
X145025841Y-113793208D01*
X144948432Y-113808606D01*
X144625463Y-114024407D01*
X144552895Y-114072895D01*
X141377895Y-117247895D01*
X141113606Y-117643432D01*
X141107469Y-117674287D01*
X141020799Y-118110000D01*
X141020800Y-118110005D01*
X141020800Y-121919995D01*
X141020799Y-121920000D01*
X141078304Y-122209095D01*
X140919200Y-122049990D01*
X140919200Y-118110005D01*
X140919201Y-118110000D01*
X140832531Y-117674287D01*
X140826394Y-117643432D01*
X140562105Y-117247895D01*
X140562102Y-117247893D01*
X132295562Y-108981352D01*
X135948349Y-108981352D01*
X135949254Y-109463197D01*
X136131907Y-109904160D01*
X136377439Y-109930719D01*
X137088158Y-109220000D01*
X136377439Y-108509281D01*
X136131907Y-108535840D01*
X135948349Y-108981352D01*
X132295562Y-108981352D01*
X131751649Y-108437439D01*
X136449281Y-108437439D01*
X137160000Y-109148158D01*
X137870719Y-108437439D01*
X137844160Y-108191907D01*
X137398648Y-108008349D01*
X136916803Y-108009254D01*
X136475840Y-108191907D01*
X136449281Y-108437439D01*
X131751649Y-108437439D01*
X129723252Y-106409042D01*
X133692800Y-106409042D01*
X133755928Y-106685720D01*
X134309898Y-106919278D01*
X134911080Y-106923062D01*
X135467947Y-106696496D01*
X135484072Y-106685720D01*
X135547200Y-106409042D01*
X134620000Y-105481842D01*
X133692800Y-106409042D01*
X129723252Y-106409042D01*
X129015290Y-105701080D01*
X133106938Y-105701080D01*
X133333504Y-106257947D01*
X133344280Y-106274072D01*
X133620958Y-106337200D01*
X134548158Y-105410000D01*
X133620958Y-104482800D01*
X133344280Y-104545928D01*
X133110722Y-105099898D01*
X133106938Y-105701080D01*
X129015290Y-105701080D01*
X127227105Y-103912895D01*
X127168122Y-103873484D01*
X126831568Y-103648606D01*
X126710922Y-103624608D01*
X126365000Y-103555799D01*
X126364995Y-103555800D01*
X123060009Y-103555800D01*
X122891480Y-103387270D01*
X122944159Y-103376792D01*
X123021568Y-103361394D01*
X123417105Y-103097105D01*
X123910934Y-102603276D01*
X124149428Y-102603484D01*
X124751753Y-102354608D01*
X125212988Y-101894177D01*
X125462915Y-101292288D01*
X125463200Y-100965000D01*
X129774706Y-100965000D01*
X129899407Y-101591912D01*
X130254524Y-102123382D01*
X130785994Y-102478499D01*
X131412906Y-102603200D01*
X131477094Y-102603200D01*
X132104006Y-102478499D01*
X132544455Y-102184200D01*
X133065911Y-102184200D01*
X133074407Y-102226912D01*
X133429524Y-102758382D01*
X133960994Y-103113499D01*
X134520602Y-103224812D01*
X135390706Y-104094916D01*
X134930102Y-103900722D01*
X134328920Y-103896938D01*
X133772053Y-104123504D01*
X133755928Y-104134280D01*
X133692800Y-104410958D01*
X134620000Y-105338158D01*
X134634143Y-105324016D01*
X134705985Y-105395858D01*
X134691842Y-105410000D01*
X135619042Y-106337200D01*
X135895720Y-106274072D01*
X136129278Y-105720102D01*
X136133062Y-105118920D01*
X135939869Y-104644079D01*
X138480800Y-107185010D01*
X138480800Y-108287854D01*
X138412711Y-108387505D01*
X138345379Y-108720000D01*
X138345379Y-108915562D01*
X138188093Y-108535840D01*
X137942561Y-108509281D01*
X137231842Y-109220000D01*
X137245985Y-109234143D01*
X137174143Y-109305985D01*
X137160000Y-109291842D01*
X136449281Y-110002561D01*
X136475840Y-110248093D01*
X136921352Y-110431651D01*
X137091851Y-110431331D01*
X137091568Y-110755017D01*
X137210800Y-111043580D01*
X137210800Y-111124995D01*
X137210799Y-111125000D01*
X137244303Y-111293432D01*
X137303606Y-111591568D01*
X137496068Y-111879608D01*
X137567895Y-111987105D01*
X138202893Y-112622102D01*
X138202895Y-112622105D01*
X138467185Y-112798698D01*
X138598433Y-112886395D01*
X139065000Y-112979201D01*
X139065005Y-112979200D01*
X146049995Y-112979200D01*
X146050000Y-112979201D01*
X146439159Y-112901792D01*
X146516568Y-112886394D01*
X146912105Y-112622105D01*
X148040934Y-111493276D01*
X148279428Y-111493484D01*
X148881753Y-111244608D01*
X149342988Y-110784177D01*
X149592915Y-110182288D01*
X149593484Y-109530572D01*
X149344608Y-108928247D01*
X148884177Y-108467012D01*
X148282288Y-108217085D01*
X147630572Y-108216516D01*
X147028247Y-108465392D01*
X146567012Y-108925823D01*
X146317085Y-109527712D01*
X146316874Y-109768916D01*
X145544990Y-110540800D01*
X140379743Y-110540800D01*
X140510618Y-110516174D01*
X140795902Y-110332599D01*
X140987289Y-110052495D01*
X141054621Y-109720000D01*
X141054621Y-108720000D01*
X140996174Y-108409382D01*
X140919200Y-108289761D01*
X140919200Y-106680005D01*
X140919201Y-106680000D01*
X140838065Y-106272104D01*
X140832345Y-106243351D01*
X141049524Y-106568382D01*
X141580994Y-106923499D01*
X142207906Y-107048200D01*
X142272094Y-107048200D01*
X142899006Y-106923499D01*
X143430476Y-106568382D01*
X143785593Y-106036912D01*
X143896906Y-105477303D01*
X148324588Y-101049621D01*
X148455000Y-101049621D01*
X148765618Y-100991174D01*
X149050902Y-100807599D01*
X149242289Y-100527495D01*
X149309621Y-100195000D01*
X149309621Y-99195000D01*
X149251174Y-98884382D01*
X149067599Y-98599098D01*
X148787495Y-98407711D01*
X148545888Y-98358784D01*
X148712039Y-98290132D01*
X149088809Y-97914019D01*
X149292967Y-97422352D01*
X149293432Y-96889983D01*
X149090132Y-96397961D01*
X148714019Y-96021191D01*
X148425666Y-95901456D01*
X148182105Y-95657895D01*
X148157570Y-95641501D01*
X147786568Y-95393606D01*
X147709159Y-95378208D01*
X147320000Y-95300799D01*
X147319995Y-95300800D01*
X144145005Y-95300800D01*
X144145000Y-95300799D01*
X143678433Y-95393605D01*
X143547185Y-95481302D01*
X143282895Y-95657895D01*
X143282893Y-95657898D01*
X143171476Y-95769315D01*
X143169177Y-95767012D01*
X142567288Y-95517085D01*
X141915572Y-95516516D01*
X141313247Y-95765392D01*
X140852012Y-96225823D01*
X140602085Y-96827712D01*
X140601516Y-97479428D01*
X140850392Y-98081753D01*
X141310823Y-98542988D01*
X141912712Y-98792915D01*
X142564428Y-98793484D01*
X143166753Y-98544608D01*
X143337459Y-98374200D01*
X143509995Y-98374200D01*
X143510000Y-98374201D01*
X143799095Y-98316696D01*
X142154066Y-99961724D01*
X141915572Y-99961516D01*
X141313247Y-100210392D01*
X140852012Y-100670823D01*
X140602085Y-101272712D01*
X140601516Y-101924428D01*
X140850392Y-102526753D01*
X141310823Y-102987988D01*
X141912712Y-103237915D01*
X142564428Y-103238484D01*
X142773829Y-103151961D01*
X142140603Y-103785188D01*
X141580994Y-103896501D01*
X141049524Y-104251618D01*
X140694407Y-104783088D01*
X140569706Y-105410000D01*
X140688456Y-106006992D01*
X140562105Y-105817895D01*
X136276906Y-101532696D01*
X136165593Y-100973088D01*
X135810476Y-100441618D01*
X135279006Y-100086501D01*
X134652094Y-99961800D01*
X134635941Y-99961800D01*
X134451568Y-99838606D01*
X134374159Y-99823208D01*
X133985000Y-99745799D01*
X133984995Y-99745800D01*
X132544455Y-99745800D01*
X132104006Y-99451501D01*
X131477094Y-99326800D01*
X131412906Y-99326800D01*
X130785994Y-99451501D01*
X130254524Y-99806618D01*
X129899407Y-100338088D01*
X129774706Y-100965000D01*
X125463200Y-100965000D01*
X125463484Y-100640572D01*
X125214608Y-100038247D01*
X124754177Y-99577012D01*
X124152288Y-99327085D01*
X123500572Y-99326516D01*
X122898247Y-99575392D01*
X122437012Y-100035823D01*
X122187085Y-100637712D01*
X122186874Y-100878916D01*
X122049990Y-101015800D01*
X121112671Y-101015800D01*
X120944177Y-100847012D01*
X120918826Y-100836485D01*
X120942200Y-100734042D01*
X120015000Y-99806842D01*
X119087800Y-100734042D01*
X119111056Y-100835968D01*
X119088247Y-100845392D01*
X118694200Y-101238752D01*
X118694200Y-100498633D01*
X118728504Y-100582947D01*
X118739280Y-100599072D01*
X119015958Y-100662200D01*
X119943158Y-99735000D01*
X120086842Y-99735000D01*
X121014042Y-100662200D01*
X121290720Y-100599072D01*
X121524278Y-100045102D01*
X121528062Y-99443920D01*
X121301496Y-98887053D01*
X121290720Y-98870928D01*
X121014042Y-98807800D01*
X120086842Y-99735000D01*
X119943158Y-99735000D01*
X119015958Y-98807800D01*
X118739280Y-98870928D01*
X118694200Y-98977852D01*
X118694200Y-98735958D01*
X119087800Y-98735958D01*
X120015000Y-99663158D01*
X120942200Y-98735958D01*
X120879072Y-98459280D01*
X120325102Y-98225722D01*
X119723920Y-98221938D01*
X119167053Y-98448504D01*
X119150928Y-98459280D01*
X119087800Y-98735958D01*
X118694200Y-98735958D01*
X118694200Y-94304042D01*
X119087800Y-94304042D01*
X119150928Y-94580720D01*
X119704898Y-94814278D01*
X120306080Y-94818062D01*
X120862947Y-94591496D01*
X120879072Y-94580720D01*
X120942200Y-94304042D01*
X120015000Y-93376842D01*
X119087800Y-94304042D01*
X118694200Y-94304042D01*
X118694200Y-94068633D01*
X118728504Y-94152947D01*
X118739280Y-94169072D01*
X119015958Y-94232200D01*
X119943158Y-93305000D01*
X120086842Y-93305000D01*
X121014042Y-94232200D01*
X121290720Y-94169072D01*
X121524278Y-93615102D01*
X121528062Y-93013920D01*
X121301496Y-92457053D01*
X121290720Y-92440928D01*
X121014042Y-92377800D01*
X120086842Y-93305000D01*
X119943158Y-93305000D01*
X119015958Y-92377800D01*
X118739280Y-92440928D01*
X118694200Y-92547852D01*
X118694200Y-91800681D01*
X119085823Y-92192988D01*
X119111174Y-92203515D01*
X119087800Y-92305958D01*
X120015000Y-93233158D01*
X120942200Y-92305958D01*
X120918944Y-92204032D01*
X120941753Y-92194608D01*
X121112459Y-92024200D01*
X121980904Y-92024200D01*
X121970799Y-92075000D01*
X121970800Y-92075005D01*
X121970800Y-96519995D01*
X121970799Y-96520000D01*
X122043930Y-96887648D01*
X122063606Y-96986568D01*
X122186785Y-97170919D01*
X122186516Y-97479428D01*
X122435392Y-98081753D01*
X122895823Y-98542988D01*
X123497712Y-98792915D01*
X124149428Y-98793484D01*
X124751753Y-98544608D01*
X125212988Y-98084177D01*
X125462915Y-97482288D01*
X125463484Y-96830572D01*
X125214608Y-96228247D01*
X124754177Y-95767012D01*
X124409200Y-95623765D01*
X124409200Y-93874212D01*
X124624334Y-93963543D01*
X128677893Y-98017102D01*
X128677895Y-98017105D01*
X129073432Y-98281394D01*
X129540000Y-98374200D01*
X130345545Y-98374200D01*
X130785994Y-98668499D01*
X131412906Y-98793200D01*
X131477094Y-98793200D01*
X132104006Y-98668499D01*
X132544455Y-98374200D01*
X133520545Y-98374200D01*
X133960994Y-98668499D01*
X134587906Y-98793200D01*
X134652094Y-98793200D01*
X135279006Y-98668499D01*
X135810476Y-98313382D01*
X136165593Y-97781912D01*
X136290294Y-97155000D01*
X136165593Y-96528088D01*
X135810476Y-95996618D01*
X135279006Y-95641501D01*
X134652094Y-95516800D01*
X134587906Y-95516800D01*
X133960994Y-95641501D01*
X133520545Y-95935800D01*
X132544455Y-95935800D01*
X132104006Y-95641501D01*
X131477094Y-95516800D01*
X131412906Y-95516800D01*
X130785994Y-95641501D01*
X130345545Y-95935800D01*
X130045009Y-95935800D01*
X128673409Y-94564200D01*
X131444995Y-94564200D01*
X131445000Y-94564201D01*
X131834159Y-94486792D01*
X131911568Y-94471394D01*
X132307105Y-94207105D01*
X132550810Y-93963400D01*
X132837039Y-93845132D01*
X133213809Y-93469019D01*
X133417967Y-92977352D01*
X133418127Y-92794621D01*
X133850000Y-92794621D01*
X134160618Y-92736174D01*
X134280239Y-92659200D01*
X138429995Y-92659200D01*
X138430000Y-92659201D01*
X138859290Y-92573809D01*
X138896568Y-92566394D01*
X139292105Y-92302105D01*
X139292106Y-92302104D01*
X143737102Y-87857107D01*
X143737105Y-87857105D01*
X144001394Y-87461568D01*
X144094200Y-86995000D01*
X144094200Y-86824455D01*
X144161293Y-86724042D01*
X145757800Y-86724042D01*
X145820928Y-87000720D01*
X146374898Y-87234278D01*
X146976080Y-87238062D01*
X147532947Y-87011496D01*
X147549072Y-87000720D01*
X147612200Y-86724042D01*
X146685000Y-85796842D01*
X145757800Y-86724042D01*
X144161293Y-86724042D01*
X144388499Y-86384006D01*
X144461684Y-86016080D01*
X145171938Y-86016080D01*
X145398504Y-86572947D01*
X145409280Y-86589072D01*
X145685958Y-86652200D01*
X146613158Y-85725000D01*
X146756842Y-85725000D01*
X147684042Y-86652200D01*
X147960720Y-86589072D01*
X148194278Y-86035102D01*
X148194328Y-86027097D01*
X148912371Y-86027097D01*
X149148449Y-86609747D01*
X149589527Y-87057702D01*
X150168455Y-87302766D01*
X150192904Y-87307625D01*
X150444200Y-87157500D01*
X150444200Y-85775800D01*
X150545800Y-85775800D01*
X150545800Y-87157500D01*
X150797096Y-87307625D01*
X150821545Y-87302766D01*
X151400473Y-87057702D01*
X151841551Y-86609747D01*
X152077629Y-86027097D01*
X152068285Y-86011445D01*
X152821192Y-86011445D01*
X153043758Y-86557469D01*
X153458336Y-86976757D01*
X154001811Y-87205477D01*
X154018555Y-87208804D01*
X154254200Y-87057432D01*
X154254200Y-85775800D01*
X154355800Y-85775800D01*
X154355800Y-87057432D01*
X154591445Y-87208804D01*
X154608189Y-87205477D01*
X155151664Y-86976757D01*
X155566242Y-86557469D01*
X155788808Y-86011445D01*
X155637550Y-85775800D01*
X154355800Y-85775800D01*
X154254200Y-85775800D01*
X152972450Y-85775800D01*
X152821192Y-86011445D01*
X152068285Y-86011445D01*
X151927603Y-85775800D01*
X150545800Y-85775800D01*
X150444200Y-85775800D01*
X149062397Y-85775800D01*
X148912371Y-86027097D01*
X148194328Y-86027097D01*
X148198062Y-85433920D01*
X148193580Y-85422903D01*
X148912371Y-85422903D01*
X149062397Y-85674200D01*
X150444200Y-85674200D01*
X150444200Y-84292500D01*
X150545800Y-84292500D01*
X150545800Y-85674200D01*
X151927603Y-85674200D01*
X152068284Y-85438555D01*
X152821192Y-85438555D01*
X152972450Y-85674200D01*
X154254200Y-85674200D01*
X154254200Y-84392568D01*
X154355800Y-84392568D01*
X154355800Y-85674200D01*
X155637550Y-85674200D01*
X155788808Y-85438555D01*
X155566242Y-84892531D01*
X155151664Y-84473243D01*
X154608189Y-84244523D01*
X154591445Y-84241196D01*
X154355800Y-84392568D01*
X154254200Y-84392568D01*
X154018555Y-84241196D01*
X154001811Y-84244523D01*
X153458336Y-84473243D01*
X153043758Y-84892531D01*
X152821192Y-85438555D01*
X152068284Y-85438555D01*
X152077629Y-85422903D01*
X151841551Y-84840253D01*
X151400473Y-84392298D01*
X150821545Y-84147234D01*
X150797096Y-84142375D01*
X150545800Y-84292500D01*
X150444200Y-84292500D01*
X150192904Y-84142375D01*
X150168455Y-84147234D01*
X149589527Y-84392298D01*
X149148449Y-84840253D01*
X148912371Y-85422903D01*
X148193580Y-85422903D01*
X147971496Y-84877053D01*
X147960720Y-84860928D01*
X147684042Y-84797800D01*
X146756842Y-85725000D01*
X146613158Y-85725000D01*
X145685958Y-84797800D01*
X145409280Y-84860928D01*
X145175722Y-85414898D01*
X145171938Y-86016080D01*
X144461684Y-86016080D01*
X144513200Y-85757094D01*
X144513200Y-85692906D01*
X144388499Y-85065994D01*
X144161294Y-84725958D01*
X145757800Y-84725958D01*
X146685000Y-85653158D01*
X147612200Y-84725958D01*
X147549072Y-84449280D01*
X146995102Y-84215722D01*
X146393920Y-84211938D01*
X145837053Y-84438504D01*
X145820928Y-84449280D01*
X145757800Y-84725958D01*
X144161294Y-84725958D01*
X144094200Y-84625545D01*
X144094200Y-84455005D01*
X144094201Y-84455000D01*
X144001394Y-83988433D01*
X144001394Y-83988432D01*
X143737105Y-83592895D01*
X143737102Y-83592893D01*
X141832105Y-81687895D01*
X141752800Y-81634905D01*
X141436568Y-81423606D01*
X141359159Y-81408208D01*
X140970000Y-81330799D01*
X140969995Y-81330800D01*
X140205009Y-81330800D01*
X138240145Y-79365935D01*
X138761811Y-79585477D01*
X138778555Y-79588804D01*
X139014200Y-79437432D01*
X139014200Y-78155800D01*
X139115800Y-78155800D01*
X139115800Y-79437432D01*
X139351445Y-79588804D01*
X139368189Y-79585477D01*
X139911664Y-79356757D01*
X140326242Y-78937469D01*
X140533325Y-78429428D01*
X141236516Y-78429428D01*
X141485392Y-79031753D01*
X141945823Y-79492988D01*
X142547712Y-79742915D01*
X143199428Y-79743484D01*
X143801753Y-79494608D01*
X143972459Y-79324200D01*
X145569606Y-79324200D01*
X146058088Y-79650593D01*
X146685000Y-79775294D01*
X147311912Y-79650593D01*
X147800394Y-79324200D01*
X148804348Y-79324200D01*
X148982401Y-79600902D01*
X149262505Y-79792289D01*
X149595000Y-79859621D01*
X151395000Y-79859621D01*
X151705618Y-79801174D01*
X151990902Y-79617599D01*
X152182289Y-79337495D01*
X152184981Y-79324200D01*
X153207329Y-79324200D01*
X153358169Y-79475303D01*
X153371068Y-79494608D01*
X153442895Y-79602105D01*
X156895800Y-83055009D01*
X156895800Y-84625545D01*
X156601501Y-85065994D01*
X156476800Y-85692906D01*
X156476800Y-85757094D01*
X156601501Y-86384006D01*
X156956618Y-86915476D01*
X157488088Y-87270593D01*
X158115000Y-87395294D01*
X158741912Y-87270593D01*
X159273382Y-86915476D01*
X159628499Y-86384006D01*
X159753200Y-85757094D01*
X159753200Y-85692906D01*
X159628499Y-85065994D01*
X159334200Y-84625545D01*
X159334200Y-82550005D01*
X159334201Y-82550000D01*
X159241394Y-82083433D01*
X159241394Y-82083432D01*
X158977105Y-81687895D01*
X158977102Y-81687893D01*
X155877950Y-78588740D01*
X155942915Y-78432288D01*
X155943484Y-77780572D01*
X155694608Y-77178247D01*
X155234177Y-76717012D01*
X154632288Y-76467085D01*
X153980572Y-76466516D01*
X153378247Y-76715392D01*
X153207541Y-76885800D01*
X152185652Y-76885800D01*
X152007599Y-76609098D01*
X151727495Y-76417711D01*
X151395000Y-76350379D01*
X149595000Y-76350379D01*
X149284382Y-76408826D01*
X148999098Y-76592401D01*
X148807711Y-76872505D01*
X148805019Y-76885800D01*
X147800394Y-76885800D01*
X147311912Y-76559407D01*
X146685000Y-76434706D01*
X146058088Y-76559407D01*
X145569606Y-76885800D01*
X143972671Y-76885800D01*
X143804177Y-76717012D01*
X143202288Y-76467085D01*
X142550572Y-76466516D01*
X141948247Y-76715392D01*
X141487012Y-77175823D01*
X141237085Y-77777712D01*
X141236516Y-78429428D01*
X140533325Y-78429428D01*
X140548808Y-78391445D01*
X140397550Y-78155800D01*
X139115800Y-78155800D01*
X139014200Y-78155800D01*
X137732450Y-78155800D01*
X137581192Y-78391445D01*
X137798308Y-78924098D01*
X137009621Y-78135411D01*
X137009621Y-77818555D01*
X137581192Y-77818555D01*
X137732450Y-78054200D01*
X139014200Y-78054200D01*
X139014200Y-76772568D01*
X139115800Y-76772568D01*
X139115800Y-78054200D01*
X140397550Y-78054200D01*
X140548808Y-77818555D01*
X140326242Y-77272531D01*
X139911664Y-76853243D01*
X139368189Y-76624523D01*
X139351445Y-76621196D01*
X139115800Y-76772568D01*
X139014200Y-76772568D01*
X138778555Y-76621196D01*
X138761811Y-76624523D01*
X138218336Y-76853243D01*
X137803758Y-77272531D01*
X137581192Y-77818555D01*
X137009621Y-77818555D01*
X137009621Y-77205000D01*
X136951174Y-76894382D01*
X136767599Y-76609098D01*
X136487495Y-76417711D01*
X136155000Y-76350379D01*
X134355000Y-76350379D01*
X134273494Y-76365716D01*
X134490009Y-76149200D01*
X137330545Y-76149200D01*
X137770994Y-76443499D01*
X138397906Y-76568200D01*
X138462094Y-76568200D01*
X139089006Y-76443499D01*
X139620476Y-76088382D01*
X139975593Y-75556912D01*
X140100294Y-74930000D01*
X139975593Y-74303088D01*
X139936245Y-74244200D01*
X143510000Y-74244200D01*
X144219572Y-74103057D01*
X144821117Y-73701117D01*
X145223057Y-73099572D01*
X145364200Y-72390000D01*
X145364200Y-69850000D01*
X145223057Y-69140428D01*
X144821117Y-68538883D01*
X144806625Y-68529200D01*
X153313047Y-68529200D01*
X153252711Y-68617505D01*
G36*
X194318088Y-86635593D02*
X194877697Y-86746906D01*
X197535800Y-89405009D01*
X197535800Y-90169995D01*
X197535799Y-90170000D01*
X197613208Y-90559159D01*
X197628606Y-90636568D01*
X197837103Y-90948606D01*
X197892895Y-91032105D01*
X200075800Y-93215009D01*
X200075800Y-94317854D01*
X200007711Y-94417505D01*
X199940379Y-94750000D01*
X199940379Y-94945562D01*
X199783093Y-94565840D01*
X199537561Y-94539281D01*
X198826842Y-95250000D01*
X198840985Y-95264143D01*
X198769143Y-95335985D01*
X198755000Y-95321842D01*
X198740858Y-95335985D01*
X198669016Y-95264143D01*
X198683158Y-95250000D01*
X197972439Y-94539281D01*
X197726907Y-94565840D01*
X197543349Y-95011352D01*
X197544248Y-95490038D01*
X196521649Y-94467439D01*
X198044281Y-94467439D01*
X198755000Y-95178158D01*
X199465719Y-94467439D01*
X199439160Y-94221907D01*
X198993648Y-94038349D01*
X198511803Y-94039254D01*
X198070840Y-94221907D01*
X198044281Y-94467439D01*
X196521649Y-94467439D01*
X194259200Y-92204990D01*
X194259200Y-86596245D01*
X194318088Y-86635593D01*
X194318088Y-86635593D01*
G37*
X194318088Y-86635593D02*
X194877697Y-86746906D01*
X197535800Y-89405009D01*
X197535800Y-90169995D01*
X197535799Y-90170000D01*
X197613208Y-90559159D01*
X197628606Y-90636568D01*
X197837103Y-90948606D01*
X197892895Y-91032105D01*
X200075800Y-93215009D01*
X200075800Y-94317854D01*
X200007711Y-94417505D01*
X199940379Y-94750000D01*
X199940379Y-94945562D01*
X199783093Y-94565840D01*
X199537561Y-94539281D01*
X198826842Y-95250000D01*
X198840985Y-95264143D01*
X198769143Y-95335985D01*
X198755000Y-95321842D01*
X198740858Y-95335985D01*
X198669016Y-95264143D01*
X198683158Y-95250000D01*
X197972439Y-94539281D01*
X197726907Y-94565840D01*
X197543349Y-95011352D01*
X197544248Y-95490038D01*
X196521649Y-94467439D01*
X198044281Y-94467439D01*
X198755000Y-95178158D01*
X199465719Y-94467439D01*
X199439160Y-94221907D01*
X198993648Y-94038349D01*
X198511803Y-94039254D01*
X198070840Y-94221907D01*
X198044281Y-94467439D01*
X196521649Y-94467439D01*
X194259200Y-92204990D01*
X194259200Y-86596245D01*
X194318088Y-86635593D01*
G36*
X133500379Y-77205000D02*
X133500379Y-79005000D01*
X133558826Y-79315618D01*
X133742401Y-79600902D01*
X134022505Y-79792289D01*
X134355000Y-79859621D01*
X135285411Y-79859621D01*
X138837893Y-83412102D01*
X138837895Y-83412105D01*
X139233432Y-83676394D01*
X139700000Y-83769200D01*
X140464990Y-83769200D01*
X141521832Y-84826041D01*
X141361501Y-85065994D01*
X141236800Y-85692906D01*
X141236800Y-85757094D01*
X141361501Y-86384006D01*
X141521832Y-86623959D01*
X137924990Y-90220800D01*
X134282146Y-90220800D01*
X134182495Y-90152711D01*
X133850000Y-90085379D01*
X133299200Y-90085379D01*
X133299200Y-89405010D01*
X135214928Y-87489282D01*
X135255000Y-87497253D01*
X135920180Y-87364940D01*
X136484093Y-86988146D01*
X136513457Y-86944200D01*
X137967329Y-86944200D01*
X138135823Y-87112988D01*
X138737712Y-87362915D01*
X139389428Y-87363484D01*
X139991753Y-87114608D01*
X140452988Y-86654177D01*
X140702915Y-86052288D01*
X140703484Y-85400572D01*
X140454608Y-84798247D01*
X139994177Y-84337012D01*
X139392288Y-84087085D01*
X138740572Y-84086516D01*
X138138247Y-84335392D01*
X137967541Y-84505800D01*
X136513457Y-84505800D01*
X136484093Y-84461854D01*
X135920180Y-84085060D01*
X135255000Y-83952747D01*
X134589820Y-84085060D01*
X134025907Y-84461854D01*
X133649113Y-85025767D01*
X133516800Y-85690947D01*
X133516800Y-85738990D01*
X131217895Y-88037895D01*
X130953606Y-88433432D01*
X130941935Y-88492104D01*
X130860799Y-88900000D01*
X130860800Y-88900005D01*
X130860800Y-90228702D01*
X130566803Y-90229254D01*
X130125840Y-90411907D01*
X130099281Y-90657439D01*
X130810000Y-91368158D01*
X130824143Y-91354016D01*
X130860800Y-91390673D01*
X130860800Y-91489327D01*
X130824143Y-91525985D01*
X130810000Y-91511842D01*
X130795858Y-91525985D01*
X130724016Y-91454143D01*
X130738158Y-91440000D01*
X130027439Y-90729281D01*
X129781907Y-90755840D01*
X129598349Y-91201352D01*
X129599254Y-91683197D01*
X129781907Y-92124160D01*
X129797068Y-92125800D01*
X128775009Y-92125800D01*
X127719621Y-91070411D01*
X127719621Y-90940000D01*
X127661174Y-90629382D01*
X127617065Y-90560835D01*
X127862105Y-90397105D01*
X131037105Y-87222105D01*
X131108932Y-87114608D01*
X131301394Y-86826568D01*
X131316792Y-86749159D01*
X131394201Y-86360000D01*
X131394200Y-86359995D01*
X131394200Y-79245010D01*
X133517181Y-77122028D01*
X133500379Y-77205000D01*
X133500379Y-77205000D01*
G37*
X133500379Y-77205000D02*
X133500379Y-79005000D01*
X133558826Y-79315618D01*
X133742401Y-79600902D01*
X134022505Y-79792289D01*
X134355000Y-79859621D01*
X135285411Y-79859621D01*
X138837893Y-83412102D01*
X138837895Y-83412105D01*
X139233432Y-83676394D01*
X139700000Y-83769200D01*
X140464990Y-83769200D01*
X141521832Y-84826041D01*
X141361501Y-85065994D01*
X141236800Y-85692906D01*
X141236800Y-85757094D01*
X141361501Y-86384006D01*
X141521832Y-86623959D01*
X137924990Y-90220800D01*
X134282146Y-90220800D01*
X134182495Y-90152711D01*
X133850000Y-90085379D01*
X133299200Y-90085379D01*
X133299200Y-89405010D01*
X135214928Y-87489282D01*
X135255000Y-87497253D01*
X135920180Y-87364940D01*
X136484093Y-86988146D01*
X136513457Y-86944200D01*
X137967329Y-86944200D01*
X138135823Y-87112988D01*
X138737712Y-87362915D01*
X139389428Y-87363484D01*
X139991753Y-87114608D01*
X140452988Y-86654177D01*
X140702915Y-86052288D01*
X140703484Y-85400572D01*
X140454608Y-84798247D01*
X139994177Y-84337012D01*
X139392288Y-84087085D01*
X138740572Y-84086516D01*
X138138247Y-84335392D01*
X137967541Y-84505800D01*
X136513457Y-84505800D01*
X136484093Y-84461854D01*
X135920180Y-84085060D01*
X135255000Y-83952747D01*
X134589820Y-84085060D01*
X134025907Y-84461854D01*
X133649113Y-85025767D01*
X133516800Y-85690947D01*
X133516800Y-85738990D01*
X131217895Y-88037895D01*
X130953606Y-88433432D01*
X130941935Y-88492104D01*
X130860799Y-88900000D01*
X130860800Y-88900005D01*
X130860800Y-90228702D01*
X130566803Y-90229254D01*
X130125840Y-90411907D01*
X130099281Y-90657439D01*
X130810000Y-91368158D01*
X130824143Y-91354016D01*
X130860800Y-91390673D01*
X130860800Y-91489327D01*
X130824143Y-91525985D01*
X130810000Y-91511842D01*
X130795858Y-91525985D01*
X130724016Y-91454143D01*
X130738158Y-91440000D01*
X130027439Y-90729281D01*
X129781907Y-90755840D01*
X129598349Y-91201352D01*
X129599254Y-91683197D01*
X129781907Y-92124160D01*
X129797068Y-92125800D01*
X128775009Y-92125800D01*
X127719621Y-91070411D01*
X127719621Y-90940000D01*
X127661174Y-90629382D01*
X127617065Y-90560835D01*
X127862105Y-90397105D01*
X131037105Y-87222105D01*
X131108932Y-87114608D01*
X131301394Y-86826568D01*
X131316792Y-86749159D01*
X131394201Y-86360000D01*
X131394200Y-86359995D01*
X131394200Y-79245010D01*
X133517181Y-77122028D01*
X133500379Y-77205000D01*
M02*
