M48
;DRILL file {KiCad 4.0.4+e1-6308~48~ubuntu16.04.1-stable} date Sun Dec 18 11:50:44 2016
;FORMAT={-:-/ absolute / metric / decimal}
FMAT,2
METRIC,TZ
T1C0.701
T2C0.711
T3C0.800
T4C0.800
T5C0.813
T6C0.998
T7C1.001
T8C1.016
T9C1.199
T10C1.300
T11C1.349
%
G90
G05
M71
T1
X228.599Y-44.199
X228.599Y-46.739
X238.759Y-44.199
X238.759Y-46.739
T2
X205.232Y-74.676
X206.248Y-123.444
X211.328Y-118.364
X214.376Y-116.84
X220.98Y-89.916
X225.044Y-44.196
X225.552Y-103.124
X226.06Y-39.624
X228.092Y-25.908
X232.156Y-67.056
X232.664Y-76.2
X236.728Y-99.568
X244.348Y-64.008
X246.38Y-118.872
X246.888Y-64.008
X248.92Y-81.788
X248.92Y-88.392
X249.428Y-73.152
X249.936Y-111.252
X257.048Y-118.872
X258.572Y-55.88
X260.096Y-111.76
X262.128Y-87.376
X262.128Y-97.536
X262.128Y-100.076
X262.128Y-102.616
X262.636Y-111.76
X263.144Y-61.976
X265.684Y-64.008
X268.732Y-94.996
X268.732Y-100.076
X269.748Y-61.468
X270.256Y-97.536
X270.256Y-102.616
T3
X212.852Y-112.776
X215.392Y-112.776
X217.424Y-104.14
X217.932Y-112.776
X219.456Y-122.428
X219.456Y-129.928
X220.472Y-48.26
X220.472Y-50.8
X220.472Y-53.34
X224.028Y-52.832
X228.092Y-29.972
X228.092Y-32.512
X228.092Y-35.052
X228.092Y-37.592
X235.712Y-29.972
X235.712Y-32.512
X235.712Y-35.052
X235.712Y-37.592
X238.252Y-122.428
X238.252Y-129.928
X246.38Y-28.996
X246.38Y-31.496
X246.38Y-88.392
X248.92Y-94.996
X248.92Y-97.536
X251.46Y-125.984
X251.46Y-151.384
X251.968Y-74.676
X251.968Y-77.216
X251.968Y-79.756
X251.968Y-82.296
X251.968Y-84.836
X251.968Y-87.376
X251.968Y-89.916
X251.968Y-92.456
X251.968Y-94.996
X251.968Y-97.536
X251.968Y-100.076
X251.968Y-102.616
X251.968Y-105.156
X251.968Y-107.696
X254.Y-50.84
X254.Y-53.34
X258.572Y-53.34
X259.588Y-74.676
X259.588Y-77.216
X259.588Y-79.756
X259.588Y-82.296
X259.588Y-84.836
X259.588Y-87.376
X259.588Y-89.916
X259.588Y-92.456
X259.588Y-94.996
X259.588Y-97.536
X259.588Y-100.076
X259.588Y-102.616
X259.588Y-105.156
X259.588Y-107.696
X259.588Y-125.984
X259.588Y-151.384
X260.096Y-36.068
X263.652Y-89.916
X266.192Y-125.984
X266.192Y-128.484
X266.7Y-89.916
X267.208Y-137.668
X267.208Y-140.168
X269.24Y-80.264
X270.256Y-84.836
X270.256Y-87.376
X270.256Y-89.916
X271.78Y-137.668
T4
X217.424Y-106.64
X224.028Y-55.332
X243.88Y-88.392
X248.92Y-92.496
X248.92Y-100.036
X258.572Y-50.84
X262.596Y-36.068
X263.652Y-92.416
X266.7Y-92.416
X269.24Y-82.764
X271.78Y-140.168
T5
X231.648Y-24.892
X234.188Y-24.892
X235.712Y-77.216
X235.712Y-79.756
X235.712Y-82.296
X236.728Y-24.892
X256.032Y-27.465
X256.032Y-29.464
X258.572Y-27.465
X258.572Y-29.464
X265.684Y-81.28
X265.684Y-83.82
X265.684Y-86.36
T6
X213.868Y-37.338
X213.868Y-39.878
X214.884Y-96.266
X214.884Y-98.806
T7
X205.232Y-59.436
X205.232Y-67.056
X205.232Y-70.104
X205.74Y-104.648
X205.74Y-112.268
X208.28Y-34.036
X208.28Y-36.576
X208.28Y-39.116
X208.28Y-49.276
X208.28Y-51.816
X208.28Y-54.356
X208.28Y-79.756
X208.28Y-82.296
X208.28Y-84.836
X208.28Y-89.408
X208.28Y-94.996
X208.28Y-97.536
X208.28Y-100.076
X209.804Y-104.648
X209.804Y-112.268
X212.852Y-34.036
X212.852Y-43.18
X212.852Y-70.104
X213.36Y-101.6
X213.36Y-109.22
X215.9Y-89.408
X216.408Y-85.344
X216.916Y-58.928
X216.916Y-78.928
X220.472Y-34.036
X220.472Y-43.18
X220.472Y-95.504
X220.472Y-103.124
X220.472Y-105.664
X220.472Y-113.284
X222.504Y-58.928
X222.504Y-78.928
X223.52Y-34.036
X223.52Y-41.656
X224.028Y-85.344
X225.044Y-23.876
X225.044Y-31.496
X227.076Y-49.784
X228.092Y-58.928
X228.092Y-78.928
X229.616Y-41.656
X229.616Y-52.832
X229.616Y-55.88
X234.696Y-49.784
X236.728Y-102.108
X236.728Y-109.728
X237.236Y-41.656
X237.236Y-52.832
X237.236Y-55.88
X240.284Y-37.592
X241.3Y-24.892
X241.3Y-32.512
X241.808Y-70.612
X242.824Y-37.592
X249.428Y-70.612
X250.952Y-33.528
X250.952Y-41.148
X254.Y-40.132
X254.Y-47.752
X263.652Y-114.808
X263.652Y-122.428
X264.668Y-77.216
X266.7Y-114.808
X266.7Y-122.428
X269.748Y-114.808
X269.748Y-122.428
X271.272Y-128.016
X271.272Y-130.556
X271.272Y-133.096
X271.78Y-53.34
X271.78Y-65.288
X271.78Y-72.888
X272.288Y-77.216
X272.796Y-114.808
X272.796Y-122.428
X274.32Y-40.132
X274.32Y-47.752
X274.32Y-53.34
X274.32Y-80.693
X274.32Y-90.853
T8
X240.284Y-74.676
X240.284Y-77.216
X240.284Y-79.756
X240.284Y-82.296
X240.284Y-84.836
X240.284Y-87.376
X240.284Y-89.916
X240.284Y-92.456
X240.284Y-94.996
X240.284Y-97.536
X240.284Y-100.076
X240.284Y-102.616
X240.284Y-105.156
X240.284Y-107.696
X240.284Y-110.236
X240.284Y-112.776
X241.808Y-67.056
X244.348Y-67.056
X246.38Y-35.56
X246.888Y-67.056
X249.428Y-67.056
X251.968Y-113.284
X251.968Y-115.824
X254.508Y-113.284
X254.508Y-115.824
X257.048Y-113.284
X257.048Y-115.824
X263.144Y-52.324
X263.144Y-54.864
X264.16Y-106.172
X264.16Y-108.712
X265.684Y-52.324
X265.684Y-54.864
X266.7Y-106.172
X266.7Y-108.712
X269.24Y-106.172
X269.24Y-108.712
X271.78Y-106.172
X271.78Y-108.712
X273.304Y-94.996
X273.304Y-97.536
X273.304Y-100.076
X273.304Y-102.616
X275.844Y-94.996
X275.844Y-97.536
X275.844Y-100.076
X275.844Y-102.616
T9
X244.856Y-93.571
X244.856Y-98.453
X269.748Y-42.263
X269.748Y-47.145
T10
X206.756Y-134.112
X206.756Y-139.192
X251.303Y-24.765
X263.301Y-24.765
T11
X223.99Y-139.192
X223.99Y-147.828
X226.53Y-136.652
X226.53Y-141.732
X226.53Y-145.288
X226.53Y-150.368
X229.07Y-139.192
X229.07Y-147.828
X239.309Y-139.192
X239.309Y-147.828
X241.849Y-136.652
X241.849Y-141.732
X241.849Y-145.288
X241.849Y-150.368
X244.389Y-139.192
X244.389Y-147.828
T0
M30
