G04 #@! TF.GenerationSoftware,KiCad,Pcbnew,(5.0.0)*
G04 #@! TF.CreationDate,2019-11-15T18:54:58-03:00*
G04 #@! TF.ProjectId,driver_alto,6472697665725F616C746F2E6B696361,rev?*
G04 #@! TF.SameCoordinates,Original*
G04 #@! TF.FileFunction,Copper,L2,Bot,Signal*
G04 #@! TF.FilePolarity,Positive*
%FSLAX46Y46*%
G04 Gerber Fmt 4.6, Leading zero omitted, Abs format (unit mm)*
G04 Created by KiCad (PCBNEW (5.0.0)) date 11/15/19 18:54:58*
%MOMM*%
%LPD*%
G01*
G04 APERTURE LIST*
G04 #@! TA.AperFunction,NonConductor*
%ADD10C,0.300000*%
G04 #@! TD*
G04 #@! TA.AperFunction,ComponentPad*
%ADD11R,1.600000X1.600000*%
G04 #@! TD*
G04 #@! TA.AperFunction,ComponentPad*
%ADD12O,1.600000X1.600000*%
G04 #@! TD*
G04 #@! TA.AperFunction,ComponentPad*
%ADD13C,2.000000*%
G04 #@! TD*
G04 #@! TA.AperFunction,ComponentPad*
%ADD14R,2.000000X2.000000*%
G04 #@! TD*
G04 #@! TA.AperFunction,Conductor*
%ADD15C,0.050000*%
G04 #@! TD*
G04 #@! TA.AperFunction,SMDPad,CuDef*
%ADD16C,0.950000*%
G04 #@! TD*
G04 #@! TA.AperFunction,ComponentPad*
%ADD17C,2.400000*%
G04 #@! TD*
G04 #@! TA.AperFunction,ComponentPad*
%ADD18R,2.400000X2.400000*%
G04 #@! TD*
G04 #@! TA.AperFunction,ComponentPad*
%ADD19C,1.400000*%
G04 #@! TD*
G04 #@! TA.AperFunction,ComponentPad*
%ADD20R,1.400000X1.400000*%
G04 #@! TD*
G04 #@! TA.AperFunction,ComponentPad*
%ADD21R,1.905000X2.000000*%
G04 #@! TD*
G04 #@! TA.AperFunction,ComponentPad*
%ADD22O,1.905000X2.000000*%
G04 #@! TD*
G04 #@! TA.AperFunction,ViaPad*
%ADD23C,2.200000*%
G04 #@! TD*
G04 #@! TA.AperFunction,Conductor*
%ADD24C,1.000000*%
G04 #@! TD*
G04 #@! TA.AperFunction,Conductor*
%ADD25C,1.500000*%
G04 #@! TD*
G04 APERTURE END LIST*
D10*
X119071428Y-49000000D02*
X118357142Y-49000000D01*
X119214285Y-49428571D02*
X118714285Y-47928571D01*
X118214285Y-49428571D01*
X116857142Y-49428571D02*
X117357142Y-48714285D01*
X117714285Y-49428571D02*
X117714285Y-47928571D01*
X117142857Y-47928571D01*
X117000000Y-48000000D01*
X116928571Y-48071428D01*
X116857142Y-48214285D01*
X116857142Y-48428571D01*
X116928571Y-48571428D01*
X117000000Y-48642857D01*
X117142857Y-48714285D01*
X117714285Y-48714285D01*
X116214285Y-48857142D02*
X115071428Y-48857142D01*
X113571428Y-49428571D02*
X114428571Y-49428571D01*
X114000000Y-49428571D02*
X114000000Y-47928571D01*
X114142857Y-48142857D01*
X114285714Y-48285714D01*
X114428571Y-48357142D01*
X112857142Y-49428571D02*
X112571428Y-49428571D01*
X112428571Y-49357142D01*
X112357142Y-49285714D01*
X112214285Y-49071428D01*
X112142857Y-48785714D01*
X112142857Y-48214285D01*
X112214285Y-48071428D01*
X112285714Y-48000000D01*
X112428571Y-47928571D01*
X112714285Y-47928571D01*
X112857142Y-48000000D01*
X112928571Y-48071428D01*
X113000000Y-48214285D01*
X113000000Y-48571428D01*
X112928571Y-48714285D01*
X112857142Y-48785714D01*
X112714285Y-48857142D01*
X112428571Y-48857142D01*
X112285714Y-48785714D01*
X112214285Y-48714285D01*
X112142857Y-48571428D01*
X110714285Y-49428571D02*
X111571428Y-49428571D01*
X111142857Y-49428571D02*
X111142857Y-47928571D01*
X111285714Y-48142857D01*
X111428571Y-48285714D01*
X111571428Y-48357142D01*
X109285714Y-49428571D02*
X110142857Y-49428571D01*
X109714285Y-49428571D02*
X109714285Y-47928571D01*
X109857142Y-48142857D01*
X110000000Y-48285714D01*
X110142857Y-48357142D01*
X107857142Y-49428571D02*
X108714285Y-49428571D01*
X108285714Y-49428571D02*
X108285714Y-47928571D01*
X108428571Y-48142857D01*
X108571428Y-48285714D01*
X108714285Y-48357142D01*
X106500000Y-47928571D02*
X107214285Y-47928571D01*
X107285714Y-48642857D01*
X107214285Y-48571428D01*
X107071428Y-48500000D01*
X106714285Y-48500000D01*
X106571428Y-48571428D01*
X106500000Y-48642857D01*
X106428571Y-48785714D01*
X106428571Y-49142857D01*
X106500000Y-49285714D01*
X106571428Y-49357142D01*
X106714285Y-49428571D01*
X107071428Y-49428571D01*
X107214285Y-49357142D01*
X107285714Y-49285714D01*
D11*
G04 #@! TO.P,D2,1*
G04 #@! TO.N,Net-(D2-Pad1)*
X100500000Y-72000000D03*
D12*
G04 #@! TO.P,D2,2*
G04 #@! TO.N,Net-(C2-Pad1)*
X108120000Y-72000000D03*
G04 #@! TD*
D11*
G04 #@! TO.P,D1,1*
G04 #@! TO.N,Net-(C1-Pad1)*
X107750000Y-56500000D03*
D12*
G04 #@! TO.P,D1,2*
G04 #@! TO.N,Net-(D1-Pad2)*
X100130000Y-56500000D03*
G04 #@! TD*
D13*
G04 #@! TO.P,C10,2*
G04 #@! TO.N,GNDREF*
X135500000Y-60500000D03*
D14*
G04 #@! TO.P,C10,1*
G04 #@! TO.N,/VCC*
X140500000Y-60500000D03*
G04 #@! TD*
G04 #@! TO.P,C11,1*
G04 #@! TO.N,/VEE*
X129500000Y-61000000D03*
D13*
G04 #@! TO.P,C11,2*
G04 #@! TO.N,GNDREF*
X124500000Y-61000000D03*
G04 #@! TD*
D15*
G04 #@! TO.N,/VEE*
G04 #@! TO.C,C7*
G36*
X131310779Y-66776144D02*
X131333834Y-66779563D01*
X131356443Y-66785227D01*
X131378387Y-66793079D01*
X131399457Y-66803044D01*
X131419448Y-66815026D01*
X131438168Y-66828910D01*
X131455438Y-66844562D01*
X131471090Y-66861832D01*
X131484974Y-66880552D01*
X131496956Y-66900543D01*
X131506921Y-66921613D01*
X131514773Y-66943557D01*
X131520437Y-66966166D01*
X131523856Y-66989221D01*
X131525000Y-67012500D01*
X131525000Y-67487500D01*
X131523856Y-67510779D01*
X131520437Y-67533834D01*
X131514773Y-67556443D01*
X131506921Y-67578387D01*
X131496956Y-67599457D01*
X131484974Y-67619448D01*
X131471090Y-67638168D01*
X131455438Y-67655438D01*
X131438168Y-67671090D01*
X131419448Y-67684974D01*
X131399457Y-67696956D01*
X131378387Y-67706921D01*
X131356443Y-67714773D01*
X131333834Y-67720437D01*
X131310779Y-67723856D01*
X131287500Y-67725000D01*
X130712500Y-67725000D01*
X130689221Y-67723856D01*
X130666166Y-67720437D01*
X130643557Y-67714773D01*
X130621613Y-67706921D01*
X130600543Y-67696956D01*
X130580552Y-67684974D01*
X130561832Y-67671090D01*
X130544562Y-67655438D01*
X130528910Y-67638168D01*
X130515026Y-67619448D01*
X130503044Y-67599457D01*
X130493079Y-67578387D01*
X130485227Y-67556443D01*
X130479563Y-67533834D01*
X130476144Y-67510779D01*
X130475000Y-67487500D01*
X130475000Y-67012500D01*
X130476144Y-66989221D01*
X130479563Y-66966166D01*
X130485227Y-66943557D01*
X130493079Y-66921613D01*
X130503044Y-66900543D01*
X130515026Y-66880552D01*
X130528910Y-66861832D01*
X130544562Y-66844562D01*
X130561832Y-66828910D01*
X130580552Y-66815026D01*
X130600543Y-66803044D01*
X130621613Y-66793079D01*
X130643557Y-66785227D01*
X130666166Y-66779563D01*
X130689221Y-66776144D01*
X130712500Y-66775000D01*
X131287500Y-66775000D01*
X131310779Y-66776144D01*
X131310779Y-66776144D01*
G37*
D16*
G04 #@! TD*
G04 #@! TO.P,C7,1*
G04 #@! TO.N,/VEE*
X131000000Y-67250000D03*
D15*
G04 #@! TO.N,GNDREF*
G04 #@! TO.C,C7*
G36*
X133060779Y-66776144D02*
X133083834Y-66779563D01*
X133106443Y-66785227D01*
X133128387Y-66793079D01*
X133149457Y-66803044D01*
X133169448Y-66815026D01*
X133188168Y-66828910D01*
X133205438Y-66844562D01*
X133221090Y-66861832D01*
X133234974Y-66880552D01*
X133246956Y-66900543D01*
X133256921Y-66921613D01*
X133264773Y-66943557D01*
X133270437Y-66966166D01*
X133273856Y-66989221D01*
X133275000Y-67012500D01*
X133275000Y-67487500D01*
X133273856Y-67510779D01*
X133270437Y-67533834D01*
X133264773Y-67556443D01*
X133256921Y-67578387D01*
X133246956Y-67599457D01*
X133234974Y-67619448D01*
X133221090Y-67638168D01*
X133205438Y-67655438D01*
X133188168Y-67671090D01*
X133169448Y-67684974D01*
X133149457Y-67696956D01*
X133128387Y-67706921D01*
X133106443Y-67714773D01*
X133083834Y-67720437D01*
X133060779Y-67723856D01*
X133037500Y-67725000D01*
X132462500Y-67725000D01*
X132439221Y-67723856D01*
X132416166Y-67720437D01*
X132393557Y-67714773D01*
X132371613Y-67706921D01*
X132350543Y-67696956D01*
X132330552Y-67684974D01*
X132311832Y-67671090D01*
X132294562Y-67655438D01*
X132278910Y-67638168D01*
X132265026Y-67619448D01*
X132253044Y-67599457D01*
X132243079Y-67578387D01*
X132235227Y-67556443D01*
X132229563Y-67533834D01*
X132226144Y-67510779D01*
X132225000Y-67487500D01*
X132225000Y-67012500D01*
X132226144Y-66989221D01*
X132229563Y-66966166D01*
X132235227Y-66943557D01*
X132243079Y-66921613D01*
X132253044Y-66900543D01*
X132265026Y-66880552D01*
X132278910Y-66861832D01*
X132294562Y-66844562D01*
X132311832Y-66828910D01*
X132330552Y-66815026D01*
X132350543Y-66803044D01*
X132371613Y-66793079D01*
X132393557Y-66785227D01*
X132416166Y-66779563D01*
X132439221Y-66776144D01*
X132462500Y-66775000D01*
X133037500Y-66775000D01*
X133060779Y-66776144D01*
X133060779Y-66776144D01*
G37*
D16*
G04 #@! TD*
G04 #@! TO.P,C7,2*
G04 #@! TO.N,GNDREF*
X132750000Y-67250000D03*
D13*
G04 #@! TO.P,J4,3*
G04 #@! TO.N,/VCC*
X137500000Y-68920000D03*
G04 #@! TO.P,J4,2*
G04 #@! TO.N,GNDREF*
X137500000Y-71460000D03*
D14*
G04 #@! TO.P,J4,1*
G04 #@! TO.N,/VEE*
X137500000Y-74000000D03*
G04 #@! TD*
G04 #@! TO.P,J2,1*
G04 #@! TO.N,/VDD*
X108500000Y-78500000D03*
D13*
G04 #@! TO.P,J2,2*
G04 #@! TO.N,GND*
X108500000Y-81040000D03*
G04 #@! TO.P,J2,3*
G04 #@! TO.N,Net-(J2-Pad3)*
X108500000Y-83580000D03*
G04 #@! TD*
D17*
G04 #@! TO.P,C1,2*
G04 #@! TO.N,GNDREF*
X115000000Y-56500000D03*
D18*
G04 #@! TO.P,C1,1*
G04 #@! TO.N,Net-(C1-Pad1)*
X115000000Y-51500000D03*
G04 #@! TD*
G04 #@! TO.P,C2,1*
G04 #@! TO.N,Net-(C2-Pad1)*
X115000000Y-70000000D03*
D17*
G04 #@! TO.P,C2,2*
G04 #@! TO.N,GNDREF*
X115000000Y-65000000D03*
G04 #@! TD*
D15*
G04 #@! TO.N,Net-(C1-Pad1)*
G04 #@! TO.C,C4*
G36*
X126685779Y-53276144D02*
X126708834Y-53279563D01*
X126731443Y-53285227D01*
X126753387Y-53293079D01*
X126774457Y-53303044D01*
X126794448Y-53315026D01*
X126813168Y-53328910D01*
X126830438Y-53344562D01*
X126846090Y-53361832D01*
X126859974Y-53380552D01*
X126871956Y-53400543D01*
X126881921Y-53421613D01*
X126889773Y-53443557D01*
X126895437Y-53466166D01*
X126898856Y-53489221D01*
X126900000Y-53512500D01*
X126900000Y-53987500D01*
X126898856Y-54010779D01*
X126895437Y-54033834D01*
X126889773Y-54056443D01*
X126881921Y-54078387D01*
X126871956Y-54099457D01*
X126859974Y-54119448D01*
X126846090Y-54138168D01*
X126830438Y-54155438D01*
X126813168Y-54171090D01*
X126794448Y-54184974D01*
X126774457Y-54196956D01*
X126753387Y-54206921D01*
X126731443Y-54214773D01*
X126708834Y-54220437D01*
X126685779Y-54223856D01*
X126662500Y-54225000D01*
X126087500Y-54225000D01*
X126064221Y-54223856D01*
X126041166Y-54220437D01*
X126018557Y-54214773D01*
X125996613Y-54206921D01*
X125975543Y-54196956D01*
X125955552Y-54184974D01*
X125936832Y-54171090D01*
X125919562Y-54155438D01*
X125903910Y-54138168D01*
X125890026Y-54119448D01*
X125878044Y-54099457D01*
X125868079Y-54078387D01*
X125860227Y-54056443D01*
X125854563Y-54033834D01*
X125851144Y-54010779D01*
X125850000Y-53987500D01*
X125850000Y-53512500D01*
X125851144Y-53489221D01*
X125854563Y-53466166D01*
X125860227Y-53443557D01*
X125868079Y-53421613D01*
X125878044Y-53400543D01*
X125890026Y-53380552D01*
X125903910Y-53361832D01*
X125919562Y-53344562D01*
X125936832Y-53328910D01*
X125955552Y-53315026D01*
X125975543Y-53303044D01*
X125996613Y-53293079D01*
X126018557Y-53285227D01*
X126041166Y-53279563D01*
X126064221Y-53276144D01*
X126087500Y-53275000D01*
X126662500Y-53275000D01*
X126685779Y-53276144D01*
X126685779Y-53276144D01*
G37*
D16*
G04 #@! TD*
G04 #@! TO.P,C4,1*
G04 #@! TO.N,Net-(C1-Pad1)*
X126375000Y-53750000D03*
D15*
G04 #@! TO.N,GNDREF*
G04 #@! TO.C,C4*
G36*
X128435779Y-53276144D02*
X128458834Y-53279563D01*
X128481443Y-53285227D01*
X128503387Y-53293079D01*
X128524457Y-53303044D01*
X128544448Y-53315026D01*
X128563168Y-53328910D01*
X128580438Y-53344562D01*
X128596090Y-53361832D01*
X128609974Y-53380552D01*
X128621956Y-53400543D01*
X128631921Y-53421613D01*
X128639773Y-53443557D01*
X128645437Y-53466166D01*
X128648856Y-53489221D01*
X128650000Y-53512500D01*
X128650000Y-53987500D01*
X128648856Y-54010779D01*
X128645437Y-54033834D01*
X128639773Y-54056443D01*
X128631921Y-54078387D01*
X128621956Y-54099457D01*
X128609974Y-54119448D01*
X128596090Y-54138168D01*
X128580438Y-54155438D01*
X128563168Y-54171090D01*
X128544448Y-54184974D01*
X128524457Y-54196956D01*
X128503387Y-54206921D01*
X128481443Y-54214773D01*
X128458834Y-54220437D01*
X128435779Y-54223856D01*
X128412500Y-54225000D01*
X127837500Y-54225000D01*
X127814221Y-54223856D01*
X127791166Y-54220437D01*
X127768557Y-54214773D01*
X127746613Y-54206921D01*
X127725543Y-54196956D01*
X127705552Y-54184974D01*
X127686832Y-54171090D01*
X127669562Y-54155438D01*
X127653910Y-54138168D01*
X127640026Y-54119448D01*
X127628044Y-54099457D01*
X127618079Y-54078387D01*
X127610227Y-54056443D01*
X127604563Y-54033834D01*
X127601144Y-54010779D01*
X127600000Y-53987500D01*
X127600000Y-53512500D01*
X127601144Y-53489221D01*
X127604563Y-53466166D01*
X127610227Y-53443557D01*
X127618079Y-53421613D01*
X127628044Y-53400543D01*
X127640026Y-53380552D01*
X127653910Y-53361832D01*
X127669562Y-53344562D01*
X127686832Y-53328910D01*
X127705552Y-53315026D01*
X127725543Y-53303044D01*
X127746613Y-53293079D01*
X127768557Y-53285227D01*
X127791166Y-53279563D01*
X127814221Y-53276144D01*
X127837500Y-53275000D01*
X128412500Y-53275000D01*
X128435779Y-53276144D01*
X128435779Y-53276144D01*
G37*
D16*
G04 #@! TD*
G04 #@! TO.P,C4,2*
G04 #@! TO.N,GNDREF*
X128125000Y-53750000D03*
D15*
G04 #@! TO.N,Net-(C2-Pad1)*
G04 #@! TO.C,C5*
G36*
X128435779Y-66776144D02*
X128458834Y-66779563D01*
X128481443Y-66785227D01*
X128503387Y-66793079D01*
X128524457Y-66803044D01*
X128544448Y-66815026D01*
X128563168Y-66828910D01*
X128580438Y-66844562D01*
X128596090Y-66861832D01*
X128609974Y-66880552D01*
X128621956Y-66900543D01*
X128631921Y-66921613D01*
X128639773Y-66943557D01*
X128645437Y-66966166D01*
X128648856Y-66989221D01*
X128650000Y-67012500D01*
X128650000Y-67487500D01*
X128648856Y-67510779D01*
X128645437Y-67533834D01*
X128639773Y-67556443D01*
X128631921Y-67578387D01*
X128621956Y-67599457D01*
X128609974Y-67619448D01*
X128596090Y-67638168D01*
X128580438Y-67655438D01*
X128563168Y-67671090D01*
X128544448Y-67684974D01*
X128524457Y-67696956D01*
X128503387Y-67706921D01*
X128481443Y-67714773D01*
X128458834Y-67720437D01*
X128435779Y-67723856D01*
X128412500Y-67725000D01*
X127837500Y-67725000D01*
X127814221Y-67723856D01*
X127791166Y-67720437D01*
X127768557Y-67714773D01*
X127746613Y-67706921D01*
X127725543Y-67696956D01*
X127705552Y-67684974D01*
X127686832Y-67671090D01*
X127669562Y-67655438D01*
X127653910Y-67638168D01*
X127640026Y-67619448D01*
X127628044Y-67599457D01*
X127618079Y-67578387D01*
X127610227Y-67556443D01*
X127604563Y-67533834D01*
X127601144Y-67510779D01*
X127600000Y-67487500D01*
X127600000Y-67012500D01*
X127601144Y-66989221D01*
X127604563Y-66966166D01*
X127610227Y-66943557D01*
X127618079Y-66921613D01*
X127628044Y-66900543D01*
X127640026Y-66880552D01*
X127653910Y-66861832D01*
X127669562Y-66844562D01*
X127686832Y-66828910D01*
X127705552Y-66815026D01*
X127725543Y-66803044D01*
X127746613Y-66793079D01*
X127768557Y-66785227D01*
X127791166Y-66779563D01*
X127814221Y-66776144D01*
X127837500Y-66775000D01*
X128412500Y-66775000D01*
X128435779Y-66776144D01*
X128435779Y-66776144D01*
G37*
D16*
G04 #@! TD*
G04 #@! TO.P,C5,1*
G04 #@! TO.N,Net-(C2-Pad1)*
X128125000Y-67250000D03*
D15*
G04 #@! TO.N,GNDREF*
G04 #@! TO.C,C5*
G36*
X126685779Y-66776144D02*
X126708834Y-66779563D01*
X126731443Y-66785227D01*
X126753387Y-66793079D01*
X126774457Y-66803044D01*
X126794448Y-66815026D01*
X126813168Y-66828910D01*
X126830438Y-66844562D01*
X126846090Y-66861832D01*
X126859974Y-66880552D01*
X126871956Y-66900543D01*
X126881921Y-66921613D01*
X126889773Y-66943557D01*
X126895437Y-66966166D01*
X126898856Y-66989221D01*
X126900000Y-67012500D01*
X126900000Y-67487500D01*
X126898856Y-67510779D01*
X126895437Y-67533834D01*
X126889773Y-67556443D01*
X126881921Y-67578387D01*
X126871956Y-67599457D01*
X126859974Y-67619448D01*
X126846090Y-67638168D01*
X126830438Y-67655438D01*
X126813168Y-67671090D01*
X126794448Y-67684974D01*
X126774457Y-67696956D01*
X126753387Y-67706921D01*
X126731443Y-67714773D01*
X126708834Y-67720437D01*
X126685779Y-67723856D01*
X126662500Y-67725000D01*
X126087500Y-67725000D01*
X126064221Y-67723856D01*
X126041166Y-67720437D01*
X126018557Y-67714773D01*
X125996613Y-67706921D01*
X125975543Y-67696956D01*
X125955552Y-67684974D01*
X125936832Y-67671090D01*
X125919562Y-67655438D01*
X125903910Y-67638168D01*
X125890026Y-67619448D01*
X125878044Y-67599457D01*
X125868079Y-67578387D01*
X125860227Y-67556443D01*
X125854563Y-67533834D01*
X125851144Y-67510779D01*
X125850000Y-67487500D01*
X125850000Y-67012500D01*
X125851144Y-66989221D01*
X125854563Y-66966166D01*
X125860227Y-66943557D01*
X125868079Y-66921613D01*
X125878044Y-66900543D01*
X125890026Y-66880552D01*
X125903910Y-66861832D01*
X125919562Y-66844562D01*
X125936832Y-66828910D01*
X125955552Y-66815026D01*
X125975543Y-66803044D01*
X125996613Y-66793079D01*
X126018557Y-66785227D01*
X126041166Y-66779563D01*
X126064221Y-66776144D01*
X126087500Y-66775000D01*
X126662500Y-66775000D01*
X126685779Y-66776144D01*
X126685779Y-66776144D01*
G37*
D16*
G04 #@! TD*
G04 #@! TO.P,C5,2*
G04 #@! TO.N,GNDREF*
X126375000Y-67250000D03*
D15*
G04 #@! TO.N,GNDREF*
G04 #@! TO.C,C6*
G36*
X131935779Y-53276144D02*
X131958834Y-53279563D01*
X131981443Y-53285227D01*
X132003387Y-53293079D01*
X132024457Y-53303044D01*
X132044448Y-53315026D01*
X132063168Y-53328910D01*
X132080438Y-53344562D01*
X132096090Y-53361832D01*
X132109974Y-53380552D01*
X132121956Y-53400543D01*
X132131921Y-53421613D01*
X132139773Y-53443557D01*
X132145437Y-53466166D01*
X132148856Y-53489221D01*
X132150000Y-53512500D01*
X132150000Y-53987500D01*
X132148856Y-54010779D01*
X132145437Y-54033834D01*
X132139773Y-54056443D01*
X132131921Y-54078387D01*
X132121956Y-54099457D01*
X132109974Y-54119448D01*
X132096090Y-54138168D01*
X132080438Y-54155438D01*
X132063168Y-54171090D01*
X132044448Y-54184974D01*
X132024457Y-54196956D01*
X132003387Y-54206921D01*
X131981443Y-54214773D01*
X131958834Y-54220437D01*
X131935779Y-54223856D01*
X131912500Y-54225000D01*
X131337500Y-54225000D01*
X131314221Y-54223856D01*
X131291166Y-54220437D01*
X131268557Y-54214773D01*
X131246613Y-54206921D01*
X131225543Y-54196956D01*
X131205552Y-54184974D01*
X131186832Y-54171090D01*
X131169562Y-54155438D01*
X131153910Y-54138168D01*
X131140026Y-54119448D01*
X131128044Y-54099457D01*
X131118079Y-54078387D01*
X131110227Y-54056443D01*
X131104563Y-54033834D01*
X131101144Y-54010779D01*
X131100000Y-53987500D01*
X131100000Y-53512500D01*
X131101144Y-53489221D01*
X131104563Y-53466166D01*
X131110227Y-53443557D01*
X131118079Y-53421613D01*
X131128044Y-53400543D01*
X131140026Y-53380552D01*
X131153910Y-53361832D01*
X131169562Y-53344562D01*
X131186832Y-53328910D01*
X131205552Y-53315026D01*
X131225543Y-53303044D01*
X131246613Y-53293079D01*
X131268557Y-53285227D01*
X131291166Y-53279563D01*
X131314221Y-53276144D01*
X131337500Y-53275000D01*
X131912500Y-53275000D01*
X131935779Y-53276144D01*
X131935779Y-53276144D01*
G37*
D16*
G04 #@! TD*
G04 #@! TO.P,C6,2*
G04 #@! TO.N,GNDREF*
X131625000Y-53750000D03*
D15*
G04 #@! TO.N,/VCC*
G04 #@! TO.C,C6*
G36*
X133685779Y-53276144D02*
X133708834Y-53279563D01*
X133731443Y-53285227D01*
X133753387Y-53293079D01*
X133774457Y-53303044D01*
X133794448Y-53315026D01*
X133813168Y-53328910D01*
X133830438Y-53344562D01*
X133846090Y-53361832D01*
X133859974Y-53380552D01*
X133871956Y-53400543D01*
X133881921Y-53421613D01*
X133889773Y-53443557D01*
X133895437Y-53466166D01*
X133898856Y-53489221D01*
X133900000Y-53512500D01*
X133900000Y-53987500D01*
X133898856Y-54010779D01*
X133895437Y-54033834D01*
X133889773Y-54056443D01*
X133881921Y-54078387D01*
X133871956Y-54099457D01*
X133859974Y-54119448D01*
X133846090Y-54138168D01*
X133830438Y-54155438D01*
X133813168Y-54171090D01*
X133794448Y-54184974D01*
X133774457Y-54196956D01*
X133753387Y-54206921D01*
X133731443Y-54214773D01*
X133708834Y-54220437D01*
X133685779Y-54223856D01*
X133662500Y-54225000D01*
X133087500Y-54225000D01*
X133064221Y-54223856D01*
X133041166Y-54220437D01*
X133018557Y-54214773D01*
X132996613Y-54206921D01*
X132975543Y-54196956D01*
X132955552Y-54184974D01*
X132936832Y-54171090D01*
X132919562Y-54155438D01*
X132903910Y-54138168D01*
X132890026Y-54119448D01*
X132878044Y-54099457D01*
X132868079Y-54078387D01*
X132860227Y-54056443D01*
X132854563Y-54033834D01*
X132851144Y-54010779D01*
X132850000Y-53987500D01*
X132850000Y-53512500D01*
X132851144Y-53489221D01*
X132854563Y-53466166D01*
X132860227Y-53443557D01*
X132868079Y-53421613D01*
X132878044Y-53400543D01*
X132890026Y-53380552D01*
X132903910Y-53361832D01*
X132919562Y-53344562D01*
X132936832Y-53328910D01*
X132955552Y-53315026D01*
X132975543Y-53303044D01*
X132996613Y-53293079D01*
X133018557Y-53285227D01*
X133041166Y-53279563D01*
X133064221Y-53276144D01*
X133087500Y-53275000D01*
X133662500Y-53275000D01*
X133685779Y-53276144D01*
X133685779Y-53276144D01*
G37*
D16*
G04 #@! TD*
G04 #@! TO.P,C6,1*
G04 #@! TO.N,/VCC*
X133375000Y-53750000D03*
D19*
G04 #@! TO.P,J1,3*
G04 #@! TO.N,Net-(D2-Pad1)*
X103500000Y-68000000D03*
G04 #@! TO.P,J1,2*
G04 #@! TO.N,GNDREF*
X103500000Y-64190000D03*
D20*
G04 #@! TO.P,J1,1*
G04 #@! TO.N,Net-(D1-Pad2)*
X103500000Y-60380000D03*
G04 #@! TD*
G04 #@! TO.P,J3,1*
G04 #@! TO.N,Net-(J3-Pad1)*
X132000000Y-79750000D03*
D19*
G04 #@! TO.P,J3,2*
G04 #@! TO.N,GNDREF*
X132000000Y-83560000D03*
G04 #@! TD*
D21*
G04 #@! TO.P,U1,1*
G04 #@! TO.N,Net-(C1-Pad1)*
X127500000Y-51000000D03*
D22*
G04 #@! TO.P,U1,2*
G04 #@! TO.N,GNDREF*
X130040000Y-51000000D03*
G04 #@! TO.P,U1,3*
G04 #@! TO.N,/VCC*
X132580000Y-51000000D03*
G04 #@! TD*
G04 #@! TO.P,U2,3*
G04 #@! TO.N,/VEE*
X131000000Y-70000000D03*
G04 #@! TO.P,U2,2*
G04 #@! TO.N,Net-(C2-Pad1)*
X128460000Y-70000000D03*
D21*
G04 #@! TO.P,U2,1*
G04 #@! TO.N,GNDREF*
X125920000Y-70000000D03*
G04 #@! TD*
D23*
G04 #@! TO.N,GNDREF*
X126500000Y-84250000D03*
G04 #@! TO.N,Net-(J3-Pad1)*
X133000000Y-76300000D03*
G04 #@! TD*
D24*
G04 #@! TO.N,GNDREF*
X114190000Y-64190000D02*
X115000000Y-65000000D01*
D25*
X103500000Y-64190000D02*
X114190000Y-64190000D01*
X115000000Y-65000000D02*
X115000000Y-56500000D01*
D24*
X130040000Y-55040000D02*
X135500000Y-60500000D01*
X130040000Y-51000000D02*
X130040000Y-55040000D01*
X130040000Y-55460000D02*
X130040000Y-51000000D01*
X124500000Y-61000000D02*
X130040000Y-55460000D01*
X124500000Y-68580000D02*
X125920000Y-70000000D01*
X130790000Y-53750000D02*
X131000000Y-53750000D01*
X130040000Y-53000000D02*
X130790000Y-53750000D01*
X130040000Y-51000000D02*
X130040000Y-53000000D01*
X128125000Y-53750000D02*
X131000000Y-53750000D01*
X131000000Y-53750000D02*
X131625000Y-53750000D01*
X136460000Y-71460000D02*
X137500000Y-71460000D01*
X135000000Y-70000000D02*
X136460000Y-71460000D01*
X135500000Y-60500000D02*
X135500000Y-61914213D01*
X135500000Y-61914213D02*
X135000000Y-62414213D01*
X132750000Y-67250000D02*
X135000000Y-67250000D01*
X135000000Y-62414213D02*
X135000000Y-67250000D01*
X135000000Y-67250000D02*
X135000000Y-70000000D01*
D25*
X120500000Y-65000000D02*
X115000000Y-65000000D01*
X125920000Y-70000000D02*
X125500000Y-70000000D01*
X125500000Y-70000000D02*
X120500000Y-65000000D01*
D24*
X139210000Y-71460000D02*
X137500000Y-71460000D01*
X140250000Y-72500000D02*
X139210000Y-71460000D01*
X132000000Y-83560000D02*
X140250000Y-75310000D01*
X140250000Y-75310000D02*
X140250000Y-72500000D01*
X131250000Y-84250000D02*
X126500000Y-84250000D01*
X132000000Y-83560000D02*
X131940000Y-83560000D01*
X131940000Y-83560000D02*
X131250000Y-84250000D01*
X126250000Y-70000000D02*
X125920000Y-70000000D01*
X126375000Y-67250000D02*
X126250000Y-67375000D01*
X126250000Y-67375000D02*
X126250000Y-70000000D01*
D25*
X124500000Y-61000000D02*
X124500000Y-68580000D01*
G04 #@! TO.N,Net-(C1-Pad1)*
X127000000Y-51500000D02*
X127500000Y-51000000D01*
X115000000Y-51500000D02*
X127000000Y-51500000D01*
D24*
X126375000Y-52125000D02*
X127500000Y-51000000D01*
X126375000Y-53750000D02*
X126375000Y-52125000D01*
D25*
X109000000Y-56500000D02*
X107750000Y-56500000D01*
X115000000Y-51500000D02*
X114000000Y-51500000D01*
X114000000Y-51500000D02*
X109000000Y-56500000D01*
G04 #@! TO.N,Net-(C2-Pad1)*
X113000000Y-72000000D02*
X115000000Y-70000000D01*
X108120000Y-72000000D02*
X113000000Y-72000000D01*
X119750000Y-70000000D02*
X115000000Y-70000000D01*
X122500000Y-72750000D02*
X119750000Y-70000000D01*
X126710000Y-72750000D02*
X122500000Y-72750000D01*
D24*
X128460000Y-71290000D02*
X127210000Y-72540000D01*
X128460000Y-70000000D02*
X128460000Y-71290000D01*
X128500000Y-69960000D02*
X128460000Y-70000000D01*
X128125000Y-67250000D02*
X128500000Y-67625000D01*
X128500000Y-67625000D02*
X128500000Y-69960000D01*
G04 #@! TO.N,/VCC*
X140500000Y-58967500D02*
X140500000Y-60500000D01*
X132580000Y-51047500D02*
X140500000Y-58967500D01*
X132580000Y-51000000D02*
X132580000Y-51047500D01*
X137500000Y-68920000D02*
X139080000Y-68920000D01*
X140500000Y-67500000D02*
X140500000Y-60500000D01*
X139080000Y-68920000D02*
X140500000Y-67500000D01*
X133375000Y-51795000D02*
X133375000Y-53750000D01*
X132580000Y-51000000D02*
X133375000Y-51795000D01*
G04 #@! TO.N,/VEE*
X131000000Y-62500000D02*
X129500000Y-61000000D01*
X131000000Y-70000000D02*
X131000000Y-62500000D01*
X131000000Y-67250000D02*
X131000000Y-70000000D01*
X135000000Y-74000000D02*
X131000000Y-70000000D01*
X137500000Y-74000000D02*
X135000000Y-74000000D01*
D25*
G04 #@! TO.N,Net-(D1-Pad2)*
X100130000Y-57010000D02*
X103500000Y-60380000D01*
D24*
X100130000Y-56500000D02*
X100130000Y-57010000D01*
D25*
G04 #@! TO.N,Net-(D2-Pad1)*
X102000000Y-70500000D02*
X100500000Y-72000000D01*
X103500000Y-68000000D02*
X103500000Y-69000000D01*
X103500000Y-69000000D02*
X102000000Y-70500000D01*
D24*
G04 #@! TO.N,Net-(J3-Pad1)*
X133000000Y-78500000D02*
X133000000Y-76250000D01*
X132000000Y-79750000D02*
X132000000Y-79500000D01*
X132000000Y-79500000D02*
X133000000Y-78500000D01*
G04 #@! TD*
M02*
