M48
;DRILL file {KiCad (5.0.0)} date 11/15/19 18:55:32
;FORMAT={-:-/ absolute / metric / decimal}
FMAT,2
METRIC,TZ
T1C0.700
T2C0.750
T3C0.800
T4C1.000
T5C1.100
T6C1.200
%
G90
G05
M71
T1
X103.5Y-60.38
X103.5Y-64.19
X103.5Y-68.
X132.Y-79.75
X132.Y-83.56
T2
X126.5Y-84.25
X133.Y-76.3
T3
X100.5Y-72.
X108.12Y-72.
X100.13Y-56.5
X107.75Y-56.5
T4
X135.5Y-60.5
X140.5Y-60.5
X108.5Y-78.5
X108.5Y-81.04
X108.5Y-83.58
X137.5Y-68.92
X137.5Y-71.46
X137.5Y-74.
X124.5Y-61.
X129.5Y-61.
T5
X125.92Y-70.
X128.46Y-70.
X131.Y-70.
X127.5Y-51.
X130.04Y-51.
X132.58Y-51.
T6
X115.Y-65.
X115.Y-70.
X115.Y-51.5
X115.Y-56.5
T0
M30
