M48
INCH
T01C0.0300
T02C0.0450
T03C0.1181
T04C0.0400
T05C0.1259
T06C0.0380
T07C0.0830
%
T01
X+011574Y-029448
X+014409Y-029448
X+016653Y-033267
X+016653Y-038582
X+005511Y-013503
X+002755Y-013503
X+004724Y-019566
X+001968Y-019566
X+004724Y-018503
X+002755Y-018503
X+004566Y-024015
X+001181Y-024015
X+034094Y-035433
X+034094Y-041377
X+010984Y-018267
X+008031Y-018267
X+010984Y-017204
X+008070Y-017204
X+030267Y-034429
X+030267Y-038598
X+006023Y-009832
X+006023Y-008582
X+006023Y-005826
X+006023Y-007076
X+029960Y-011755
X+029960Y-007755
X+034251Y-007755
X+034251Y-011755
X+029960Y-016795
X+029960Y-012795
X+034251Y-016795
X+034251Y-012795
X+021299Y-011755
X+021299Y-007755
X+025629Y-007755
X+025629Y-011755
X+023307Y-007755
X+023307Y-011755
X+027637Y-007755
X+027637Y-011755
X+009527Y-034842
X+009527Y-030842
X+015196Y-032637
X+015196Y-030637
X+015196Y-031637
X+004685Y-034826
X+004685Y-030826
X+025787Y-015866
X+025787Y-019866
X+024527Y-019866
X+024527Y-015866
X+020236Y-019826
X+020236Y-015826
X+021496Y-019826
X+021496Y-015826
X+004566Y-020629
X+004566Y-022629
X+011771Y-011181
X+011771Y-015181
X+005291Y-011181
X+009291Y-011181
X+038496Y-028535
X+036062Y-032559
X+036062Y-028559
X+037204Y-032598
X+037204Y-028598
X+034881Y-031716
X+034881Y-027716
X+033779Y-031417
X+033779Y-029417
T02
X+022118Y-032637
X+022118Y-031637
X+023118Y-032637
X+023118Y-031637
X+024118Y-032637
X+024118Y-031637
X+025118Y-032637
X+025118Y-031637
X+026118Y-032637
X+026118Y-031637
X+027118Y-032637
X+027118Y-031637
X+028118Y-032637
X+028118Y-031637
X+029118Y-032637
X+029118Y-031637
T03
X+002440Y-002244
X+002440Y-007401
X+038346Y-002204
X+038346Y-009409
T04
X+015196Y-003110
X+019196Y-003110
X+005314Y-002244
X+014314Y-002244
X+005314Y-004015
X+014314Y-004015
X+009015Y-006779
X+009015Y-007779
X+009015Y-008779
X+021299Y-006456
X+022299Y-006456
X+023299Y-006456
X+029944Y-006456
X+030944Y-006456
X+031944Y-006456
X+025629Y-006456
X+026629Y-006456
X+027629Y-006456
X+034275Y-006456
X+035275Y-006456
X+036275Y-006456
X+041023Y-021141
X+032023Y-021141
X+041023Y-023346
X+032023Y-023346
X+041023Y-025551
X+032023Y-025551
X+001850Y-036141
X+001850Y-038582
X+003503Y-036141
X+003503Y-038582
X+007874Y-036141
X+007874Y-038582
X+009527Y-036141
X+009527Y-038582
X+009937Y-014881
X+008937Y-014881
X+007937Y-014881
X+006937Y-014881
X+005937Y-014881
T05
X+015866Y-007779
T06
X+026614Y-013228
X+025814Y-014015
X+025014Y-013228
X+022322Y-013228
X+021522Y-014015
X+020722Y-013228
X+038622Y-034291
X+039606Y-034291
X+040590Y-034291
X+038496Y-029535
X+038496Y-030535
X+038496Y-031535
X+041496Y-031535
X+041496Y-030535
X+041496Y-029535
X+041496Y-028535
T07
X+037440Y-037244
X+041771Y-037244
M30
