M48
;DRILL file {KiCad 4.0.7-e2-6376~61~ubuntu18.04.1} date Tue Nov 27 15:13:51 2018
;FORMAT={-:-/ absolute / metric / decimal}
FMAT,2
METRIC,TZ
T1C0.600
T2C0.700
T3C0.711
T4C0.800
T5C0.900
T6C1.000
T7C1.200
T8C1.350
T9C1.520
T10C3.700
%
G90
G05
M71
T1
X123.825Y-91.44
X125.095Y-92.71
X126.365Y-91.44
X130.81Y-91.44
X132.08Y-92.71
X133.35Y-91.44
X137.16Y-109.22
X138.43Y-110.49
X139.7Y-109.22
X146.685Y-98.425
X147.955Y-97.155
X147.955Y-99.695
X198.755Y-95.25
X199.39Y-103.505
X199.39Y-109.22
X199.39Y-114.935
X200.025Y-96.52
X200.66Y-104.775
X200.66Y-110.49
X200.66Y-116.205
X201.295Y-95.25
X201.93Y-103.505
X201.93Y-109.22
X201.93Y-114.935
T2
X124.46Y-72.39
X125.73Y-73.66
X127.Y-72.39
X209.55Y-69.85
X209.55Y-72.39
X210.82Y-71.12
T3
X120.015Y-96.52
X127.635Y-116.205
X127.635Y-118.745
X127.635Y-121.285
X132.08Y-86.36
X132.08Y-104.775
X134.62Y-122.555
X148.59Y-121.285
X149.225Y-88.9
X170.815Y-121.285
X173.355Y-121.285
X175.895Y-121.285
X178.435Y-121.92
X185.42Y-119.38
X185.42Y-121.92
X187.325Y-88.265
X189.23Y-97.79
X195.58Y-92.71
X205.105Y-75.565
T4
X116.88Y-73.66
X118.11Y-78.105
X118.11Y-85.725
X119.38Y-73.66
X120.015Y-90.805
X120.015Y-93.305
X120.015Y-99.735
X120.015Y-102.235
X121.92Y-78.105
X121.92Y-85.725
X123.825Y-97.155
X123.825Y-100.965
X125.73Y-78.105
X125.73Y-85.725
X130.81Y-65.405
X130.81Y-74.93
X131.445Y-97.155
X131.445Y-100.965
X134.62Y-97.155
X134.62Y-101.6
X134.62Y-105.41
X138.43Y-65.405
X138.43Y-74.93
X139.065Y-78.105
X139.065Y-85.725
X142.24Y-97.155
X142.24Y-101.6
X142.24Y-105.41
X142.875Y-78.105
X142.875Y-85.725
X146.685Y-78.105
X146.685Y-85.725
X147.955Y-109.855
X147.955Y-117.475
X154.305Y-78.105
X154.305Y-85.725
X158.115Y-78.105
X158.115Y-85.725
X172.085Y-77.47
X179.705Y-77.47
X187.325Y-77.47
X187.325Y-85.09
X188.595Y-106.68
X188.595Y-110.49
X188.595Y-115.57
X189.27Y-102.87
X191.135Y-77.47
X191.135Y-85.09
X191.77Y-64.77
X191.77Y-102.87
X194.945Y-77.47
X194.945Y-85.09
X196.215Y-99.695
X196.215Y-106.68
X196.215Y-110.49
X196.215Y-115.57
X198.755Y-77.47
X198.755Y-85.09
X199.39Y-64.77
X202.565Y-66.04
X202.565Y-73.66
X203.835Y-99.695
X205.74Y-107.95
X205.74Y-115.57
X205.74Y-118.745
X205.74Y-126.365
X207.01Y-77.47
X207.01Y-85.09
X210.82Y-77.47
X210.82Y-85.09
X214.63Y-71.12
X214.63Y-78.74
X214.63Y-83.82
X214.63Y-86.32
T5
X135.255Y-78.105
X135.255Y-85.725
X137.16Y-119.38
X144.78Y-119.38
X150.495Y-78.105
X150.495Y-85.725
X183.515Y-77.47
X183.515Y-85.09
X202.565Y-77.47
X202.565Y-85.09
X211.455Y-90.805
X211.455Y-98.425
T6
X138.43Y-69.85
X140.97Y-69.85
X143.51Y-69.85
X154.94Y-69.85
X157.48Y-69.85
X160.02Y-69.85
X162.56Y-83.185
X165.1Y-83.185
X171.45Y-83.185
X172.72Y-69.85
X173.99Y-83.185
X175.26Y-69.85
X177.8Y-69.85
X191.77Y-69.85
X194.31Y-69.85
X196.85Y-69.85
T7
X101.6Y-81.28
X101.6Y-100.965
X109.1Y-81.28
X109.1Y-100.965
X156.21Y-90.17
X156.21Y-118.11
X168.275Y-90.17
X168.275Y-118.11
X180.34Y-90.17
X180.34Y-118.11
T8
X98.98Y-116.84
X101.52Y-114.3
X101.52Y-119.38
X104.06Y-116.84
X114.3Y-116.84
X116.84Y-114.3
X116.84Y-119.38
X119.38Y-116.84
T9
X127.Y-127.635
X132.08Y-127.635
X137.16Y-127.635
X146.05Y-127.635
X151.13Y-127.635
X156.21Y-127.635
X162.56Y-127.635
X167.64Y-127.635
X173.99Y-127.635
X179.07Y-127.635
X184.15Y-127.635
X189.23Y-127.635
X194.31Y-127.635
T10
X100.33Y-62.865
X100.965Y-128.27
X213.36Y-63.5
X213.36Y-128.27
T0
M30
