M48
; DRILL file {KiCad 5.1.4-e60b266~84~ubuntu18.04.1} date mar 17 sep 2019 14:37:42 -03
; FORMAT={-:-/ absolute / inch / decimal}
; #@! TF.CreationDate,2019-09-17T14:37:42-03:00
; #@! TF.GenerationSoftware,Kicad,Pcbnew,5.1.4-e60b266~84~ubuntu18.04.1
FMAT,2
INCH
T1C0.0315
T2C0.0354
T3C0.0394
T4C0.1260
%
G90
G05
T1
X6.6Y-3.713
X6.6Y-3.813
X6.6Y-3.913
X6.6Y-2.75
X6.6Y-2.85
X6.6Y-2.95
X6.05Y-3.05
X6.35Y-3.05
X5.9Y-3.2
X6.2Y-3.2
X5.6Y-2.75
X5.9Y-2.75
X5.75Y-3.05
X5.75Y-3.15
X5.75Y-3.25
X5.95Y-4.35
X6.25Y-4.35
X5.95Y-3.4
X6.25Y-3.4
X6.3Y-3.2
X6.6Y-3.2
X5.9Y-4.15
X6.2Y-4.15
X6.05Y-4.0
X6.35Y-4.0
X5.75Y-4.0
X5.75Y-4.1
X5.75Y-4.2
X5.6Y-3.7
X5.9Y-3.7
X6.3Y-4.15
X6.6Y-4.15
T2
X5.6Y-3.85
X5.9Y-3.85
X5.55Y-4.35
X5.85Y-4.35
X5.6Y-2.9
X5.9Y-2.9
X6.05Y-2.9
X6.35Y-2.9
X6.05Y-3.712
X6.35Y-3.712
X6.05Y-3.85
X6.35Y-3.85
X6.05Y-2.75
X6.35Y-2.75
X5.55Y-3.4
X5.85Y-3.4
T3
X5.4Y-3.35
X6.4Y-3.4
X6.4Y-4.35
X5.4Y-4.05
X5.4Y-4.3
X6.6Y-3.4
X5.4Y-3.85
X5.4Y-2.9
X6.6Y-4.35
X5.4Y-3.65
X5.4Y-2.7
X5.4Y-3.1
T4
X6.55Y-4.6
X5.45Y-4.6
X5.45Y-2.45
X6.55Y-2.45
T0
M30
