G04 #@! TF.GenerationSoftware,KiCad,Pcbnew,5.1.4-e60b266~84~ubuntu18.04.1*
G04 #@! TF.CreationDate,2019-09-17T14:37:55-03:00*
G04 #@! TF.ProjectId,FuenteDePulsos,4675656e-7465-4446-9550-756c736f732e,rev?*
G04 #@! TF.SameCoordinates,Original*
G04 #@! TF.FileFunction,Copper,L2,Bot*
G04 #@! TF.FilePolarity,Positive*
%FSLAX46Y46*%
G04 Gerber Fmt 4.6, Leading zero omitted, Abs format (unit mm)*
G04 Created by KiCad (PCBNEW 5.1.4-e60b266~84~ubuntu18.04.1) date 2019-09-17 14:37:55*
%MOMM*%
%LPD*%
G04 APERTURE LIST*
%ADD10C,0.150000*%
%ADD11O,1.600000X1.600000*%
%ADD12C,1.600000*%
%ADD13R,1.500000X1.500000*%
%ADD14C,1.500000*%
%ADD15R,1.700000X1.700000*%
%ADD16O,1.800000X1.800000*%
%ADD17R,1.800000X1.800000*%
%ADD18C,0.762000*%
G04 APERTURE END LIST*
D10*
X133350000Y-57150000D02*
X133350000Y-121920000D01*
X134620000Y-57150000D02*
X133350000Y-57150000D01*
X171450000Y-57150000D02*
X134620000Y-57150000D01*
X171450000Y-121920000D02*
X171450000Y-57150000D01*
X133350000Y-121920000D02*
X171450000Y-121920000D01*
D11*
X158750000Y-86360000D03*
D12*
X151130000Y-86360000D03*
D11*
X157480000Y-81280000D03*
D12*
X149860000Y-81280000D03*
D11*
X161290000Y-77470000D03*
D12*
X153670000Y-77470000D03*
D11*
X160020000Y-81280000D03*
D12*
X167640000Y-81280000D03*
D11*
X149860000Y-69850000D03*
D12*
X142240000Y-69850000D03*
D13*
X146050000Y-77470000D03*
D14*
X146050000Y-82550000D03*
X146050000Y-80010000D03*
D13*
X167640000Y-69850000D03*
D14*
X167640000Y-74930000D03*
X167640000Y-72390000D03*
D15*
X162560000Y-86360000D03*
X137160000Y-85090000D03*
X167640000Y-86360000D03*
X137160000Y-78740000D03*
X137160000Y-68580000D03*
X137160000Y-73660000D03*
D16*
X140970000Y-86360000D03*
D17*
X148590000Y-86360000D03*
D16*
X161290000Y-69850000D03*
D17*
X153670000Y-69850000D03*
D16*
X153670000Y-73660000D03*
D17*
X161290000Y-73660000D03*
D16*
X149860000Y-73660000D03*
D17*
X142240000Y-73660000D03*
D11*
X158750000Y-110490000D03*
D12*
X151130000Y-110490000D03*
D11*
X157480000Y-105410000D03*
D12*
X149860000Y-105410000D03*
D11*
X161290000Y-101600000D03*
D12*
X153670000Y-101600000D03*
D11*
X160020000Y-105410000D03*
D12*
X167640000Y-105410000D03*
D11*
X149860000Y-93980000D03*
D12*
X142240000Y-93980000D03*
D15*
X137160000Y-109220000D03*
D16*
X140970000Y-110490000D03*
D17*
X148590000Y-110490000D03*
D16*
X161290000Y-94284800D03*
D17*
X153670000Y-94284800D03*
D16*
X153670000Y-97790000D03*
D17*
X161290000Y-97790000D03*
D16*
X149860000Y-97790000D03*
D17*
X142240000Y-97790000D03*
D13*
X146050000Y-101600000D03*
D14*
X146050000Y-106680000D03*
X146050000Y-104140000D03*
D13*
X167640000Y-94310200D03*
D14*
X167640000Y-99390200D03*
X167640000Y-96850200D03*
D15*
X162560000Y-110490000D03*
X137160000Y-102870000D03*
X167640000Y-110490000D03*
X137160000Y-92710000D03*
X137160000Y-97790000D03*
D18*
X140042000Y-101600000D02*
X146050000Y-101600000D01*
X137160000Y-102870000D02*
X138772000Y-102870000D01*
X138772000Y-102870000D02*
X140042000Y-101600000D01*
X137160000Y-109220000D02*
X137160000Y-102870000D01*
X153670000Y-92622800D02*
X152487200Y-91440000D01*
X153670000Y-94284800D02*
X153670000Y-92622800D01*
X146050000Y-100088000D02*
X146050000Y-101600000D01*
X146050000Y-95591014D02*
X146050000Y-100088000D01*
X152487200Y-91440000D02*
X150201014Y-91440000D01*
X138430000Y-77470000D02*
X137160000Y-78740000D01*
X146050000Y-77470000D02*
X138430000Y-77470000D01*
X137160000Y-85090000D02*
X137160000Y-78740000D01*
X153670000Y-68188000D02*
X152792000Y-67310000D01*
X153670000Y-69850000D02*
X153670000Y-68188000D01*
X152792000Y-67310000D02*
X148590000Y-67310000D01*
X146050000Y-69850000D02*
X146050000Y-77470000D01*
X148590000Y-67310000D02*
X146050000Y-69850000D01*
X142068507Y-91610507D02*
X150030507Y-91610507D01*
X137160000Y-85090000D02*
X137160000Y-86702000D01*
X150201014Y-91440000D02*
X150030507Y-91610507D01*
X137160000Y-86702000D02*
X142068507Y-91610507D01*
X150030507Y-91610507D02*
X146050000Y-95591014D01*
X137160000Y-97790000D02*
X142240000Y-97790000D01*
X153670000Y-97790000D02*
X149860000Y-97790000D01*
X149860000Y-93980000D02*
X149860000Y-97790000D01*
X162229800Y-96850200D02*
X161290000Y-97790000D01*
X167640000Y-96850200D02*
X162229800Y-96850200D01*
X146050000Y-104140000D02*
X147320000Y-104140000D01*
X149860000Y-101600000D02*
X153670000Y-101600000D01*
X147320000Y-104140000D02*
X149860000Y-101600000D01*
X144780000Y-106680000D02*
X140970000Y-110490000D01*
X146050000Y-106680000D02*
X144780000Y-106680000D01*
X140970000Y-92710000D02*
X142240000Y-93980000D01*
X137160000Y-92710000D02*
X140970000Y-92710000D01*
X157480000Y-105410000D02*
X160020000Y-105410000D01*
X167640000Y-108878000D02*
X167640000Y-110490000D01*
X164172000Y-105410000D02*
X167640000Y-108878000D01*
X160020000Y-105410000D02*
X164172000Y-105410000D01*
X162560000Y-110490000D02*
X158750000Y-110490000D01*
X167614600Y-94284800D02*
X167640000Y-94310200D01*
X161290000Y-94284800D02*
X167614600Y-94284800D01*
X167640000Y-105410000D02*
X167640000Y-99390200D01*
X165430200Y-101600000D02*
X167640000Y-99390200D01*
X161290000Y-101600000D02*
X165430200Y-101600000D01*
X148590000Y-106680000D02*
X149860000Y-105410000D01*
X148590000Y-110490000D02*
X148590000Y-106680000D01*
X151130000Y-110490000D02*
X148590000Y-110490000D01*
X149860000Y-69850000D02*
X149860000Y-72390000D01*
X149860000Y-72390000D02*
X149860000Y-73660000D01*
X149860000Y-73660000D02*
X153670000Y-73660000D01*
X142240000Y-73660000D02*
X137160000Y-73660000D01*
X161290000Y-73660000D02*
X163830000Y-73660000D01*
X163830000Y-73660000D02*
X165100000Y-72390000D01*
X165100000Y-72390000D02*
X167640000Y-72390000D01*
X167640000Y-69850000D02*
X161290000Y-69850000D01*
X142240000Y-86360000D02*
X146050000Y-82550000D01*
X140970000Y-86360000D02*
X142240000Y-86360000D01*
X148590000Y-86360000D02*
X151130000Y-86360000D01*
X149860000Y-85090000D02*
X148590000Y-86360000D01*
X149860000Y-81280000D02*
X149860000Y-85090000D01*
X140970000Y-68580000D02*
X142240000Y-69850000D01*
X137160000Y-68580000D02*
X140970000Y-68580000D01*
X157480000Y-81280000D02*
X160020000Y-81280000D01*
X167640000Y-84748000D02*
X164172000Y-81280000D01*
X161151370Y-81280000D02*
X160020000Y-81280000D01*
X164172000Y-81280000D02*
X161151370Y-81280000D01*
X167640000Y-86360000D02*
X167640000Y-84748000D01*
X158750000Y-86360000D02*
X162560000Y-86360000D01*
X167640000Y-81280000D02*
X167640000Y-74930000D01*
X165100000Y-77470000D02*
X167640000Y-74930000D01*
X161290000Y-77470000D02*
X165100000Y-77470000D01*
X148590000Y-77470000D02*
X153670000Y-77470000D01*
X146050000Y-80010000D02*
X148590000Y-77470000D01*
M02*
